# Blender v2.78 (sub 0) OBJ File: 'лампочка.blend'
# www.blender.org
mtllib лампочка.mtl
o Окружность
v 0.000000 0.197054 -0.476028
v -0.412253 0.197054 -0.238014
v -0.412253 0.197054 0.238014
v 0.000000 0.197054 0.476028
v 0.412253 0.197054 0.238014
v 0.412253 0.197054 -0.238014
v 0.000000 0.874255 -0.476028
v -0.412253 0.874255 -0.238014
v -0.412253 0.874255 0.238014
v 0.000000 0.874255 0.476028
v 0.412253 0.874255 0.238014
v 0.412253 0.874255 -0.238014
v -0.000000 2.947119 0.000000
v 0.567922 1.284948 -0.327890
v 0.657154 1.510503 -0.379408
v 0.733798 1.736058 -0.423658
v 0.795543 1.961612 -0.459307
v 0.813807 2.187167 -0.469852
v 0.739908 2.412722 -0.427186
v 0.599907 2.638276 -0.346356
v 0.298718 2.863831 -0.172465
v 0.298718 2.863831 0.172465
v 0.599907 2.638277 0.346356
v 0.739908 2.412722 0.427186
v 0.813807 2.187167 0.469852
v 0.795543 1.961612 0.459307
v 0.733798 1.736058 0.423658
v 0.657154 1.510503 0.379408
v 0.567922 1.284948 0.327890
v 0.000000 1.284948 0.655779
v 0.000000 1.510503 0.758816
v -0.000000 1.736058 0.847317
v -0.000000 1.961612 0.918614
v -0.000000 2.187167 0.939704
v -0.000000 2.412722 0.854372
v -0.000000 2.638276 0.692713
v -0.000000 2.863831 0.344931
v -0.298719 2.863831 0.172465
v -0.599907 2.638277 0.346356
v -0.739908 2.412722 0.427186
v -0.813807 2.187167 0.469852
v -0.795544 1.961612 0.459307
v -0.733798 1.736058 0.423658
v -0.657155 1.510503 0.379408
v -0.567922 1.284948 0.327890
v -0.567922 1.284948 -0.327890
v -0.657154 1.510503 -0.379408
v -0.733798 1.736058 -0.423658
v -0.795544 1.961612 -0.459307
v -0.813807 2.187167 -0.469852
v -0.739908 2.412722 -0.427186
v -0.599907 2.638276 -0.346356
v -0.298719 2.863831 -0.172465
v -0.000000 2.863831 -0.344930
v -0.000000 2.638277 -0.692713
v -0.000000 2.412722 -0.854372
v -0.000000 2.187167 -0.939704
v -0.000000 1.961612 -0.918614
v -0.000000 1.736058 -0.847317
v -0.000000 1.510503 -0.758816
v -0.000000 1.284948 -0.655779
v 0.000000 0.047902 0.000000
vn 0.3402 -0.9403 0.0000
vn 0.2686 0.9633 0.0000
vn 1.0000 0.0000 0.0000
vn -0.5000 0.0000 0.8660
vn -0.5000 0.0000 -0.8660
vn 0.5000 0.0000 -0.8660
vn 0.5000 0.0000 0.8660
vn -1.0000 0.0000 0.0000
vn -0.1343 0.9633 0.2326
vn -0.1343 0.9633 -0.2326
vn 0.1343 0.9633 -0.2326
vn 0.1343 0.9633 0.2326
vn -0.2686 0.9633 0.0000
vn -0.9351 -0.3544 0.0000
vn -0.9299 -0.3679 0.0000
vn -0.9468 -0.3217 -0.0000
vn -0.9645 -0.2640 -0.0000
vn -0.9967 -0.0807 -0.0000
vn -0.9503 0.3113 -0.0000
vn -0.8496 0.5274 -0.0000
vn -0.5994 0.8004 0.0000
vn 0.4675 -0.3544 0.8098
vn 0.4649 -0.3679 0.8053
vn 0.4734 -0.3217 0.8200
vn 0.4823 -0.2640 0.8353
vn 0.4984 -0.0807 0.8632
vn 0.4751 0.3113 0.8230
vn 0.4248 0.5274 0.7358
vn 0.2997 0.8004 0.5191
vn 0.4675 -0.3544 -0.8098
vn 0.4649 -0.3679 -0.8053
vn 0.4734 -0.3217 -0.8200
vn 0.4823 -0.2640 -0.8353
vn 0.4984 -0.0807 -0.8632
vn 0.4751 0.3113 -0.8230
vn 0.4248 0.5274 -0.7358
vn 0.2997 0.8004 -0.5191
vn -0.4675 -0.3544 -0.8098
vn -0.4649 -0.3679 -0.8053
vn -0.4734 -0.3217 -0.8200
vn -0.4823 -0.2640 -0.8353
vn -0.4984 -0.0807 -0.8632
vn -0.4751 0.3113 -0.8230
vn -0.4248 0.5274 -0.7358
vn -0.2997 0.8004 -0.5191
vn -0.4675 -0.3544 0.8098
vn -0.4649 -0.3679 0.8053
vn -0.4734 -0.3217 0.8200
vn -0.4823 -0.2640 0.8353
vn -0.4984 -0.0807 0.8632
vn -0.4751 0.3113 0.8230
vn -0.4248 0.5274 0.7358
vn -0.2997 0.8004 0.5191
vn 0.9351 -0.3544 0.0000
vn 0.9299 -0.3679 0.0000
vn 0.9468 -0.3217 0.0000
vn 0.9645 -0.2640 0.0000
vn 0.9967 -0.0807 0.0000
vn 0.9503 0.3113 -0.0000
vn 0.8496 0.5274 -0.0000
vn 0.5994 0.8004 0.0000
vn -0.1701 -0.9403 0.2946
vn -0.1701 -0.9403 -0.2946
vn 0.1701 -0.9403 -0.2946
vn 0.1701 -0.9403 0.2946
vn -0.3402 -0.9403 0.0000
usemtl None
s off
f 6//1 5//1 62//1
f 22//2 21//2 13//2
f 5//3 6//3 12//3 11//3
f 3//4 4//4 10//4 9//4
f 1//5 2//5 8//5 7//5
f 6//6 1//6 7//6 12//6
f 4//7 5//7 11//7 10//7
f 2//8 3//8 9//8 8//8
f 38//9 37//9 13//9
f 54//10 53//10 13//10
f 21//11 54//11 13//11
f 37//12 22//12 13//12
f 53//13 38//13 13//13
f 8//14 9//14 45//14 46//14
f 46//15 45//15 44//15 47//15
f 47//16 44//16 43//16 48//16
f 48//17 43//17 42//17 49//17
f 49//18 42//18 41//18 50//18
f 50//19 41//19 40//19 51//19
f 51//20 40//20 39//20 52//20
f 52//21 39//21 38//21 53//21
f 10//22 11//22 29//22 30//22
f 30//23 29//23 28//23 31//23
f 31//24 28//24 27//24 32//24
f 32//25 27//25 26//25 33//25
f 33//26 26//26 25//26 34//26
f 34//27 25//27 24//27 35//27
f 35//28 24//28 23//28 36//28
f 36//29 23//29 22//29 37//29
f 12//30 7//30 61//30 14//30
f 14//31 61//31 60//31 15//31
f 15//32 60//32 59//32 16//32
f 16//33 59//33 58//33 17//33
f 17//34 58//34 57//34 18//34
f 18//35 57//35 56//35 19//35
f 19//36 56//36 55//36 20//36
f 20//37 55//37 54//37 21//37
f 7//38 8//38 46//38 61//38
f 61//39 46//39 47//39 60//39
f 60//40 47//40 48//40 59//40
f 59//41 48//41 49//41 58//41
f 58//42 49//42 50//42 57//42
f 57//43 50//43 51//43 56//43
f 56//44 51//44 52//44 55//44
f 55//45 52//45 53//45 54//45
f 9//46 10//46 30//46 45//46
f 45//47 30//47 31//47 44//47
f 44//48 31//48 32//48 43//48
f 43//49 32//49 33//49 42//49
f 42//50 33//50 34//50 41//50
f 41//51 34//51 35//51 40//51
f 40//52 35//52 36//52 39//52
f 39//53 36//53 37//53 38//53
f 11//54 12//54 14//54 29//54
f 29//55 14//55 15//55 28//55
f 28//56 15//56 16//56 27//56
f 27//57 16//57 17//57 26//57
f 26//58 17//58 18//58 25//58
f 25//59 18//59 19//59 24//59
f 24//60 19//60 20//60 23//60
f 23//61 20//61 21//61 22//61
f 4//62 3//62 62//62
f 2//63 1//63 62//63
f 1//64 6//64 62//64
f 5//65 4//65 62//65
f 3//66 2//66 62//66
