# Blender v2.79 (sub 0) OBJ File: ''
# www.blender.org
mtllib book.mtl
o Plane.019
v 4.665030 -58.799408 1.168544
v 4.665030 -58.799408 0.887234
v 4.665030 -58.799408 0.725190
v 4.665030 -58.799408 0.522644
v 4.665030 -58.799408 0.360614
v 4.665030 -58.799408 0.117555
v 4.665030 -58.799408 -0.084990
v 4.665030 -58.799408 -0.287535
v 4.665030 -58.799408 -0.490080
v 4.665030 -58.799408 -0.773655
v 4.665030 -58.799408 -1.057215
v 4.665030 -58.799408 -1.300275
v 4.665030 -58.799408 -1.543321
v 4.665030 -58.799408 -1.786381
v 4.665030 -58.799408 -1.948426
v 4.665030 -58.799408 -2.231986
v 4.665030 -58.799408 -2.515546
v 4.665030 -58.799408 -2.718091
v 4.665030 -58.799408 -2.920636
v 18.811810 -63.786247 -1.786381
v 8.143852 -48.930618 0.117555
v -9.481748 -53.812565 0.360615
v 18.811810 -63.786247 -0.084991
v 8.143852 -48.930618 1.168545
v -9.481748 -53.812565 -1.948425
v 8.143852 -48.930618 -2.515545
v 8.143852 -48.930618 -1.057215
v -9.481748 -53.812565 -0.084990
v -9.481748 -53.812565 -1.300275
v 1.186208 -68.668198 -0.490081
v 1.186208 -68.668198 0.522643
v 1.186208 -68.668198 -2.920636
v 8.143852 -48.930618 -2.231985
v 18.811810 -63.786247 0.725189
v -9.481748 -53.812565 -0.773655
v 1.186208 -68.668198 0.887233
v 18.811810 -63.786247 -1.057216
v 18.811810 -63.786247 -2.231986
v 8.143852 -48.930618 -0.287535
v -9.481748 -53.812565 0.725190
v 1.186208 -68.668198 -1.543321
v 18.811810 -63.786247 -2.920636
v -9.481748 -53.812565 -2.920635
v 18.811810 -63.786247 0.117554
v 8.143852 -48.930618 -0.490080
v -9.481748 -53.812565 -1.786380
v 1.186208 -68.668198 0.360613
v 1.186208 -68.668198 -1.948426
v 8.143852 -48.930618 0.522645
v -9.481748 -53.812565 0.117555
v 1.186208 -68.668198 -2.515547
v 18.811810 -63.786247 1.168544
v 1.186208 -68.668198 -1.300276
v 1.186208 -68.668198 -0.084991
v 18.811810 -63.786247 -0.490081
v 8.143852 -48.930618 -1.543320
v 8.143852 -48.930618 0.887235
v -9.481748 -53.812565 1.168545
v 1.186208 -68.668198 -0.773656
v 8.143852 -48.930618 -2.718090
v 8.143852 -48.930618 0.360615
v 18.811810 -63.786247 -2.515546
v -9.481748 -53.812565 -2.515545
v 8.143852 -48.930618 -1.948425
v -9.481748 -53.812565 -1.057215
v 18.811810 -63.786247 -0.287536
v -9.481748 -53.812565 -2.231985
v 1.186208 -68.668198 0.725189
v 8.143852 -48.930618 -0.084990
v 18.811810 -63.786247 -1.543321
v -9.481748 -53.812565 -0.287535
v 1.186208 -68.668198 -1.786381
v 18.811810 -63.786247 -1.948426
v 8.143852 -48.930618 -1.300275
v 1.186208 -68.668198 0.117554
v 18.811810 -63.786247 0.522644
v 18.811810 -63.786247 -1.300276
v 8.143852 -48.930618 -0.773655
v 8.143852 -48.930618 0.725190
v 1.186208 -68.668198 -2.718091
v -9.481748 -53.812565 -0.490080
v -9.481748 -53.812565 0.522645
v 18.811810 -63.786247 0.887234
v 8.143852 -48.930618 -2.920635
v 1.186208 -68.668198 1.168544
v 18.811810 -63.786247 -0.773656
v 18.811810 -63.786247 -2.718091
v 1.186208 -68.668198 -1.057216
v -9.481748 -53.812565 0.887235
v 1.186208 -68.668198 -2.231987
v -9.481748 -53.812565 -2.718090
v 8.143852 -48.930618 -1.786380
v 18.811810 -63.786247 0.360614
v 1.186208 -68.668198 -0.287536
v -9.481748 -53.812565 -1.543320
v -12.960569 -63.681358 1.168544
v 15.332986 -73.655037 1.168543
v 22.290630 -53.917454 1.168545
v -6.002925 -43.943775 1.168546
v -12.960569 -63.681358 0.887234
v 15.332986 -73.655037 0.887233
v 22.290630 -53.917454 0.887235
v -6.002925 -43.943775 0.887236
v -12.960569 -63.681358 0.725189
v 15.332986 -73.655037 0.725188
v 22.290630 -53.917454 0.725190
v -6.002925 -43.943775 0.725191
v -12.960569 -63.681358 0.522644
v 15.332986 -73.655037 0.522643
v 22.290630 -53.917454 0.522645
v -6.002925 -43.943775 0.522646
v -12.960569 -63.681358 0.360614
v 15.332986 -73.655037 0.360613
v 22.290630 -53.917454 0.360615
v -6.002925 -43.943775 0.360616
v -12.960569 -63.681358 0.117554
v 15.332986 -73.655037 0.117553
v 22.290630 -53.917454 0.117555
v -6.002925 -43.943775 0.117556
v -12.960569 -63.681358 -0.084991
v 15.332986 -73.655037 -0.084992
v 22.290630 -53.917454 -0.084990
v -6.002925 -43.943775 -0.084989
v -12.960569 -63.681358 -0.287536
v 15.332986 -73.655037 -0.287537
v 22.290630 -53.917454 -0.287535
v -6.002925 -43.943775 -0.287534
v -12.960569 -63.681358 -0.490081
v 15.332986 -73.655037 -0.490082
v 22.290630 -53.917454 -0.490080
v -6.002925 -43.943775 -0.490079
v -12.960569 -63.681358 -0.773656
v 15.332986 -73.655037 -0.773657
v 22.290630 -53.917454 -0.773655
v -6.002925 -43.943775 -0.773654
v -12.960569 -63.681358 -1.057216
v 15.332986 -73.655037 -1.057217
v 22.290630 -53.917454 -1.057215
v -6.002925 -43.943775 -1.057214
v -12.960569 -63.681358 -1.300276
v 15.332986 -73.655037 -1.300277
v 22.290630 -53.917454 -1.300275
v -6.002925 -43.943775 -1.300274
v -12.960569 -63.681358 -1.543321
v 15.332986 -73.655037 -1.543322
v 22.290630 -53.917454 -1.543320
v -6.002925 -43.943775 -1.543319
v -12.960569 -63.681358 -1.786381
v 15.332986 -73.655037 -1.786382
v 22.290630 -53.917454 -1.786380
v -6.002925 -43.943775 -1.786379
v -12.960569 -63.681358 -1.948426
v 15.332986 -73.655037 -1.948427
v 22.290630 -53.917454 -1.948425
v -6.002925 -43.943775 -1.948424
v -12.960569 -63.681358 -2.231986
v 15.332986 -73.655037 -2.231987
v 22.290630 -53.917454 -2.231985
v -6.002925 -43.943775 -2.231984
v -12.960569 -63.681358 -2.515546
v 15.332986 -73.655037 -2.515547
v 22.290630 -53.917454 -2.515545
v -6.002925 -43.943775 -2.515544
v -12.960569 -63.681358 -2.718091
v 15.332986 -73.655037 -2.718092
v 22.290630 -53.917454 -2.718090
v -6.002925 -43.943775 -2.718089
v -12.960569 -63.681358 -2.920636
v 15.332986 -73.655037 -2.920637
v 22.290630 -53.917454 -2.920635
v -6.002925 -43.943775 -2.920634
vt 0.000000 0.500000
vt 0.500000 0.000000
vt 0.500000 0.500000
vt 1.000000 0.000000
vt 1.000000 0.500000
vt 0.500000 1.000000
vt 0.000000 1.000000
vt 0.000000 0.500000
vt 0.500000 0.000000
vt 0.500000 0.500000
vt 1.000000 0.000000
vt 1.000000 0.500000
vt 0.500000 1.000000
vt 0.000000 1.000000
vt 0.000000 0.500000
vt 0.500000 0.000000
vt 0.500000 0.500000
vt 1.000000 0.000000
vt 1.000000 0.500000
vt 0.500000 1.000000
vt 0.000000 1.000000
vt 0.000000 0.500000
vt 0.500000 0.000000
vt 0.500000 0.500000
vt 1.000000 0.000000
vt 1.000000 0.500000
vt 0.500000 1.000000
vt 0.000000 1.000000
vt 0.000000 0.500000
vt 0.500000 0.000000
vt 0.500000 0.500000
vt 1.000000 0.000000
vt 1.000000 0.500000
vt 0.500000 1.000000
vt 0.000000 1.000000
vt 0.000000 0.500000
vt 0.500000 0.000000
vt 0.500000 0.500000
vt 1.000000 0.000000
vt 1.000000 0.500000
vt 0.500000 1.000000
vt 0.000000 1.000000
vt 0.000000 0.500000
vt 0.500000 0.000000
vt 0.500000 0.500000
vt 1.000000 0.000000
vt 1.000000 0.500000
vt 0.500000 1.000000
vt 0.000000 1.000000
vt 0.000000 0.500000
vt 0.500000 0.000000
vt 0.500000 0.500000
vt 1.000000 0.000000
vt 1.000000 0.500000
vt 0.500000 1.000000
vt 0.000000 1.000000
vt 0.000000 0.500000
vt 0.500000 0.000000
vt 0.500000 0.500000
vt 1.000000 0.000000
vt 1.000000 0.500000
vt 0.500000 1.000000
vt 0.000000 1.000000
vt 0.000000 0.500000
vt 0.500000 0.000000
vt 0.500000 0.500000
vt 1.000000 0.000000
vt 1.000000 0.500000
vt 0.500000 1.000000
vt 0.000000 1.000000
vt 0.000000 0.500000
vt 0.500000 0.000000
vt 0.500000 0.500000
vt 1.000000 0.000000
vt 1.000000 0.500000
vt 0.500000 1.000000
vt 0.000000 1.000000
vt 0.000000 0.500000
vt 0.500000 0.000000
vt 0.500000 0.500000
vt 1.000000 0.000000
vt 1.000000 0.500000
vt 0.500000 1.000000
vt 0.000000 1.000000
vt 0.000000 0.500000
vt 0.500000 0.000000
vt 0.500000 0.500000
vt 1.000000 0.000000
vt 1.000000 0.500000
vt 0.500000 1.000000
vt 0.000000 1.000000
vt 0.000000 0.500000
vt 0.500000 0.000000
vt 0.500000 0.500000
vt 1.000000 0.000000
vt 1.000000 0.500000
vt 0.500000 1.000000
vt 0.000000 1.000000
vt 0.000000 0.500000
vt 0.500000 0.000000
vt 0.500000 0.500000
vt 1.000000 0.000000
vt 1.000000 0.500000
vt 0.500000 1.000000
vt 0.000000 1.000000
vt 0.000000 0.500000
vt 0.500000 0.000000
vt 0.500000 0.500000
vt 1.000000 0.000000
vt 1.000000 0.500000
vt 0.500000 1.000000
vt 0.000000 1.000000
vt 0.000000 0.500000
vt 0.500000 0.000000
vt 0.500000 0.500000
vt 1.000000 0.000000
vt 1.000000 0.500000
vt 0.500000 1.000000
vt 0.000000 1.000000
vt 0.000000 0.500000
vt 0.500000 0.000000
vt 0.500000 0.500000
vt 1.000000 0.000000
vt 1.000000 0.500000
vt 0.500000 1.000000
vt 0.000000 1.000000
vt 0.000000 0.500000
vt 0.500000 0.000000
vt 0.500000 0.500000
vt 1.000000 0.000000
vt 1.000000 0.500000
vt 0.500000 1.000000
vt 0.000000 1.000000
vt 0.000000 0.000000
vt 1.000000 1.000000
vt 0.000000 0.000000
vt 1.000000 1.000000
vt 0.000000 0.000000
vt 1.000000 1.000000
vt 0.000000 0.000000
vt 1.000000 1.000000
vt 0.000000 0.000000
vt 1.000000 1.000000
vt 0.000000 0.000000
vt 1.000000 1.000000
vt 0.000000 0.000000
vt 1.000000 1.000000
vt 0.000000 0.000000
vt 1.000000 1.000000
vt 0.000000 0.000000
vt 1.000000 1.000000
vt 0.000000 0.000000
vt 1.000000 1.000000
vt 0.000000 0.000000
vt 1.000000 1.000000
vt 0.000000 0.000000
vt 1.000000 1.000000
vt 0.000000 0.000000
vt 1.000000 1.000000
vt 0.000000 0.000000
vt 1.000000 1.000000
vt 0.000000 0.000000
vt 1.000000 1.000000
vt 0.000000 0.000000
vt 1.000000 1.000000
vt 0.000000 0.000000
vt 1.000000 1.000000
vt 0.000000 0.000000
vt 1.000000 1.000000
vt 0.000000 0.000000
vt 1.000000 1.000000
vn -0.0000 -0.0000 1.0000
usemtl Material.002
s 1
f 58/1/1 85/2/1 1/3/1
f 1/3/1 97/4/1 52/5/1
f 52/5/1 24/6/1 1/3/1
f 1/3/1 99/7/1 58/1/1
f 89/8/1 36/9/1 2/10/1
f 2/10/1 101/11/1 83/12/1
f 83/12/1 57/13/1 2/10/1
f 2/10/1 103/14/1 89/8/1
f 40/15/1 68/16/1 3/17/1
f 3/17/1 105/18/1 34/19/1
f 34/19/1 79/20/1 3/17/1
f 3/17/1 107/21/1 40/15/1
f 82/22/1 31/23/1 4/24/1
f 4/24/1 109/25/1 76/26/1
f 76/26/1 49/27/1 4/24/1
f 4/24/1 111/28/1 82/22/1
f 22/29/1 47/30/1 5/31/1
f 5/31/1 113/32/1 93/33/1
f 93/33/1 61/34/1 5/31/1
f 5/31/1 115/35/1 22/29/1
f 50/36/1 75/37/1 6/38/1
f 6/38/1 117/39/1 44/40/1
f 44/40/1 21/41/1 6/38/1
f 6/38/1 119/42/1 50/36/1
f 28/43/1 54/44/1 7/45/1
f 7/45/1 121/46/1 23/47/1
f 23/47/1 69/48/1 7/45/1
f 7/45/1 123/49/1 28/43/1
f 71/50/1 94/51/1 8/52/1
f 8/52/1 125/53/1 66/54/1
f 66/54/1 39/55/1 8/52/1
f 8/52/1 127/56/1 71/50/1
f 81/57/1 30/58/1 9/59/1
f 9/59/1 129/60/1 55/61/1
f 55/61/1 45/62/1 9/59/1
f 9/59/1 131/63/1 81/57/1
f 35/64/1 59/65/1 10/66/1
f 10/66/1 133/67/1 86/68/1
f 86/68/1 78/69/1 10/66/1
f 10/66/1 135/70/1 35/64/1
f 65/71/1 88/72/1 11/73/1
f 11/73/1 137/74/1 37/75/1
f 37/75/1 27/76/1 11/73/1
f 11/73/1 139/77/1 65/71/1
f 29/78/1 53/79/1 12/80/1
f 12/80/1 141/81/1 77/82/1
f 77/82/1 74/83/1 12/80/1
f 12/80/1 143/84/1 29/78/1
f 95/85/1 41/86/1 13/87/1
f 13/87/1 145/88/1 70/89/1
f 70/89/1 56/90/1 13/87/1
f 13/87/1 147/91/1 95/85/1
f 46/92/1 72/93/1 14/94/1
f 14/94/1 149/95/1 20/96/1
f 20/96/1 92/97/1 14/94/1
f 14/94/1 151/98/1 46/92/1
f 25/99/1 48/100/1 15/101/1
f 15/101/1 153/102/1 73/103/1
f 73/103/1 64/104/1 15/101/1
f 15/101/1 155/105/1 25/99/1
f 67/106/1 90/107/1 16/108/1
f 16/108/1 157/109/1 38/110/1
f 38/110/1 33/111/1 16/108/1
f 16/108/1 159/112/1 67/106/1
f 63/113/1 51/114/1 17/115/1
f 17/115/1 161/116/1 62/117/1
f 62/117/1 26/118/1 17/115/1
f 17/115/1 163/119/1 63/113/1
f 91/120/1 80/121/1 18/122/1
f 18/122/1 165/123/1 87/124/1
f 87/124/1 60/125/1 18/122/1
f 18/122/1 167/126/1 91/120/1
f 43/127/1 32/128/1 19/129/1
f 19/129/1 169/130/1 42/131/1
f 42/131/1 84/132/1 19/129/1
f 19/129/1 171/133/1 43/127/1
f 58/1/1 96/134/1 85/2/1
f 1/3/1 85/2/1 97/4/1
f 52/5/1 98/135/1 24/6/1
f 1/3/1 24/6/1 99/7/1
f 89/8/1 100/136/1 36/9/1
f 2/10/1 36/9/1 101/11/1
f 83/12/1 102/137/1 57/13/1
f 2/10/1 57/13/1 103/14/1
f 40/15/1 104/138/1 68/16/1
f 3/17/1 68/16/1 105/18/1
f 34/19/1 106/139/1 79/20/1
f 3/17/1 79/20/1 107/21/1
f 82/22/1 108/140/1 31/23/1
f 4/24/1 31/23/1 109/25/1
f 76/26/1 110/141/1 49/27/1
f 4/24/1 49/27/1 111/28/1
f 22/29/1 112/142/1 47/30/1
f 5/31/1 47/30/1 113/32/1
f 93/33/1 114/143/1 61/34/1
f 5/31/1 61/34/1 115/35/1
f 50/36/1 116/144/1 75/37/1
f 6/38/1 75/37/1 117/39/1
f 44/40/1 118/145/1 21/41/1
f 6/38/1 21/41/1 119/42/1
f 28/43/1 120/146/1 54/44/1
f 7/45/1 54/44/1 121/46/1
f 23/47/1 122/147/1 69/48/1
f 7/45/1 69/48/1 123/49/1
f 71/50/1 124/148/1 94/51/1
f 8/52/1 94/51/1 125/53/1
f 66/54/1 126/149/1 39/55/1
f 8/52/1 39/55/1 127/56/1
f 81/57/1 128/150/1 30/58/1
f 9/59/1 30/58/1 129/60/1
f 55/61/1 130/151/1 45/62/1
f 9/59/1 45/62/1 131/63/1
f 35/64/1 132/152/1 59/65/1
f 10/66/1 59/65/1 133/67/1
f 86/68/1 134/153/1 78/69/1
f 10/66/1 78/69/1 135/70/1
f 65/71/1 136/154/1 88/72/1
f 11/73/1 88/72/1 137/74/1
f 37/75/1 138/155/1 27/76/1
f 11/73/1 27/76/1 139/77/1
f 29/78/1 140/156/1 53/79/1
f 12/80/1 53/79/1 141/81/1
f 77/82/1 142/157/1 74/83/1
f 12/80/1 74/83/1 143/84/1
f 95/85/1 144/158/1 41/86/1
f 13/87/1 41/86/1 145/88/1
f 70/89/1 146/159/1 56/90/1
f 13/87/1 56/90/1 147/91/1
f 46/92/1 148/160/1 72/93/1
f 14/94/1 72/93/1 149/95/1
f 20/96/1 150/161/1 92/97/1
f 14/94/1 92/97/1 151/98/1
f 25/99/1 152/162/1 48/100/1
f 15/101/1 48/100/1 153/102/1
f 73/103/1 154/163/1 64/104/1
f 15/101/1 64/104/1 155/105/1
f 67/106/1 156/164/1 90/107/1
f 16/108/1 90/107/1 157/109/1
f 38/110/1 158/165/1 33/111/1
f 16/108/1 33/111/1 159/112/1
f 63/113/1 160/166/1 51/114/1
f 17/115/1 51/114/1 161/116/1
f 62/117/1 162/167/1 26/118/1
f 17/115/1 26/118/1 163/119/1
f 91/120/1 164/168/1 80/121/1
f 18/122/1 80/121/1 165/123/1
f 87/124/1 166/169/1 60/125/1
f 18/122/1 60/125/1 167/126/1
f 43/127/1 168/170/1 32/128/1
f 19/129/1 32/128/1 169/130/1
f 42/131/1 170/171/1 84/132/1
f 19/129/1 84/132/1 171/133/1
o sites_Plane
v 4.596278 -58.875023 -3.182648
v 4.598423 -58.868946 1.334028
v 1.108868 -68.768173 -0.930369
v -13.037910 -63.781334 -0.930369
v -9.548355 -53.882099 1.334025
v -9.550500 -53.888184 -3.182648
v 1.108868 -68.768173 1.326928
v 15.255645 -73.755013 -0.930369
v 18.745201 -63.855785 1.334031
v 8.083687 -48.981880 -3.177630
v 8.087977 -48.969711 1.341128
v 18.743055 -63.861874 -3.182648
v 1.108868 -68.768173 -3.187666
v -13.037910 -63.781334 -3.187666
v -6.063090 -43.995029 -3.177629
v 22.230465 -53.968723 -3.177630
v 15.255645 -73.755013 -3.187667
v -6.058800 -43.982864 1.341121
v -13.037910 -63.781334 1.326929
v 15.255645 -73.755013 1.326928
v 22.234755 -53.956562 1.341135
vt 0.432362 0.500727
vt 0.225898 0.974450
vt 0.225170 0.500661
vt 0.017978 0.500594
vt 0.224443 0.026871
vt 0.431533 0.027005
vt 0.779474 0.501963
vt 0.980502 0.976323
vt 0.780201 0.976323
vt 0.579072 0.501664
vt 0.578242 0.027005
vt 0.778747 0.027603
vt 0.979877 0.502262
vt 0.506546 0.975386
vt 0.505717 0.501195
vt 0.504888 0.027005
vt 0.433192 0.974450
vt 0.018603 0.974450
vt 0.017353 0.026738
vt 0.579901 0.976322
vt 0.979252 0.028201
vn 0.0002 0.0005 -1.0000
vn -0.0002 -0.0006 1.0000
vn -0.3325 -0.9431 0.0000
usemtl Material.001
s 1
f 184/172/2 177/173/2 172/174/2
f 177/173/2 181/175/2 172/174/2
f 181/175/2 183/176/2 172/174/2
f 172/174/2 188/177/2 184/172/2
f 173/178/3 189/179/3 176/180/3
f 176/180/3 178/181/3 173/178/3
f 173/178/3 191/182/3 180/183/3
f 180/183/3 182/184/3 173/178/3
f 178/181/4 175/185/4 174/186/4
f 175/185/4 184/172/4 174/186/4
f 184/172/4 179/187/4 174/186/4
f 179/187/4 178/181/4 174/186/4
f 184/172/2 185/188/2 177/173/2
f 177/173/2 186/189/2 181/175/2
f 181/175/2 187/190/2 183/176/2
f 172/174/2 183/176/2 188/177/2
f 173/178/3 182/184/3 189/179/3
f 176/180/3 190/191/3 178/181/3
f 173/178/3 178/181/3 191/182/3
f 180/183/3 192/192/3 182/184/3
f 178/181/4 190/191/4 175/185/4
f 175/185/4 185/188/4 184/172/4
f 184/172/4 188/177/4 179/187/4
f 179/187/4 191/182/4 178/181/4
