# Blender v2.79 (sub 0) OBJ File: 'Chess Scene.blend'
# www.blender.org
mtllib ChessRook.mtl
o LPRook.003_Cylinder.015
v 0.328845 0.467978 3.892839
v 0.099598 -0.085472 3.892839
v -0.453852 -0.314718 3.892839
v -1.007302 -0.085472 3.892839
v -1.236549 0.467979 3.892839
v -1.007302 1.021429 3.892839
v -0.453851 1.250675 3.892839
v 0.099599 1.021428 3.892839
v 0.868978 0.467978 1.067399
v 0.481530 -0.467404 1.067399
v -0.453852 -0.854852 1.067399
v -1.389235 -0.467404 1.067399
v -1.776682 0.467979 1.067399
v -1.389234 1.403361 1.067399
v -0.453851 1.790809 1.067399
v 0.481532 1.403359 1.067399
v 0.890025 0.467978 0.386977
v 1.046148 0.467978 0.006865
v 0.606808 -0.592682 0.006865
v 0.496412 -0.482286 0.386977
v -0.453852 -1.032022 0.006865
v -0.453852 -0.875899 0.386977
v -1.514513 -0.592681 0.006865
v -1.404117 -0.482286 0.386977
v -1.953852 0.467979 0.006865
v -1.797729 0.467979 0.386977
v -1.514512 1.528640 0.006865
v -1.404116 1.418244 0.386977
v -0.453850 1.967978 0.006865
v -0.453851 1.811856 0.386977
v 0.606810 1.528637 0.006865
v 0.496414 1.418242 0.386977
v 0.690149 0.467978 0.468687
v 0.355078 -0.340952 0.468687
v -0.453852 -0.676022 0.468687
v -1.262783 -0.340952 0.468687
v -1.597853 0.467979 0.468687
v -1.262782 1.276910 0.468687
v -0.453851 1.611979 0.468687
v 0.355080 1.276908 0.468687
v 0.965242 0.467978 0.889991
v 0.549598 -0.535473 0.889991
v -0.453852 -0.951115 0.889991
v -1.457303 -0.535472 0.889991
v -1.872946 0.467979 0.889991
v -1.457302 1.471430 0.889991
v -0.453850 1.887072 0.889991
v 0.549600 1.471428 0.889991
v 0.512103 0.467978 1.655462
v 0.229181 -0.215055 1.655462
v -0.453852 -0.497977 1.655462
v -1.136885 -0.215055 1.655462
v -1.419807 0.467979 1.655462
v -1.136885 1.151012 1.655462
v -0.453851 1.433933 1.655462
v 0.229182 1.151011 1.655462
v -1.223148 -0.301317 4.051897
v -0.453852 -0.619970 4.051897
v -1.541800 0.467979 4.051897
v 0.315444 -0.301318 4.051897
v 0.634096 0.467978 4.051897
v -1.223147 1.237275 4.051897
v -0.453851 1.555927 4.051897
v 0.315445 1.237273 4.051897
v -1.008845 -0.087015 4.396520
v -0.453852 -0.316900 4.396520
v -1.238731 0.467979 4.396520
v 0.101141 -0.087015 4.396520
v 0.331027 0.467978 4.396520
v -1.008845 1.022972 4.396520
v -0.453851 1.252857 4.396520
v 0.101142 1.022971 4.396520
v -1.223148 -0.301317 4.396520
v -0.453852 -0.619970 4.396520
v -1.541800 0.467979 4.396520
v 0.315444 -0.301318 4.396520
v 0.634096 0.467978 4.396520
v -1.223147 1.237275 4.396520
v -0.453851 1.555927 4.396520
v 0.315445 1.237273 4.396520
v -1.223148 -0.301317 4.626520
v -0.453852 -0.619970 4.626520
v 0.315444 -0.301318 4.626520
v 0.634096 0.467978 4.626520
v -1.223147 1.237275 4.626520
v -1.541800 0.467979 4.626520
v 0.315445 1.237273 4.626520
v -0.453851 1.555927 4.626520
v -1.008845 -0.087015 4.626520
v -0.453852 -0.316900 4.626520
v 0.101141 -0.087015 4.626520
v 0.331027 0.467978 4.626520
v -1.008845 1.022972 4.626520
v -1.238731 0.467979 4.626520
v 0.101142 1.022971 4.626520
v -0.453851 1.252857 4.626520
v -1.008845 -0.087015 4.226520
v -0.453852 -0.316900 4.226520
v -1.238731 0.467979 4.226520
v 0.101141 -0.087015 4.226520
v 0.331027 0.467978 4.226520
v -1.008845 1.022972 4.226520
v -0.453851 1.252857 4.226520
v 0.101142 1.022971 4.226520
vn 0.6142 -0.6142 0.4955
vn 0.0000 -0.9452 0.3263
vn 0.0000 -0.8686 0.4955
vn 0.0000 0.9452 0.3263
vn 0.6142 0.6142 0.4955
vn 0.0000 0.8686 0.4955
vn -0.6684 0.6684 0.3263
vn -0.6142 0.6142 0.4955
vn 0.8686 0.0000 0.4955
vn 0.6684 -0.6684 0.3263
vn 0.6684 0.6684 0.3263
vn -0.5292 0.5292 0.6632
vn 0.0000 0.8775 -0.4795
vn -0.6205 0.6205 -0.4795
vn 0.6571 0.6571 0.3693
vn 0.7484 0.0000 0.6632
vn 0.5292 0.5292 0.6632
vn 0.6571 -0.6571 0.3693
vn 0.5292 -0.5292 0.6632
vn -0.9452 0.0000 0.3263
vn -0.8686 0.0000 0.4955
vn 0.0000 -0.9993 -0.0363
vn 0.7066 -0.7066 -0.0363
vn 0.9993 0.0000 -0.0363
vn -0.6142 -0.6142 0.4955
vn -0.7066 -0.7066 -0.0363
vn -0.7484 0.0000 0.6632
vn -0.8775 0.0000 -0.4795
vn -0.6571 0.6571 0.3693
vn 0.0000 0.7484 0.6632
vn 0.0000 0.9293 0.3693
vn 0.7066 0.7066 -0.0363
vn -0.9993 0.0000 -0.0363
vn -0.7066 0.7066 -0.0363
vn 0.0000 0.9993 -0.0363
vn -0.5292 -0.5292 0.6632
vn -0.6205 -0.6205 -0.4795
vn -0.9293 0.0000 0.3693
vn 0.0000 -0.8775 -0.4795
vn 0.6205 -0.6205 -0.4795
vn -0.6571 -0.6571 0.3693
vn 0.0000 -0.9293 0.3693
vn 0.9293 0.0000 0.3693
vn 0.8775 0.0000 -0.4795
vn 0.6205 0.6205 -0.4795
vn 0.8345 0.0000 -0.5510
vn 0.9452 0.0000 0.3263
vn 0.5901 0.5901 -0.5510
vn -0.5901 -0.5901 -0.5510
vn -0.6684 -0.6684 0.3263
vn 0.5901 -0.5901 -0.5510
vn 0.8830 0.0000 -0.4693
vn 0.0000 0.8345 -0.5510
vn -0.5901 0.5901 -0.5510
vn -0.8345 0.0000 -0.5510
vn 0.0000 -0.7484 0.6632
vn 0.6244 0.6244 -0.4693
vn 0.9437 0.2102 0.2553
vn 0.0000 0.8830 -0.4693
vn 0.0000 -0.8345 -0.5510
vn 0.6244 -0.6244 -0.4693
vn 0.0000 -0.8830 -0.4693
vn -0.8830 0.0000 -0.4693
vn -0.6244 0.6244 -0.4693
vn -0.6244 -0.6244 -0.4693
vn -0.4140 -0.8298 0.3742
vn -0.5490 -0.5490 0.6302
vn -0.2940 -0.8795 0.3742
vn -0.2102 0.9437 0.2553
vn 0.5187 -0.8159 0.2553
vn -0.9437 -0.2102 0.2553
vn 0.8159 0.5187 0.2553
vn -0.5187 0.8159 0.2553
vn 0.2102 -0.9437 0.2553
vn -0.8159 -0.5187 0.2553
vn -0.4605 0.6891 0.5594
vn 0.8298 -0.4140 0.3742
vn 0.2940 0.8795 0.3742
vn -0.8795 0.2940 0.3742
vn -0.8129 -0.1617 0.5594
vn -0.6646 -0.4441 0.6008
vn 0.8795 -0.2940 0.3742
vn 0.7840 0.1559 0.6008
vn -0.1559 0.7840 0.6008
vn 0.4605 -0.6891 0.5594
vn 0.6646 0.4441 0.6008
vn -0.7840 -0.1559 0.6008
vn 0.6891 0.4605 0.5594
vn -0.4441 0.6646 0.6008
vn -0.6891 -0.4605 0.5594
vn 0.4441 -0.6646 0.6008
vn 0.8129 0.1617 0.5594
vn 0.4140 0.8298 0.3742
vn 0.1559 -0.7840 0.6008
vn 0.1617 -0.8129 0.5594
vn -0.1617 0.8129 0.5594
vn -0.8298 0.4140 0.3742
vn -0.7764 0.0000 0.6302
vn 0.0000 -0.7764 0.6302
vn 0.7764 0.0000 0.6302
vn 0.5490 -0.5490 0.6302
vn 0.0000 0.7764 0.6302
vn 0.5490 0.5490 0.6302
vn -0.5490 0.5490 0.6302
usemtl Black_Pieces
s 1
f 10//1 51//2 11//3
f 55//4 16//5 15//6
f 54//7 15//6 14//8
f 9//9 50//10 10//1
f 56//11 9//9 16//5
f 28//12 29//13 27//14
f 40//15 17//16 32//17
f 17//16 34//18 20//19
f 53//20 14//8 13//21
f 10//1 43//22 42//23
f 9//9 42//23 41//24
f 12//25 53//20 13//21
f 43//22 12//25 44//26
f 26//27 27//14 25//28
f 38//29 30//30 28//12
f 39//31 32//17 30//30
f 16//5 41//24 48//32
f 45//33 14//8 46//34
f 44//26 13//21 45//33
f 15//6 48//32 47//35
f 46//34 15//6 47//35
f 24//36 25//28 23//37
f 24//36 37//38 26//27
f 26//27 38//29 28//12
f 20//19 21//39 19//40
f 43//22 36//41 35//42
f 48//32 33//43 40//15
f 21//39 24//36 23//37
f 42//23 35//42 34//18
f 33//43 42//23 34//18
f 17//16 19//40 18//44
f 38//29 47//35 39//31
f 39//31 48//32 40//15
f 31//45 19//40 23//37
f 1//46 50//10 49//47
f 8//48 49//47 56//11
f 51//2 4//49 52//50
f 2//51 51//2 50//10
f 32//17 18//44 31//45
f 44//26 37//38 36//41
f 45//33 38//29 37//38
f 8//48 61//52 1//46
f 7//53 56//11 55//4
f 4//49 53//20 52//50
f 11//3 52//50 12//25
f 6//54 55//4 54//7
f 5//55 54//7 53//20
f 30//30 31//45 29//13
f 20//19 35//42 22//56
f 22//56 36//41 24//36
f 64//57 77//58 61//52
f 6//54 63//59 7//53
f 7//53 64//57 8//48
f 3//60 60//61 58//62
f 6//54 59//63 62//64
f 2//51 61//52 60//61
f 5//55 57//65 59//63
f 4//49 58//62 57//65
f 71//66 104//67 72//68
f 62//64 79//69 63//59
f 61//52 76//70 60//61
f 57//65 75//71 59//63
f 63//59 80//72 64//57
f 59//63 78//73 62//64
f 60//61 74//74 58//62
f 58//62 73//75 57//65
f 71//66 88//76 79//69
f 67//77 73//75 65//78
f 68//79 74//74 76//70
f 74//74 81//80 73//75
f 72//68 96//81 71//66
f 70//82 79//69 78//73
f 78//73 93//83 70//82
f 72//68 77//58 80//72
f 89//84 82//85 90//86
f 91//87 84//88 92//89
f 93//83 86//90 94//91
f 96//81 87//92 88//76
f 65//78 90//86 66//93
f 80//72 95//94 72//68
f 66//93 82//85 74//74
f 73//75 89//84 65//78
f 77//58 83//95 76//70
f 67//77 86//90 75//71
f 75//71 85//96 78//73
f 68//79 92//89 69//97
f 76//70 91//87 68//79
f 70//82 94//91 67//77
f 69//97 84//88 77//58
f 79//69 87//92 80//72
f 101//98 103//99 99//100
f 67//77 102//101 70//82
f 68//79 98//102 66//93
f 66//93 97//103 65//78
f 72//68 101//98 69//97
f 70//82 103//99 71//66
f 69//97 100//104 68//79
f 65//78 99//100 67//77
f 10//1 50//10 51//2
f 55//4 56//11 16//5
f 54//7 55//4 15//6
f 9//9 49//47 50//10
f 56//11 49//47 9//9
f 28//12 30//30 29//13
f 40//15 33//43 17//16
f 17//16 33//43 34//18
f 53//20 54//7 14//8
f 10//1 11//3 43//22
f 9//9 10//1 42//23
f 12//25 52//50 53//20
f 43//22 11//3 12//25
f 26//27 28//12 27//14
f 38//29 39//31 30//30
f 39//31 40//15 32//17
f 16//5 9//9 41//24
f 45//33 13//21 14//8
f 44//26 12//25 13//21
f 15//6 16//5 48//32
f 46//34 14//8 15//6
f 24//36 26//27 25//28
f 24//36 36//41 37//38
f 26//27 37//38 38//29
f 20//19 22//56 21//39
f 43//22 44//26 36//41
f 48//32 41//24 33//43
f 21//39 22//56 24//36
f 42//23 43//22 35//42
f 33//43 41//24 42//23
f 17//16 20//19 19//40
f 38//29 46//34 47//35
f 39//31 47//35 48//32
f 23//37 25//28 27//14
f 27//14 29//13 23//37
f 31//45 18//44 19//40
f 19//40 21//39 23//37
f 23//37 29//13 31//45
f 1//46 2//51 50//10
f 8//48 1//46 49//47
f 51//2 3//60 4//49
f 2//51 3//60 51//2
f 32//17 17//16 18//44
f 44//26 45//33 37//38
f 45//33 46//34 38//29
f 8//48 64//57 61//52
f 7//53 8//48 56//11
f 4//49 5//55 53//20
f 11//3 51//2 52//50
f 6//54 7//53 55//4
f 5//55 6//54 54//7
f 30//30 32//17 31//45
f 20//19 34//18 35//42
f 22//56 35//42 36//41
f 64//57 80//72 77//58
f 6//54 62//64 63//59
f 7//53 63//59 64//57
f 3//60 2//51 60//61
f 6//54 5//55 59//63
f 2//51 1//46 61//52
f 5//55 4//49 57//65
f 4//49 3//60 58//62
f 71//66 103//99 104//67
f 62//64 78//73 79//69
f 61//52 77//58 76//70
f 57//65 73//75 75//71
f 63//59 79//69 80//72
f 59//63 75//71 78//73
f 60//61 76//70 74//74
f 58//62 74//74 73//75
f 71//66 96//81 88//76
f 67//77 75//71 73//75
f 68//79 66//93 74//74
f 74//74 82//85 81//80
f 72//68 95//94 96//81
f 70//82 71//66 79//69
f 78//73 85//96 93//83
f 72//68 69//97 77//58
f 89//84 81//80 82//85
f 91//87 83//95 84//88
f 93//83 85//96 86//90
f 96//81 95//94 87//92
f 65//78 89//84 90//86
f 80//72 87//92 95//94
f 66//93 90//86 82//85
f 73//75 81//80 89//84
f 77//58 84//88 83//95
f 67//77 94//91 86//90
f 75//71 86//90 85//96
f 68//79 91//87 92//89
f 76//70 83//95 91//87
f 70//82 93//83 94//91
f 69//97 92//89 84//88
f 79//69 88//76 87//92
f 99//100 97//103 101//98
f 98//102 100//104 101//98
f 101//98 104//67 103//99
f 103//99 102//101 99//100
f 97//103 98//102 101//98
f 67//77 99//100 102//101
f 68//79 100//104 98//102
f 66//93 98//102 97//103
f 72//68 104//67 101//98
f 70//82 102//101 103//99
f 69//97 101//98 100//104
f 65//78 97//103 99//100
