# Blender v2.79 (sub 0) OBJ File: 'Chess Scene.blend'
# www.blender.org
mtllib ChessBoardBase1.mtl
o Chessboard_Surround_Plane
v -24.000000 0.000000 -0.500000
v 0.000000 0.000000 -1.000000
v 0.000000 31.199997 -2.250000
v -31.199999 0.000000 -2.250000
v 0.000000 -31.199997 -2.250000
v 31.199999 0.000000 -2.250000
v 0.000000 23.999998 -0.500000
v 0.000000 -23.999998 -0.500000
v 24.000000 0.000000 -0.500000
v -0.000000 26.849997 0.000000
v 26.849998 0.000000 0.000000
v 0.000000 -26.849997 0.000000
v 0.000000 0.000000 -3.000000
v -30.836769 0.000000 -1.383061
v -30.203709 0.000000 -0.996290
v -29.816936 0.000000 -0.363229
v 0.000000 -30.836767 -1.383061
v 0.000000 -30.203707 -0.996290
v 0.000000 -29.816935 -0.363229
v 30.836769 0.000000 -1.383061
v 30.203709 0.000000 -0.996290
v 29.816936 0.000000 -0.363229
v 0.000000 30.836767 -1.383061
v 0.000000 30.203707 -0.996290
v 0.000000 29.816935 -0.363229
v -26.849998 -0.000000 0.000000
v -24.000000 0.000000 0.000000
v 0.000000 -23.999998 0.000000
v 24.000000 0.000000 0.000000
v 0.000000 23.999998 0.000000
v -24.000000 0.000000 -1.000000
v 0.000000 -23.999998 -1.000000
v 24.000000 0.000000 -1.000000
v 0.000000 23.999998 -1.000000
v -24.000000 23.999998 -0.500000
v -24.000000 -23.999998 -0.500000
v 24.000000 23.999998 -0.500000
v 24.000000 -23.999998 -0.500000
v -31.199999 0.000000 -3.000000
v 0.000000 -31.199997 -3.000000
v 31.199999 0.000000 -3.000000
v 0.000000 31.199997 -3.000000
v -30.836769 30.836767 -1.383061
v -31.199999 0.000000 -1.500000
v -30.836769 -30.836767 -1.383061
v -30.473541 0.000000 -1.266122
v -30.203709 30.203707 -0.996290
v -30.203709 -30.203707 -0.996290
v -29.933876 0.000000 -0.726459
v -29.816936 29.816935 -0.363229
v -29.816936 -29.816935 -0.363229
v -29.699999 0.000000 0.000000
v 0.000000 -31.199997 -1.500000
v 30.836769 -30.836767 -1.383061
v 0.000000 -30.473539 -1.266122
v 30.203709 -30.203707 -0.996290
v 0.000000 -29.933874 -0.726459
v 29.816936 -29.816935 -0.363229
v 0.000000 -29.699997 0.000000
v 31.199999 0.000000 -1.500000
v 30.836769 30.836767 -1.383061
v 30.473541 0.000000 -1.266122
v 30.203709 30.203707 -0.996290
v 29.933876 0.000000 -0.726459
v 29.816936 29.816935 -0.363229
v 29.699999 0.000000 0.000000
v 0.000000 31.199997 -1.500000
v 0.000000 30.473539 -1.266122
v 0.000000 29.933874 -0.726459
v 0.000000 29.699997 0.000000
v -26.849998 26.849997 0.000000
v -26.849998 -26.849997 0.000000
v 31.199999 31.199997 -2.250000
v -31.199999 31.199997 -2.250000
v 26.849998 26.849997 0.000000
v -31.199999 -31.199997 -2.250000
v 26.849998 -26.849997 0.000000
v 31.199999 -31.199997 -2.250000
v -24.000000 -23.999998 0.000000
v 24.000000 -23.999998 0.000000
v -24.000000 23.999998 0.000000
v 24.000000 23.999998 0.000000
v -24.000000 23.999998 -1.000000
v -24.000000 -23.999998 -1.000000
v 24.000000 -23.999998 -1.000000
v 24.000000 23.999998 -1.000000
v -31.199999 31.199997 -3.000000
v -31.199999 -31.199997 -3.000000
v 31.199999 -31.199997 -3.000000
v 31.199999 31.199997 -3.000000
v -29.699999 29.699997 0.000000
v -31.199999 31.199997 -1.500000
v -29.933876 29.933874 -0.726459
v -30.473541 30.473539 -1.266122
v -31.199999 -31.199997 -1.500000
v -29.699999 -29.699997 0.000000
v -30.473541 -30.473539 -1.266122
v -29.933876 -29.933874 -0.726459
v 31.199999 -31.199997 -1.500000
v 29.699999 -29.699997 0.000000
v 30.473541 -30.473539 -1.266122
v 29.933876 -29.933874 -0.726459
v 31.199999 31.199997 -1.500000
v 29.699999 29.699997 0.000000
v 30.473541 30.473539 -1.266122
v 29.933876 29.933874 -0.726459
vn 0.7071 0.0000 0.7071
vn 0.7071 0.7071 0.0000
vn 1.0000 0.0000 0.0000
vn 0.7071 -0.7071 0.0000
vn 0.0000 0.7071 0.7071
vn 0.0000 0.0000 1.0000
vn -0.7071 0.0000 0.7071
vn 0.0000 -0.7071 0.7071
vn 0.0000 0.8082 0.5889
vn 0.0000 1.0000 0.0000
vn 0.0000 0.7071 -0.7071
vn -0.7071 0.7071 0.0000
vn -0.8082 0.0000 0.5889
vn -1.0000 0.0000 0.0000
vn -0.7071 0.0000 -0.7071
vn -0.7071 -0.7071 0.0000
vn 0.0000 -0.8082 0.5889
vn 0.0000 -1.0000 0.0000
vn 0.0000 -0.7071 -0.7071
vn 0.8082 0.0000 0.5889
vn 0.7071 0.0000 -0.7071
vn -0.3015 -0.3015 0.9045
vn 0.0000 0.5889 0.8082
vn 0.3015 -0.3015 0.9045
vn -0.3015 0.3015 0.9045
vn 0.5889 0.0000 0.8082
vn 0.3015 0.3015 0.9045
vn 0.0000 -0.5889 0.8082
vn 0.0000 0.0000 -1.0000
vn -0.1569 0.1569 0.9750
vn -0.3064 0.0000 0.9519
vn -0.1569 -0.1569 0.9750
vn -0.2273 -0.2273 0.9469
vn -0.5213 0.0000 0.8533
vn -0.2273 0.2273 0.9469
vn -0.4082 0.4082 0.8165
vn -0.4082 -0.4082 0.8165
vn -0.5018 -0.5018 0.7045
vn -0.8533 0.0000 0.5213
vn -0.5018 0.5018 0.7045
vn -0.6435 0.6435 0.4143
vn -0.9519 0.0000 0.3064
vn -0.6435 -0.6435 0.4143
vn -0.4804 -0.4804 0.7337
vn -0.5889 0.0000 0.8082
vn -0.4804 0.4804 0.7337
vn 0.0000 -0.3064 0.9519
vn 0.1569 -0.1569 0.9750
vn 0.2273 -0.2273 0.9469
vn 0.0000 -0.5213 0.8533
vn 0.4082 -0.4082 0.8165
vn 0.5018 -0.5018 0.7045
vn 0.0000 -0.8533 0.5213
vn 0.0000 -0.9519 0.3064
vn 0.6435 -0.6435 0.4143
vn 0.4804 -0.4804 0.7337
vn 0.3064 0.0000 0.9519
vn 0.1569 0.1569 0.9750
vn 0.2273 0.2273 0.9469
vn 0.5213 0.0000 0.8533
vn 0.4082 0.4082 0.8165
vn 0.5018 0.5018 0.7045
vn 0.8533 0.0000 0.5213
vn 0.9519 0.0000 0.3064
vn 0.6435 0.6435 0.4143
vn 0.4804 0.4804 0.7337
vn 0.0000 0.3064 0.9519
vn 0.0000 0.5213 0.8533
vn 0.0000 0.8533 0.5213
vn 0.0000 0.9519 0.3064
vn 0.5773 0.5773 0.5773
vn 0.5773 -0.5773 0.5773
vn -0.5773 0.5773 0.5773
vn -0.5773 -0.5773 0.5773
vn 0.6065 0.6065 0.5141
vn 0.5773 0.5773 -0.5773
vn -0.5773 0.5773 -0.5773
vn -0.6065 0.6065 0.5141
vn -0.5773 -0.5773 -0.5773
vn -0.6065 -0.6065 0.5141
vn 0.5773 -0.5773 -0.5773
vn 0.6065 -0.6065 0.5141
usemtl Chessboard_surround
s 1
f 27//1 36//2 1//3
f 36//2 31//1 1//3
f 31//1 35//4 1//3
f 35//4 27//1 1//3
f 31//1 32//5 2//6
f 32//5 33//7 2//6
f 33//7 34//8 2//6
f 34//8 31//1 2//6
f 67//9 73//2 3//10
f 73//2 42//11 3//10
f 42//11 74//12 3//10
f 74//12 67//9 3//10
f 44//13 74//12 4//14
f 74//12 39//15 4//14
f 39//15 76//16 4//14
f 76//16 44//13 4//14
f 53//17 76//16 5//18
f 76//16 40//19 5//18
f 40//19 78//4 5//18
f 78//4 53//17 5//18
f 60//20 78//4 6//3
f 78//4 41//21 6//3
f 41//21 73//2 6//3
f 73//2 60//20 6//3
f 30//8 35//4 7//18
f 35//4 34//8 7//18
f 34//8 37//16 7//18
f 37//16 30//8 7//18
f 28//5 38//12 8//10
f 38//12 32//5 8//10
f 32//5 36//2 8//10
f 36//2 28//5 8//10
f 29//7 37//16 9//14
f 37//16 33//7 9//14
f 33//7 38//12 9//14
f 38//12 29//7 9//14
f 10//6 82//22 75//6
f 75//6 70//23 10//6
f 70//23 71//6 10//6
f 10//6 81//24 30//8
f 11//6 80//25 77//6
f 77//6 66//26 11//6
f 66//26 75//6 11//6
f 11//6 82//22 29//7
f 12//6 79//27 72//6
f 72//6 59//28 12//6
f 59//28 77//6 12//6
f 12//6 80//25 28//5
f 39//15 42//11 13//29
f 42//11 41//21 13//29
f 41//21 40//19 13//29
f 40//19 39//15 13//29
f 43//30 44//13 14//31
f 44//13 45//32 14//31
f 14//31 97//33 46//34
f 14//31 94//35 43//30
f 47//36 46//34 15//7
f 46//34 48//37 15//7
f 15//7 98//38 49//39
f 15//7 93//40 47//36
f 50//41 49//39 16//42
f 49//39 51//43 16//42
f 16//42 96//44 52//45
f 16//42 91//46 50//41
f 45//32 53//17 17//47
f 53//17 54//48 17//47
f 17//47 101//49 55//50
f 17//47 97//33 45//32
f 48//37 55//50 18//8
f 55//50 56//51 18//8
f 18//8 102//52 57//53
f 18//8 98//38 48//37
f 51//43 57//53 19//54
f 57//53 58//55 19//54
f 19//54 100//56 59//28
f 19//54 96//44 51//43
f 54//48 60//20 20//57
f 60//20 61//58 20//57
f 20//57 105//59 62//60
f 20//57 101//49 54//48
f 56//51 62//60 21//1
f 62//60 63//61 21//1
f 21//1 106//62 64//63
f 21//1 102//52 56//51
f 58//55 64//63 22//64
f 64//63 65//65 22//64
f 22//64 104//66 66//26
f 22//64 100//56 58//55
f 61//58 67//9 23//67
f 67//9 43//30 23//67
f 23//67 94//35 68//68
f 23//67 105//59 61//58
f 63//61 68//68 24//5
f 68//68 47//36 24//5
f 24//5 93//40 69//69
f 24//5 106//62 63//61
f 65//65 69//69 25//70
f 69//69 50//41 25//70
f 25//70 91//46 70//23
f 25//70 104//66 65//65
f 26//6 81//24 71//6
f 71//6 52//45 26//6
f 52//45 72//6 26//6
f 26//6 79//27 27//1
f 27//1 79//27 36//2
f 36//2 84//71 31//1
f 31//1 83//72 35//4
f 35//4 81//24 27//1
f 31//1 84//71 32//5
f 32//5 85//73 33//7
f 33//7 86//74 34//8
f 34//8 83//72 31//1
f 67//9 103//75 73//2
f 73//2 90//76 42//11
f 42//11 87//77 74//12
f 74//12 92//78 67//9
f 44//13 92//78 74//12
f 74//12 87//77 39//15
f 39//15 88//79 76//16
f 76//16 95//80 44//13
f 53//17 95//80 76//16
f 76//16 88//79 40//19
f 40//19 89//81 78//4
f 78//4 99//82 53//17
f 60//20 99//82 78//4
f 78//4 89//81 41//21
f 41//21 90//76 73//2
f 73//2 103//75 60//20
f 30//8 81//24 35//4
f 35//4 83//72 34//8
f 34//8 86//74 37//16
f 37//16 82//22 30//8
f 28//5 80//25 38//12
f 38//12 85//73 32//5
f 32//5 84//71 36//2
f 36//2 79//27 28//5
f 29//7 82//22 37//16
f 37//16 86//74 33//7
f 33//7 85//73 38//12
f 38//12 80//25 29//7
f 10//6 30//8 82//22
f 75//6 104//66 70//23
f 70//23 91//46 71//6
f 10//6 71//6 81//24
f 11//6 29//7 80//25
f 77//6 100//56 66//26
f 66//26 104//66 75//6
f 11//6 75//6 82//22
f 12//6 28//5 79//27
f 72//6 96//44 59//28
f 59//28 100//56 77//6
f 12//6 77//6 80//25
f 39//15 87//77 42//11
f 42//11 90//76 41//21
f 41//21 89//81 40//19
f 40//19 88//79 39//15
f 43//30 92//78 44//13
f 44//13 95//80 45//32
f 14//31 45//32 97//33
f 14//31 46//34 94//35
f 47//36 94//35 46//34
f 46//34 97//33 48//37
f 15//7 48//37 98//38
f 15//7 49//39 93//40
f 50//41 93//40 49//39
f 49//39 98//38 51//43
f 16//42 51//43 96//44
f 16//42 52//45 91//46
f 45//32 95//80 53//17
f 53//17 99//82 54//48
f 17//47 54//48 101//49
f 17//47 55//50 97//33
f 48//37 97//33 55//50
f 55//50 101//49 56//51
f 18//8 56//51 102//52
f 18//8 57//53 98//38
f 51//43 98//38 57//53
f 57//53 102//52 58//55
f 19//54 58//55 100//56
f 19//54 59//28 96//44
f 54//48 99//82 60//20
f 60//20 103//75 61//58
f 20//57 61//58 105//59
f 20//57 62//60 101//49
f 56//51 101//49 62//60
f 62//60 105//59 63//61
f 21//1 63//61 106//62
f 21//1 64//63 102//52
f 58//55 102//52 64//63
f 64//63 106//62 65//65
f 22//64 65//65 104//66
f 22//64 66//26 100//56
f 61//58 103//75 67//9
f 67//9 92//78 43//30
f 23//67 43//30 94//35
f 23//67 68//68 105//59
f 63//61 105//59 68//68
f 68//68 94//35 47//36
f 24//5 47//36 93//40
f 24//5 69//69 106//62
f 65//65 106//62 69//69
f 69//69 93//40 50//41
f 25//70 50//41 91//46
f 25//70 70//23 104//66
f 26//6 27//1 81//24
f 71//6 91//46 52//45
f 52//45 96//44 72//6
f 26//6 72//6 79//27
