# Blender v2.79 (sub 0) OBJ File: 'Chess Scene.blend'
# www.blender.org
mtllib ChessQeen.mtl
o Queen.001_Cylinder.028
v 0.108351 -0.079574 5.705324
v 0.175760 -0.146984 5.654768
v 0.418279 0.438507 5.654768
v 0.322948 0.438508 5.705324
v 0.322948 0.438508 6.190324
v 0.108351 -0.079574 6.190324
v -0.409731 -0.294170 5.705324
v -0.409731 -0.389502 5.654768
v 0.212062 -0.183287 5.532712
v 0.469618 0.438507 5.532712
v 0.175761 1.023998 5.654768
v 0.108351 0.956590 5.705324
v -0.409731 -0.294170 6.190324
v 0.108351 0.956590 6.190324
v -0.927812 -0.079574 5.705324
v -0.995222 -0.146984 5.654768
v -0.409731 -0.440841 5.532712
v 0.500334 -0.471560 5.321886
v 0.877297 0.438506 5.321886
v 0.212064 1.060301 5.532712
v -0.409730 1.266517 5.654768
v -0.409730 1.171186 5.705324
v -0.927812 -0.079574 6.190324
v -0.409730 1.171186 6.190324
v -1.142409 0.438508 5.705324
v -1.237740 0.438508 5.654768
v -1.031524 -0.183286 5.532712
v -0.409731 -0.848520 5.321886
v 0.072870 -0.044094 5.124664
v 0.272771 0.438507 5.124664
v 0.500336 1.348573 5.321886
v -0.409730 1.317857 5.532712
v -0.995222 1.023999 5.654768
v -0.927812 0.956590 5.705324
v -1.142409 0.438508 6.190324
v -0.927812 0.956590 6.190324
v 0.427070 0.438508 6.748209
v 0.181976 -0.153199 6.748209
v -1.289080 0.438508 5.532712
v -1.319797 -0.471558 5.321886
v -0.409731 -0.243994 5.124664
v 0.296859 -0.268084 1.740510
v 0.589539 0.438507 1.740510
v 0.072871 0.921109 5.124664
v -0.409730 1.725536 5.321886
v -1.031524 1.060302 5.532712
v -0.409731 -0.398292 6.748209
v 0.181976 1.030215 6.748209
v -0.035545 0.438508 7.079407
v -0.145142 0.173919 7.079407
v -1.696758 0.438508 5.321886
v -0.892332 -0.044094 5.124664
v -0.409731 -0.560762 1.740510
v 0.823505 0.438506 1.658809
v 0.462297 -0.433523 1.658809
v 0.296860 1.145098 1.740510
v -0.409730 1.121009 5.124664
v -1.319797 1.348574 5.321886
v -1.001438 -0.153199 6.748209
v -0.409731 0.064323 7.079407
v -0.409730 1.275308 6.748209
v -0.145142 0.703097 7.079407
v -0.256053 0.284831 7.166852
v -0.192398 0.438508 7.166852
v -1.092232 0.438508 5.124664
v -1.116321 -0.268082 1.740510
v -0.409731 -0.794728 1.658809
v 0.962270 0.438506 1.422860
v 0.560419 -0.531644 1.422860
v 0.462299 1.310537 1.658809
v -0.409730 1.437778 1.740510
v -0.892332 0.921109 5.124664
v -1.246530 0.438508 6.748209
v -0.674319 0.173919 7.079407
v -0.409731 0.221176 7.166852
v -1.001437 1.030215 6.748209
v -0.409730 0.812693 7.079407
v -0.256053 0.592185 7.166852
v -1.409000 0.438508 1.740510
v -1.281760 -0.433521 1.658809
v -0.409731 -0.933492 1.422860
v 1.482395 0.438506 1.061347
v 0.928202 -0.899428 1.061347
v 0.560421 1.408658 1.422860
v -0.409730 1.671744 1.658809
v -1.116321 1.145098 1.740510
v -0.783915 0.438508 7.079407
v -0.563408 0.284831 7.166852
v -0.674319 0.703097 7.079407
v -0.409730 0.655840 7.166852
v -1.642966 0.438508 1.658809
v -1.379881 -0.531642 1.422860
v -0.409731 -1.453617 1.061347
v 1.115604 0.438506 0.619601
v 0.668842 -0.640068 0.619601
v 0.928205 1.776441 1.061347
v -0.409730 1.810508 1.422860
v -1.281760 1.310537 1.658809
v -0.627063 0.438508 7.166852
v -0.563408 0.592185 7.166852
v -1.781731 0.438508 1.422860
v -1.747665 -0.899426 1.061347
v -0.409731 -1.086827 0.619601
v 1.362720 0.438506 0.509975
v 0.843579 -0.814806 0.509975
v 0.668844 1.517081 0.619601
v -0.409730 2.330633 1.061347
v -1.379881 1.408658 1.422860
v -2.301855 0.438508 1.061347
v -1.488305 -0.640066 0.619601
v -0.409731 -1.333942 0.509975
v 1.590270 0.438506 -0.000000
v 1.004481 -0.975708 -0.000000
v 0.843582 1.691819 0.509975
v -0.409730 1.963842 0.619601
v -1.747665 1.776443 1.061347
v -1.935065 0.438508 0.619601
v -1.663042 -0.814803 0.509975
v -0.409731 -1.561492 -0.000000
v -0.409729 2.438508 -0.000000
v 1.004484 1.852720 -0.000000
v -1.823944 -0.975705 -0.000000
v -2.409730 0.438508 -0.000000
v -1.823944 1.852722 -0.000000
v -0.409730 2.210958 0.509975
v -1.488304 1.517082 0.619601
v -2.182181 0.438508 0.509975
v -1.663042 1.691820 0.509975
v -0.112143 0.438508 7.240544
v -0.199305 0.228082 7.240544
v -0.199305 0.648934 7.240544
v -0.073587 0.438508 7.448916
v -0.172041 0.200819 7.448916
v -0.409731 0.140921 7.240544
v -0.409730 0.736095 7.240544
v -0.172041 0.676197 7.448916
v -0.172041 0.438508 7.650663
v -0.241659 0.270436 7.650663
v -0.409731 0.102364 7.448916
v -0.620156 0.228082 7.240544
v -0.620156 0.648934 7.240544
v -0.409730 0.774652 7.448916
v -0.241659 0.606580 7.650663
v -0.409730 0.438508 7.749117
v -0.409731 0.200819 7.650663
v -0.647420 0.200819 7.448916
v -0.707318 0.438508 7.240544
v -0.647420 0.676197 7.448916
v -0.409730 0.676197 7.650663
v -0.577802 0.270436 7.650663
v -0.745874 0.438508 7.448916
v -0.577802 0.606580 7.650663
v -0.647420 0.438508 7.650663
v 0.215649 0.697549 6.190324
v 0.215649 0.179467 6.190324
v 0.520771 0.438508 6.598949
v 0.553354 0.039585 7.007575
v -0.668772 -0.186872 6.190324
v -0.150690 -0.186872 6.190324
v 0.248233 -0.219456 6.598949
v -0.010808 -0.524577 7.007575
v -0.409731 -0.491993 6.598949
v -0.150690 1.063888 6.190324
v 0.248233 1.096471 6.598949
v 0.553355 0.837431 7.007575
v -1.035110 0.179467 6.190324
v -0.808654 -0.524577 7.007575
v -1.067694 -0.219456 6.598949
v -0.668771 1.063888 6.190324
v -0.409730 1.369009 6.598949
v -0.010808 1.401593 7.007575
v -1.035110 0.697549 6.190324
v -1.372816 0.039585 7.007575
v -1.340232 0.438508 6.598949
v -1.067694 1.096472 6.598949
v -0.808653 1.401593 7.007575
v -1.372815 0.837431 7.007575
v -1.203963 0.767490 6.598949
v -0.738712 1.232740 6.598949
v -1.203963 0.109526 6.598949
v -0.080749 1.232740 6.598949
v -0.738713 -0.355724 6.598949
v 0.384502 0.767490 6.598949
v -0.080749 -0.355725 6.598949
v 0.384502 0.109526 6.598949
v 0.088823 -0.060046 6.650201
v 0.295331 0.438508 6.650201
v -0.908284 -0.060046 6.650201
v -0.409731 -0.266553 6.650201
v 0.088823 0.937061 6.650201
v -0.409730 1.143569 6.650201
v -1.114792 0.438508 6.650201
v -0.908284 0.937062 6.650201
vn 0.5759 -0.5759 0.5802
vn 0.7715 0.0000 0.6362
vn 0.8144 0.0000 0.5802
vn 0.9035 -0.3742 -0.2087
vn 0.0000 -0.8145 0.5802
vn 0.5455 -0.5455 0.6362
vn 0.4883 -0.4883 0.7232
vn 0.5455 0.5455 0.6362
vn 0.5759 0.5759 0.5802
vn 0.3742 -0.9035 -0.2087
vn 0.9035 0.3742 -0.2087
vn -0.5455 -0.5455 0.6362
vn -0.5759 -0.5759 0.5802
vn 0.0000 -0.6906 0.7232
vn 0.0000 -0.7715 0.6362
vn 0.7055 -0.7055 -0.0672
vn 0.6906 0.0000 0.7232
vn 0.4883 0.4883 0.7232
vn 0.0000 0.7715 0.6362
vn 0.0000 0.8145 0.5802
vn -0.3742 -0.9035 -0.2087
vn 0.3742 0.9035 -0.2087
vn -0.7715 0.0000 0.6362
vn -0.8145 0.0000 0.5802
vn -0.4883 -0.4883 0.7232
vn 0.0000 -0.9977 -0.0672
vn 0.7749 0.0000 -0.6321
vn 0.5479 -0.5479 -0.6321
vn 0.9977 0.0000 -0.0672
vn -0.5759 0.5759 0.5802
vn -0.9035 -0.3742 -0.2087
vn -0.3742 0.9035 -0.2087
vn -0.9716 0.0000 -0.2364
vn -0.8433 -0.3493 -0.4083
vn -0.9821 0.0000 -0.1885
vn -0.5455 0.5455 0.6362
vn -0.6906 0.0000 0.7232
vn -0.7055 -0.7055 -0.0672
vn 0.0000 -0.7749 -0.6321
vn 0.7245 0.0000 0.6893
vn 0.5123 -0.5123 0.6893
vn 0.5479 0.5479 -0.6321
vn 0.7055 0.7055 -0.0672
vn 0.0000 0.6906 0.7232
vn -0.4883 0.4883 0.7232
vn -0.9035 0.3742 -0.2087
vn -0.6871 0.6871 -0.2364
vn -0.3493 0.8433 -0.4083
vn -0.0385 0.0000 0.9992
vn 0.0227 -0.0227 0.9995
vn 0.0322 0.0000 0.9995
vn -0.9977 0.0000 -0.0672
vn -0.5479 -0.5479 -0.6321
vn 0.0000 -0.7245 0.6893
vn 0.4811 -0.4811 0.7328
vn 0.6804 0.0000 0.7328
vn 0.5123 0.5123 0.6893
vn 0.0000 0.7749 -0.6321
vn -0.7055 0.7055 -0.0672
vn 0.0000 0.9977 -0.0672
vn 0.0000 0.9716 -0.2364
vn 0.0000 0.9821 -0.1885
vn -0.0272 0.0272 0.9992
vn 0.0000 -0.0322 0.9995
vn 0.0227 0.0227 0.9995
vn -0.0272 -0.0272 0.9992
vn 0.4805 -0.4805 0.7335
vn 0.9888 0.0000 0.1491
vn 0.6992 -0.6992 0.1491
vn -0.7749 0.0000 -0.6321
vn -0.5123 -0.5123 0.6893
vn 0.0000 -0.6804 0.7328
vn 0.4999 -0.4999 0.7072
vn 0.7070 0.0000 0.7072
vn 0.4811 0.4811 0.7328
vn 0.0000 0.7245 0.6893
vn -0.8433 0.3493 -0.4083
vn 0.0272 0.0272 0.9992
vn 0.0000 0.0385 0.9992
vn 0.0000 -0.6796 0.7335
vn 0.0000 -0.9888 0.1491
vn -0.7559 0.5261 -0.3896
vn 0.0000 -0.0385 0.9992
vn 0.0000 0.0322 0.9995
vn 0.4805 0.4805 0.7335
vn 0.6992 0.6992 0.1491
vn -0.5479 0.5479 -0.6321
vn -0.7245 0.0000 0.6893
vn -0.4811 -0.4811 0.7328
vn 0.0000 -0.7070 0.7072
vn 0.7024 -0.7024 0.1157
vn 0.9933 0.0000 0.1157
vn 0.4999 0.4999 0.7072
vn 0.0000 0.6804 0.7328
vn -0.5123 0.5123 0.6893
vn 0.1138 -0.0171 0.9933
vn -0.0227 -0.0227 0.9995
vn -0.6992 -0.6992 0.1491
vn 0.0918 -0.7046 0.7036
vn 0.0272 -0.0272 0.9992
vn 0.0000 0.9888 0.1491
vn -0.6804 0.0000 0.7328
vn -0.4999 -0.4999 0.7072
vn 0.0000 -0.9933 0.1157
vn 0.9577 0.0000 0.2876
vn 0.6772 -0.6772 0.2876
vn 0.7024 0.7024 0.1157
vn 0.0000 0.7070 0.7072
vn -0.4811 0.4811 0.7328
vn 0.0385 0.0000 0.9992
vn -0.6796 0.0000 0.7335
vn -0.9888 0.0000 0.1491
vn 0.0000 0.6796 0.7335
vn -0.6992 0.6992 0.1491
vn -0.7070 0.0000 0.7072
vn -0.7024 -0.7024 0.1157
vn 0.0000 -0.9577 0.2876
vn 0.5272 -0.5272 0.6663
vn 0.7456 0.0000 0.6663
vn 0.6772 0.6772 0.2876
vn 0.0000 0.9933 0.1157
vn -0.4999 0.4999 0.7072
vn -0.4805 0.4805 0.7335
vn -0.9933 0.0000 0.1157
vn -0.6772 -0.6772 0.2876
vn 0.0000 -0.7456 0.6663
vn 0.6250 -0.6250 -0.4676
vn 0.8839 0.0000 -0.4676
vn 0.5272 0.5272 0.6663
vn 0.0000 0.9577 0.2876
vn -0.7024 0.7024 0.1157
vn -0.9577 0.0000 0.2876
vn -0.5272 -0.5272 0.6663
vn 0.0000 -0.8839 -0.4676
vn -0.6250 -0.6250 -0.4676
vn -0.6250 0.6250 -0.4676
vn 0.6250 0.6250 -0.4676
vn 0.0000 0.7456 0.6663
vn -0.6772 0.6772 0.2876
vn -0.7456 0.0000 0.6663
vn -0.5272 0.5272 0.6663
vn 0.0000 0.8839 -0.4676
vn -0.8839 0.0000 -0.4676
vn 0.6300 -0.6300 -0.4541
vn 0.8910 0.0000 -0.4541
vn 0.7015 -0.7015 0.1259
vn 0.0000 -0.8910 -0.4541
vn 0.6300 0.6300 -0.4541
vn 0.7015 0.7015 0.1259
vn 0.7264 0.0000 0.6872
vn 0.9920 0.0000 0.1259
vn -0.6300 0.6300 -0.4541
vn 0.0000 0.9920 0.1259
vn 0.0000 0.8910 -0.4541
vn 0.0000 0.0000 1.0000
vn 0.5136 -0.5136 0.6872
vn 0.0000 -0.9920 0.1259
vn -0.7015 -0.7015 0.1259
vn -0.6300 -0.6300 -0.4541
vn -0.8910 0.0000 -0.4541
vn 0.5136 0.5136 0.6872
vn 0.0000 -0.7264 0.6872
vn -0.9920 0.0000 0.1259
vn -0.5136 0.5136 0.6872
vn -0.7015 0.7015 0.1259
vn 0.0000 0.7264 0.6872
vn -0.5136 -0.5136 0.6872
vn -0.7264 0.0000 0.6872
vn -0.6871 -0.6871 -0.2364
vn 0.6871 0.6871 -0.2364
vn 0.3493 0.8433 -0.4083
vn 0.6944 0.6944 -0.1885
vn -0.3493 -0.8433 -0.4083
vn -0.6944 -0.6944 -0.1885
vn 0.0000 -0.9716 -0.2364
vn 0.9716 0.0000 -0.2364
vn 0.8433 0.3493 -0.4083
vn 0.9821 0.0000 -0.1885
vn 0.3493 -0.8433 -0.4083
vn 0.0000 -0.9821 -0.1885
vn 0.6871 -0.6871 -0.2364
vn 0.8433 -0.3493 -0.4083
vn 0.6944 -0.6944 -0.1885
vn 0.5011 -0.2991 0.8120
vn -0.5319 -0.2203 0.8176
vn -0.2203 -0.5319 0.8176
vn 0.2203 -0.5319 0.8176
vn 0.5319 -0.2203 0.8176
vn 0.5319 0.2203 0.8176
vn 0.2203 0.5319 0.8176
vn -0.2203 0.5319 0.8176
vn -0.4805 -0.4805 0.7335
vn 0.6796 0.0000 0.7335
usemtl Black_Pieces
s 1
f 1//1 3//2 4//3
f 4//3 155//4 1//1
f 7//5 2//6 1//1
f 9//7 3//2 2//6
f 4//3 11//8 12//9
f 1//1 159//10 7//5
f 12//9 154//11 4//3
f 16//12 7//5 15//13
f 17//14 2//6 8//15
f 18//16 10//17 9//7
f 20//18 3//2 10//17
f 12//9 21//19 22//20
f 7//5 158//21 15//13
f 22//20 163//22 12//9
f 26//23 15//13 25//24
f 17//14 16//12 27//25
f 18//16 17//14 28//26
f 30//27 18//16 29//28
f 19//29 20//18 10//17
f 20//18 21//19 11//8
f 21//19 34//30 22//20
f 15//13 166//31 25//24
f 34//30 169//32 22//20
f 35//33 180//34 174//35
f 33//36 25//24 34//30
f 27//25 26//23 39//37
f 28//26 27//25 40//38
f 29//28 28//26 41//39
f 43//40 29//28 42//41
f 44//42 19//29 30//27
f 31//43 32//44 20//18
f 46//45 21//19 32//44
f 25//24 172//46 34//30
f 36//47 179//48 169//32
f 187//49 38//50 37//51
f 39//37 33//36 46//45
f 40//38 39//37 51//52
f 41//39 40//38 52//53
f 42//41 41//39 53//54
f 43//40 55//55 54//56
f 56//57 30//27 43//40
f 57//58 31//43 44//42
f 58//59 32//44 45//60
f 24//61 179//48 170//62
f 186//63 47//64 38//50
f 187//49 48//65 190//66
f 50//67 64//68 63//69
f 51//52 46//45 58//59
f 65//70 40//38 51//52
f 53//54 52//53 66//71
f 42//41 67//72 55//55
f 54//56 69//73 68//74
f 56//57 54//56 70//75
f 71//76 44//42 56//57
f 57//58 58//59 45//60
f 35//33 178//77 172//46
f 188//78 47//64 189//79
f 60//80 63//69 75//81
f 36//47 178//77 175//82
f 191//83 48//65 61//84
f 64//68 62//85 78//86
f 72//87 51//52 58//59
f 66//71 65//70 79//88
f 67//72 66//71 80//89
f 55//55 81//90 69//73
f 68//74 83//91 82//92
f 84//93 54//56 68//74
f 71//76 70//75 85//94
f 86//95 57//58 71//76
f 188//78 73//96 59//97
f 88//98 60//80 75//81
f 191//83 76//99 193//100
f 62//85 90//101 78//86
f 79//88 72//87 86//95
f 80//89 79//88 91//102
f 67//72 92//103 81//90
f 69//73 93//104 83//91
f 94//105 83//91 95//106
f 84//93 82//92 96//107
f 97//108 70//75 84//93
f 98//109 71//76 85//94
f 193//100 73//96 192//110
f 87//111 88//98 99//112
f 77//113 100//114 90//101
f 91//102 86//95 98//109
f 80//89 101//115 92//103
f 81//90 102//116 93//104
f 95//106 93//104 103//117
f 94//105 105//118 104//119
f 96//107 94//105 106//120
f 97//108 96//107 107//121
f 98//109 97//108 108//122
f 89//123 99//112 100//114
f 101//115 98//109 108//122
f 92//103 109//124 102//116
f 93//104 110//125 103//117
f 95//106 111//126 105//118
f 104//119 113//127 112//128
f 106//120 104//119 114//129
f 107//121 106//120 115//130
f 116//131 97//108 107//121
f 109//124 108//122 116//131
f 102//116 117//132 110//125
f 111//126 110//125 118//133
f 105//118 119//134 113//127
f 113//127 122//135 124//136
f 114//129 112//128 121//137
f 125//138 106//120 114//129
f 116//131 115//130 126//139
f 109//124 126//139 117//132
f 118//133 117//132 127//140
f 111//126 122//135 119//134
f 128//141 120//142 124//136
f 125//138 121//137 120//142
f 122//135 127//140 123//143
f 123//143 128//141 124//136
f 128//141 115//130 125//138
f 127//140 126//139 128//141
f 64//68 130//144 63//69
f 78//86 129//145 64//68
f 129//145 133//146 130//144
f 63//69 134//147 75//81
f 90//101 131//148 78//86
f 136//149 129//145 131//148
f 137//150 133//146 132//151
f 133//146 134//147 130//144
f 134//147 88//98 75//81
f 141//152 90//101 100//114
f 142//153 131//148 135//154
f 136//149 137//150 132//151
f 137//150 144//155 138//156
f 138//156 139//157 133//146
f 134//147 146//158 140//159
f 140//159 99//112 88//98
f 147//160 100//114 99//112
f 141//152 142//153 135//154
f 142//153 143//161 136//149
f 143//161 144//155 137//150
f 138//156 144//155 145//162
f 145//162 146//158 139//157
f 146//158 147//160 140//159
f 151//163 141//152 147//160
f 152//164 142//153 148//165
f 149//166 144//155 143//161
f 145//162 144//155 150//167
f 150//167 151//163 146//158
f 151//163 152//164 148//165
f 152//164 144//155 149//166
f 150//167 144//155 153//168
f 153//168 144//155 152//164
f 23//169 180//34 166//31
f 14//170 181//171 164//172
f 24//61 181//171 163//22
f 23//169 182//173 168//174
f 13//175 182//173 158//21
f 5//176 183//177 156//178
f 14//170 183//177 154//11
f 13//175 184//179 162//180
f 6//181 184//179 159//10
f 6//181 185//182 160//183
f 5//176 185//182 155//4
f 178//77 177//184 175//82
f 180//34 173//185 174//35
f 182//173 167//186 168//174
f 184//179 161//187 162//180
f 185//182 157//188 160//183
f 183//177 165//189 156//178
f 181//171 171//190 164//172
f 179//48 176//191 170//62
f 61//84 176//191 76//99
f 76//99 176//191 175//82
f 177//184 73//96 175//82
f 174//35 73//96 177//184
f 173//185 73//96 174//35
f 73//96 173//185 59//97
f 168//174 59//97 173//185
f 167//186 59//97 168//174
f 47//64 59//97 167//186
f 162//180 47//64 167//186
f 161//187 47//64 162//180
f 47//64 161//187 38//50
f 160//183 38//50 161//187
f 157//188 38//50 160//183
f 38//50 157//188 37//51
f 156//178 37//51 157//188
f 165//189 37//51 156//178
f 37//51 165//189 48//65
f 164//172 48//65 165//189
f 171//190 48//65 164//172
f 171//190 61//84 48//65
f 61//84 171//190 170//62
f 170//62 176//191 61//84
f 175//82 76//99 177//184
f 76//99 177//184 73//96
f 89//123 192//110 87//111
f 77//113 193//100 89//123
f 87//111 188//78 74//192
f 77//113 190//66 191//83
f 74//192 189//79 60//80
f 49//193 190//66 62//85
f 60//80 186//63 50//67
f 49//193 186//63 187//49
f 1//1 2//6 3//2
f 6//181 1//1 155//4
f 4//3 5//176 155//4
f 7//5 8//15 2//6
f 9//7 10//17 3//2
f 4//3 3//2 11//8
f 13//175 7//5 159//10
f 1//1 6//181 159//10
f 5//176 4//3 154//11
f 12//9 14//170 154//11
f 16//12 8//15 7//5
f 17//14 9//7 2//6
f 18//16 19//29 10//17
f 20//18 11//8 3//2
f 12//9 11//8 21//19
f 23//169 15//13 158//21
f 7//5 13//175 158//21
f 14//170 12//9 163//22
f 22//20 24//61 163//22
f 26//23 16//12 15//13
f 17//14 8//15 16//12
f 18//16 9//7 17//14
f 30//27 19//29 18//16
f 19//29 31//43 20//18
f 20//18 32//44 21//19
f 21//19 33//36 34//30
f 35//33 25//24 166//31
f 15//13 23//169 166//31
f 24//61 22//20 169//32
f 34//30 36//47 169//32
f 35//33 166//31 180//34
f 33//36 26//23 25//24
f 27//25 16//12 26//23
f 28//26 17//14 27//25
f 29//28 18//16 28//26
f 43//40 30//27 29//28
f 44//42 31//43 19//29
f 31//43 45//60 32//44
f 46//45 33//36 21//19
f 36//47 34//30 172//46
f 25//24 35//33 172//46
f 36//47 175//82 179//48
f 187//49 186//63 38//50
f 39//37 26//23 33//36
f 40//38 27//25 39//37
f 41//39 28//26 40//38
f 42//41 29//28 41//39
f 43//40 42//41 55//55
f 56//57 44//42 30//27
f 57//58 45//60 31//43
f 58//59 46//45 32//44
f 24//61 169//32 179//48
f 186//63 189//79 47//64
f 187//49 37//51 48//65
f 50//67 49//193 64//68
f 51//52 39//37 46//45
f 65//70 52//53 40//38
f 53//54 41//39 52//53
f 42//41 53//54 67//72
f 54//56 55//55 69//73
f 56//57 43//40 54//56
f 71//76 57//58 44//42
f 57//58 72//87 58//59
f 35//33 174//35 178//77
f 188//78 59//97 47//64
f 60//80 50//67 63//69
f 36//47 172//46 178//77
f 191//83 190//66 48//65
f 64//68 49//193 62//85
f 72//87 65//70 51//52
f 66//71 52//53 65//70
f 67//72 53//54 66//71
f 55//55 67//72 81//90
f 68//74 69//73 83//91
f 84//93 70//75 54//56
f 71//76 56//57 70//75
f 86//95 72//87 57//58
f 188//78 192//110 73//96
f 88//98 74//192 60//80
f 191//83 61//84 76//99
f 62//85 77//113 90//101
f 79//88 65//70 72//87
f 80//89 66//71 79//88
f 67//72 80//89 92//103
f 69//73 81//90 93//104
f 94//105 82//92 83//91
f 84//93 68//74 82//92
f 97//108 85//94 70//75
f 98//109 86//95 71//76
f 193//100 76//99 73//96
f 87//111 74//192 88//98
f 77//113 89//123 100//114
f 91//102 79//88 86//95
f 80//89 91//102 101//115
f 81//90 92//103 102//116
f 95//106 83//91 93//104
f 94//105 95//106 105//118
f 96//107 82//92 94//105
f 97//108 84//93 96//107
f 98//109 85//94 97//108
f 89//123 87//111 99//112
f 101//115 91//102 98//109
f 92//103 101//115 109//124
f 93//104 102//116 110//125
f 95//106 103//117 111//126
f 104//119 105//118 113//127
f 106//120 94//105 104//119
f 107//121 96//107 106//120
f 116//131 108//122 97//108
f 109//124 101//115 108//122
f 102//116 109//124 117//132
f 111//126 103//117 110//125
f 105//118 111//126 119//134
f 124//136 120//142 121//137
f 121//137 112//128 124//136
f 113//127 119//134 122//135
f 122//135 123//143 124//136
f 124//136 112//128 113//127
f 114//129 104//119 112//128
f 125//138 115//130 106//120
f 116//131 107//121 115//130
f 109//124 116//131 126//139
f 118//133 110//125 117//132
f 111//126 118//133 122//135
f 128//141 125//138 120//142
f 125//138 114//129 121//137
f 122//135 118//133 127//140
f 123//143 127//140 128//141
f 128//141 126//139 115//130
f 127//140 117//132 126//139
f 64//68 129//145 130//144
f 78//86 131//148 129//145
f 129//145 132//151 133//146
f 63//69 130//144 134//147
f 90//101 135//154 131//148
f 136//149 132//151 129//145
f 137//150 138//156 133//146
f 133//146 139//157 134//147
f 134//147 140//159 88//98
f 141//152 135//154 90//101
f 142//153 136//149 131//148
f 136//149 143//161 137//150
f 138//156 145//162 139//157
f 134//147 139//157 146//158
f 140//159 147//160 99//112
f 147//160 141//152 100//114
f 141//152 148//165 142//153
f 142//153 149//166 143//161
f 145//162 150//167 146//158
f 146//158 151//163 147//160
f 151//163 148//165 141//152
f 152//164 149//166 142//153
f 150//167 153//168 151//163
f 151//163 153//168 152//164
f 23//169 168//174 180//34
f 14//170 163//22 181//171
f 24//61 170//62 181//171
f 23//169 158//21 182//173
f 13//175 162//180 182//173
f 5//176 154//11 183//177
f 14//170 164//172 183//177
f 13//175 159//10 184//179
f 6//181 160//183 184//179
f 6//181 155//4 185//182
f 5//176 156//178 185//182
f 178//77 174//35 177//184
f 180//34 168//174 173//185
f 182//173 162//180 167//186
f 184//179 160//183 161//187
f 185//182 156//178 157//188
f 183//177 164//172 165//189
f 181//171 170//62 171//190
f 179//48 175//82 176//191
f 89//123 193//100 192//110
f 77//113 191//83 193//100
f 87//111 192//110 188//78
f 77//113 62//85 190//66
f 74//192 188//78 189//79
f 49//193 187//49 190//66
f 60//80 189//79 186//63
f 49//193 50//67 186//63
