# Blender v2.79 (sub 0) OBJ File: 'Chess Scene.blend'
# www.blender.org
mtllib ChessBishop.mtl
o Bishop_2.001_Cylinder.026
v 0.584033 0.438508 5.899465
v 0.322948 0.438508 6.629710
v 0.108351 -0.079574 6.629710
v 0.292966 -0.264189 5.899465
v 0.322948 0.438508 4.729220
v 0.108351 -0.079574 4.729220
v 0.292966 1.141205 5.899465
v 0.108351 0.956590 6.629710
v -0.409730 0.438508 7.338325
v -0.409731 -0.294170 6.629710
v -0.409731 -0.456049 6.176942
v -0.343112 -0.485114 6.018466
v -0.409731 -0.518198 6.003112
v -0.409731 -0.555255 5.899465
v 0.175760 -0.146984 4.557829
v 0.418279 0.438507 4.557829
v 0.108351 0.956590 4.729220
v -0.409731 -0.294170 4.729220
v -0.409730 1.432271 5.899465
v -0.409730 1.372472 6.066720
v 0.036176 1.156293 6.154765
v -0.205798 1.086714 6.629710
v -0.561759 -0.231198 6.629710
v -0.870317 -0.360724 5.909955
v -0.940974 -0.092735 6.577649
v -1.112427 -0.264189 5.899465
v -0.409731 -0.389502 4.557829
v 0.095381 -0.066606 4.435772
v 0.304607 0.438507 4.435772
v 0.175761 1.023998 4.557829
v -0.409730 1.171186 4.729220
v -0.927812 -0.079574 4.729220
v -1.112427 1.141205 5.899465
v -0.927812 0.956590 6.629710
v -0.664204 1.065780 6.629710
v -0.474842 1.350740 6.052071
v -0.409730 0.858245 6.932374
v -0.631297 0.216942 7.035274
v -0.940689 -0.048487 6.629710
v -1.142409 0.438508 6.629710
v -1.403494 0.438508 5.899465
v -0.995222 -0.146984 4.557829
v -0.409731 -0.275830 4.435772
v 0.424426 -0.395651 4.224946
v 0.769947 0.438506 4.224946
v 0.095383 0.943620 4.435772
v -0.409730 1.266517 4.557829
v -0.927812 0.956590 4.729220
v -1.142409 0.438508 4.729220
v -0.773135 0.801913 6.841272
v -0.568725 0.597503 7.120857
v -0.618829 0.438508 7.136094
v -0.873311 0.438508 6.889970
v -1.237740 0.438508 4.557829
v -0.914843 -0.066605 4.435772
v -0.409731 -0.741169 4.224946
v 0.072870 -0.044094 4.027724
v 0.272771 0.438507 4.027724
v 0.424428 1.272665 4.224946
v -0.409730 1.152845 4.435772
v -0.995222 1.023999 4.557829
v -1.124068 0.438508 4.435772
v -1.243888 -0.395650 4.224946
v -0.409731 -0.243994 4.027724
v 0.296859 -0.268084 1.740510
v 0.589539 0.438507 1.740510
v 0.072871 0.921109 4.027724
v -0.409730 1.618185 4.224946
v -0.914843 0.943620 4.435772
v -1.589408 0.438508 4.224946
v -0.892332 -0.044094 4.027724
v -0.409731 -0.560762 1.740510
v 0.823505 0.438506 1.658809
v 0.462297 -0.433523 1.658809
v 0.296860 1.145098 1.740510
v -0.409730 1.121009 4.027724
v -1.243888 1.272666 4.224946
v -1.092232 0.438508 4.027724
v -1.116321 -0.268082 1.740510
v -0.409731 -0.794728 1.658809
v 0.962270 0.438506 1.422860
v 0.560419 -0.531644 1.422860
v 0.462299 1.310537 1.658809
v -0.409730 1.437778 1.740510
v -0.892332 0.921109 4.027724
v -1.409000 0.438508 1.740510
v -1.281760 -0.433521 1.658809
v -0.409731 -0.933492 1.422860
v 1.482395 0.438506 1.061347
v 0.928202 -0.899428 1.061347
v 0.560421 1.408658 1.422860
v -0.409730 1.671744 1.658809
v -1.116321 1.145098 1.740510
v -1.642966 0.438508 1.658809
v -1.379881 -0.531642 1.422860
v -0.409731 -1.453617 1.061347
v 1.115604 0.438506 0.619601
v 0.668842 -0.640068 0.619601
v 0.928205 1.776441 1.061347
v -0.409730 1.810508 1.422860
v -1.281760 1.310537 1.658809
v -1.781731 0.438508 1.422860
v -1.747665 -0.899426 1.061347
v -0.409731 -1.086827 0.619601
v 1.362720 0.438506 0.509975
v 0.843579 -0.814806 0.509975
v 0.668844 1.517081 0.619601
v -0.409730 2.330633 1.061347
v -1.379881 1.408658 1.422860
v -2.301855 0.438508 1.061347
v -1.488305 -0.640066 0.619601
v -0.409731 -1.333942 0.509975
v 1.590270 0.438506 -0.000000
v 1.004481 -0.975708 -0.000000
v 0.843582 1.691819 0.509975
v -0.409730 1.963842 0.619601
v -1.747665 1.776443 1.061347
v -1.935065 0.438508 0.619601
v -1.663042 -0.814803 0.509975
v -0.409731 -1.561492 -0.000000
v -0.409729 2.438508 -0.000000
v 1.004484 1.852720 -0.000000
v -1.823944 -0.975705 -0.000000
v -2.409730 0.438508 -0.000000
v -1.823944 1.852722 -0.000000
v -0.409730 2.210958 0.509975
v -1.488304 1.517082 0.619601
v -2.182181 0.438508 0.509975
v -1.663042 1.691820 0.509975
v -0.409730 0.438508 7.339115
v -0.210544 0.438508 7.454114
v -0.268885 0.297662 7.454114
v -0.409730 0.239322 7.454114
v -0.268885 0.579354 7.454114
v -0.210544 0.438508 7.684114
v -0.268885 0.297662 7.684114
v -0.550576 0.297662 7.454114
v -0.409730 0.239322 7.684114
v -0.409730 0.637694 7.454114
v -0.268885 0.579354 7.684114
v -0.409730 0.438508 7.799115
v -0.608916 0.438508 7.454114
v -0.550576 0.297662 7.684114
v -0.550576 0.579354 7.454114
v -0.409730 0.637694 7.684114
v -0.608916 0.438508 7.684114
v -0.550576 0.579354 7.684114
vn 0.9983 0.0000 0.0581
vn 0.6048 -0.6048 0.5180
vn 0.7059 -0.7059 0.0581
vn 0.6983 -0.6983 0.1576
vn 0.9875 0.0000 0.1576
vn 0.7059 0.7059 0.0581
vn 0.8554 0.0000 0.5180
vn 0.0000 0.0000 1.0000
vn -0.6352 -0.7672 -0.0891
vn 0.0039 -0.7835 0.6214
vn 0.9943 0.0000 -0.1066
vn 0.6983 0.6983 0.1576
vn 0.0000 -0.9875 0.1576
vn 0.0313 0.8618 0.5062
vn 0.6048 0.6048 0.5180
vn 0.0000 -0.8554 0.5180
vn -0.8863 -0.4367 0.1540
vn 0.0000 -0.9983 0.0581
vn -0.1703 -0.7893 0.5899
vn -0.7059 -0.7059 0.0581
vn 0.7031 -0.7031 -0.1066
vn 0.9683 0.0000 0.2497
vn 0.6847 -0.6847 0.2497
vn 0.7031 0.7031 -0.1066
vn 0.0000 0.9983 0.0581
vn 0.0000 0.9875 0.1576
vn -0.6983 -0.6983 0.1576
vn 0.5315 0.5878 0.6099
vn -0.1863 0.6843 0.7050
vn -0.7059 0.7059 0.0581
vn -0.5522 0.7876 0.2735
vn -0.4389 0.8849 0.1555
vn -0.9177 -0.2996 0.2608
vn -0.9983 0.0000 0.0581
vn 0.0929 -0.7897 0.6064
vn -0.7031 -0.7031 -0.1066
vn 0.0000 -0.9943 -0.1066
vn 0.0000 -0.9683 0.2497
vn 0.7070 -0.7070 -0.0198
vn 0.6847 0.6847 0.2497
vn 0.0000 0.9943 -0.1066
vn -0.6983 0.6983 0.1576
vn -0.9875 0.0000 0.1576
vn -0.6048 0.6048 0.5180
vn 0.3281 0.1948 0.9243
vn -0.8130 0.5210 0.2600
vn -0.9592 0.1021 0.2637
vn 0.2016 -0.1771 0.9633
vn -0.8554 0.0000 0.5180
vn 0.0869 -0.6897 0.7188
vn -0.9943 0.0000 -0.1066
vn -0.6847 -0.6847 0.2497
vn 0.0000 -0.9998 -0.0198
vn 0.8128 0.0000 -0.5825
vn 0.5747 -0.5747 -0.5825
vn 0.9998 0.0000 -0.0198
vn -0.7031 0.7031 -0.1066
vn -0.9683 0.0000 0.2497
vn -0.7070 -0.7070 -0.0198
vn 0.0000 -0.8128 -0.5825
vn 0.5021 -0.5021 0.7040
vn 0.5747 0.5747 -0.5825
vn 0.7070 0.7070 -0.0198
vn 0.0000 0.9683 0.2497
vn -0.6847 0.6847 0.2497
vn -0.9998 0.0000 -0.0198
vn -0.5747 -0.5747 -0.5825
vn 0.0000 -0.7101 0.7040
vn 0.7101 0.0000 0.7040
vn 0.4811 -0.4811 0.7328
vn 0.6804 0.0000 0.7328
vn 0.5021 0.5021 0.7040
vn 0.0000 0.8128 -0.5825
vn -0.7070 0.7070 -0.0198
vn 0.0000 0.9998 -0.0198
vn -0.8128 0.0000 -0.5825
vn -0.5021 -0.5021 0.7040
vn 0.0000 -0.6804 0.7328
vn 0.4999 -0.4999 0.7072
vn 0.7070 0.0000 0.7072
vn 0.4811 0.4811 0.7328
vn 0.0000 0.7101 0.7040
vn -0.5747 0.5747 -0.5825
vn -0.7101 0.0000 0.7040
vn -0.4811 -0.4811 0.7328
vn 0.0000 -0.7070 0.7072
vn 0.7024 -0.7024 0.1157
vn 0.9933 0.0000 0.1157
vn 0.4999 0.4999 0.7072
vn 0.0000 0.6804 0.7328
vn -0.5021 0.5021 0.7040
vn -0.6804 0.0000 0.7328
vn -0.4999 -0.4999 0.7072
vn 0.0000 -0.9933 0.1157
vn 0.9577 0.0000 0.2876
vn 0.6772 -0.6772 0.2876
vn 0.7024 0.7024 0.1157
vn 0.0000 0.7070 0.7072
vn -0.4811 0.4811 0.7328
vn -0.7070 0.0000 0.7072
vn -0.7024 -0.7024 0.1157
vn 0.0000 -0.9577 0.2876
vn 0.5272 -0.5272 0.6663
vn 0.7456 0.0000 0.6663
vn 0.6772 0.6772 0.2876
vn 0.0000 0.9933 0.1157
vn -0.4999 0.4999 0.7072
vn -0.9933 0.0000 0.1157
vn -0.6772 -0.6772 0.2876
vn 0.0000 -0.7456 0.6663
vn 0.6250 -0.6250 -0.4676
vn 0.8839 0.0000 -0.4676
vn 0.5272 0.5272 0.6663
vn 0.0000 0.9577 0.2876
vn -0.7024 0.7024 0.1157
vn -0.9577 0.0000 0.2876
vn -0.5272 -0.5272 0.6663
vn 0.0000 -0.8839 -0.4676
vn -0.6250 -0.6250 -0.4676
vn -0.6250 0.6250 -0.4676
vn 0.6250 0.6250 -0.4676
vn 0.0000 0.7456 0.6663
vn -0.6772 0.6772 0.2876
vn -0.7456 0.0000 0.6663
vn -0.5272 0.5272 0.6663
vn 0.0000 0.8839 -0.4676
vn -0.8839 0.0000 -0.4676
vn 0.0000 0.0000 -1.0000
vn 0.8912 0.0000 -0.4535
vn 0.6302 -0.6302 -0.4535
vn 0.0000 -0.8912 -0.4535
vn 0.6302 0.6302 -0.4535
vn 0.8912 0.0000 0.4535
vn -0.6302 -0.6302 -0.4535
vn 0.6302 -0.6302 0.4535
vn 0.0000 0.8912 -0.4535
vn 0.6302 0.6302 0.4535
vn -0.8912 0.0000 -0.4535
vn -0.6302 -0.6302 0.4535
vn 0.0000 -0.8912 0.4535
vn -0.6302 0.6302 -0.4535
vn 0.0000 0.8912 0.4535
vn -0.6302 0.6302 0.4535
vn -0.8912 0.0000 0.4535
vn -0.0750 -0.6704 0.7382
vn -0.0786 0.6452 0.7600
usemtl Black_Pieces
s 1
f 1//1 3//2 4//3
f 1//1 6//4 5//5
f 7//6 2//7 1//1
f 2//7 9//8 3//2
f 11//9 12//10 4//3
f 6//4 16//11 5//5
f 7//6 5//5 17//12
f 4//3 18//13 6//4
f 21//14 8//15 7//6
f 8//15 9//8 2//7
f 3//2 9//8 10//16
f 11//9 10//16 23//17
f 14//18 24//19 26//20
f 18//13 15//21 6//4
f 29//22 15//21 28//23
f 5//5 30//24 17//12
f 19//25 17//12 31//26
f 14//18 32//27 18//13
f 35//28 36//29 33//30
f 37//31 8//15 22//32
f 10//16 38//33 23//17
f 41//34 26//20 25//35
f 42//36 18//13 32//27
f 28//23 27//37 43//38
f 44//39 29//22 28//23
f 46//40 16//11 29//22
f 17//12 47//41 31//26
f 33//30 31//26 48//42
f 26//20 49//43 32//27
f 41//34 34//44 33//30
f 34//44 50//45 35//28
f 51//46 9//8 37//31
f 38//33 9//8 52//47
f 53//48 40//49 39//50
f 54//51 32//27 49//43
f 43//38 42//36 55//52
f 44//39 43//38 56//53
f 58//54 44//39 57//55
f 45//56 46//40 29//22
f 46//40 47//41 30//24
f 31//26 61//57 48//42
f 41//34 48//42 49//43
f 40//49 50//45 34//44
f 52//47 9//8 51//46
f 61//57 49//43 48//42
f 55//52 54//51 62//58
f 56//53 55//52 63//59
f 57//55 56//53 64//60
f 65//61 58//54 57//55
f 67//62 45//56 58//54
f 59//63 60//64 46//40
f 60//64 61//57 47//41
f 69//65 54//51 61//57
f 63//59 62//58 70//66
f 71//67 56//53 63//59
f 72//68 57//55 64//60
f 66//69 74//70 73//71
f 75//72 58//54 66//69
f 76//73 59//63 67//62
f 77//74 60//64 68//75
f 70//66 69//65 77//74
f 78//76 63//59 70//66
f 72//68 71//67 79//77
f 65//61 80//78 74//70
f 73//71 82//79 81//80
f 75//72 73//71 83//81
f 84//82 67//62 75//72
f 76//73 77//74 68//75
f 85//83 70//66 77//74
f 79//77 78//76 86//84
f 80//78 79//77 87//85
f 74//70 88//86 82//79
f 81//80 90//87 89//88
f 91//89 73//71 81//80
f 84//82 83//81 92//90
f 93//91 76//73 84//82
f 86//84 85//83 93//91
f 87//85 86//84 94//92
f 80//78 95//93 88//86
f 82//79 96//94 90//87
f 97//95 90//87 98//96
f 91//89 89//88 99//97
f 100//98 83//81 91//89
f 101//99 84//82 92//90
f 94//92 93//91 101//99
f 87//85 102//100 95//93
f 88//86 103//101 96//94
f 98//96 96//94 104//102
f 97//95 106//103 105//104
f 99//97 97//95 107//105
f 100//98 99//97 108//106
f 101//99 100//98 109//107
f 102//100 101//99 109//107
f 95//93 110//108 103//101
f 96//94 111//109 104//102
f 98//96 112//110 106//103
f 105//104 114//111 113//112
f 107//105 105//104 115//113
f 108//106 107//105 116//114
f 117//115 100//98 108//106
f 110//108 109//107 117//115
f 103//101 118//116 111//109
f 112//110 111//109 119//117
f 106//103 120//118 114//111
f 114//111 123//119 125//120
f 115//113 113//112 122//121
f 126//122 107//105 115//113
f 117//115 116//114 127//123
f 110//108 127//123 118//116
f 119//117 118//116 128//124
f 112//110 123//119 120//118
f 129//125 121//126 125//120
f 126//122 122//121 121//126
f 123//119 128//124 124//127
f 124//127 129//125 125//120
f 129//125 116//114 126//122
f 128//124 127//123 129//125
f 38//33 37//31 23//17
f 36//29 24//19 21//14
f 35//28 39//50 25//35
f 130//128 131//129 132//130
f 130//128 132//130 133//131
f 130//128 134//132 131//129
f 135//133 132//130 131//129
f 130//128 133//131 137//134
f 136//135 133//131 132//130
f 130//128 139//136 134//132
f 140//137 131//129 134//132
f 135//133 141//8 136//135
f 130//128 137//134 142//138
f 133//131 143//139 137//134
f 136//135 141//8 138//140
f 130//128 144//141 139//136
f 145//142 134//132 139//136
f 140//137 141//8 135//133
f 130//128 142//138 144//141
f 143//139 142//138 137//134
f 138//140 141//8 143//139
f 147//143 139//136 144//141
f 145//142 141//8 140//137
f 146//144 144//141 142//138
f 143//139 141//8 146//144
f 147//143 141//8 145//142
f 146//144 141//8 147//143
f 1//1 2//7 3//2
f 1//1 4//3 6//4
f 7//6 8//15 2//7
f 14//18 4//3 12//10
f 3//2 10//16 11//9
f 12//10 13//145 14//18
f 3//2 11//9 4//3
f 6//4 15//21 16//11
f 7//6 1//1 5//5
f 4//3 14//18 18//13
f 7//6 19//25 21//14
f 21//14 22//32 8//15
f 19//25 20//146 21//14
f 14//18 13//145 24//19
f 24//19 25//35 26//20
f 18//13 27//37 15//21
f 29//22 16//11 15//21
f 5//5 16//11 30//24
f 19//25 7//6 17//12
f 14//18 26//20 32//27
f 19//25 33//30 36//29
f 34//44 35//28 33//30
f 36//29 20//146 19//25
f 37//31 9//8 8//15
f 10//16 9//8 38//33
f 25//35 39//50 40//49
f 40//49 41//34 25//35
f 42//36 27//37 18//13
f 28//23 15//21 27//37
f 44//39 45//56 29//22
f 46//40 30//24 16//11
f 17//12 30//24 47//41
f 33//30 19//25 31//26
f 26//20 41//34 49//43
f 41//34 40//49 34//44
f 54//51 42//36 32//27
f 43//38 27//37 42//36
f 44//39 28//23 43//38
f 58//54 45//56 44//39
f 45//56 59//63 46//40
f 46//40 60//64 47//41
f 31//26 47//41 61//57
f 41//34 33//30 48//42
f 40//49 53//48 50//45
f 61//57 54//51 49//43
f 55//52 42//36 54//51
f 56//53 43//38 55//52
f 57//55 44//39 56//53
f 65//61 66//69 58//54
f 67//62 59//63 45//56
f 59//63 68//75 60//64
f 60//64 69//65 61//57
f 69//65 62//58 54//51
f 63//59 55//52 62//58
f 71//67 64//60 56//53
f 72//68 65//61 57//55
f 66//69 65//61 74//70
f 75//72 67//62 58//54
f 76//73 68//75 59//63
f 77//74 69//65 60//64
f 70//66 62//58 69//65
f 78//76 71//67 63//59
f 72//68 64//60 71//67
f 65//61 72//68 80//78
f 73//71 74//70 82//79
f 75//72 66//69 73//71
f 84//82 76//73 67//62
f 76//73 85//83 77//74
f 85//83 78//76 70//66
f 79//77 71//67 78//76
f 80//78 72//68 79//77
f 74//70 80//78 88//86
f 81//80 82//79 90//87
f 91//89 83//81 73//71
f 84//82 75//72 83//81
f 93//91 85//83 76//73
f 86//84 78//76 85//83
f 87//85 79//77 86//84
f 80//78 87//85 95//93
f 82//79 88//86 96//94
f 97//95 89//88 90//87
f 91//89 81//80 89//88
f 100//98 92//90 83//81
f 101//99 93//91 84//82
f 94//92 86//84 93//91
f 87//85 94//92 102//100
f 88//86 95//93 103//101
f 98//96 90//87 96//94
f 97//95 98//96 106//103
f 99//97 89//88 97//95
f 100//98 91//89 99//97
f 101//99 92//90 100//98
f 102//100 94//92 101//99
f 95//93 102//100 110//108
f 96//94 103//101 111//109
f 98//96 104//102 112//110
f 105//104 106//103 114//111
f 107//105 97//95 105//104
f 108//106 99//97 107//105
f 117//115 109//107 100//98
f 110//108 102//100 109//107
f 103//101 110//108 118//116
f 112//110 104//102 111//109
f 106//103 112//110 120//118
f 125//120 121//126 122//121
f 122//121 113//112 125//120
f 114//111 120//118 123//119
f 123//119 124//127 125//120
f 125//120 113//112 114//111
f 115//113 105//104 113//112
f 126//122 116//114 107//105
f 117//115 108//106 116//114
f 110//108 117//115 127//123
f 119//117 111//109 118//116
f 112//110 119//117 123//119
f 129//125 126//122 121//126
f 126//122 115//113 122//121
f 123//119 119//117 128//124
f 124//127 128//124 129//125
f 129//125 127//123 116//114
f 128//124 118//116 127//123
f 21//14 12//10 11//9
f 11//9 23//17 21//14
f 38//33 52//47 51//46
f 51//46 37//31 38//33
f 22//32 21//14 23//17
f 23//17 37//31 22//32
f 12//10 21//14 24//19
f 20//146 36//29 21//14
f 24//19 13//145 12//10
f 24//19 36//29 35//28
f 35//28 50//45 53//48
f 53//48 39//50 35//28
f 25//35 24//19 35//28
f 135//133 136//135 132//130
f 136//135 138//140 133//131
f 140//137 135//133 131//129
f 133//131 138//140 143//139
f 145//142 140//137 134//132
f 143//139 146//144 142//138
f 147//143 145//142 139//136
f 146//144 147//143 144//141
