# Blender v2.79 (sub 0) OBJ File: 'Chess Scene.blend'
# www.blender.org
mtllib ChessKnight.mtl
o Knight_Cylinder.011
v -1.210141 -0.012899 1.019362
v -0.818456 0.932712 1.019362
v -1.332542 -0.012899 0.380149
v -1.503205 -0.012899 0.000036
v -1.063865 1.047761 0.000036
v -0.943188 0.927084 0.380149
v -1.147206 -0.012899 0.461859
v -0.812135 0.796031 0.461859
v -1.422299 -0.012899 0.791116
v -1.006656 0.990551 0.791116
v 1.203732 -0.012899 1.019362
v 0.812047 0.932712 1.019362
v -0.003205 1.324397 1.019362
v 1.326133 -0.012899 0.380149
v 1.496795 -0.012900 0.000036
v 1.057455 1.047761 0.000036
v 0.936779 0.927084 0.380149
v -0.003205 1.487101 0.000036
v -0.003205 1.316438 0.380149
v 1.140796 -0.012899 0.461859
v 0.805726 0.796031 0.461859
v -0.003205 1.131101 0.461859
v 1.415889 -0.012899 0.791116
v 1.000246 0.990551 0.791116
v -0.003205 1.406194 0.791116
v -1.074887 -0.012899 1.247918
v -0.722817 0.837073 1.247918
v 1.068477 -0.012899 1.247918
v 0.716407 0.837073 1.247918
v -0.003205 1.189143 1.247918
v -0.454122 0.837073 1.867898
v 1.181104 -0.012899 1.794421
v 0.739853 0.837073 1.822290
v 0.014667 1.189143 1.944915
v -1.028028 0.550472 4.994791
v 0.024016 -0.012899 3.607954
v -0.111546 0.357102 3.873863
v -0.388627 0.586445 4.321643
v -0.402807 0.837073 2.266606
v 1.104221 -0.012899 2.266606
v 0.752151 0.451073 2.266606
v 0.032539 0.803143 2.266606
v -0.730401 0.743102 3.275544
v 0.230237 -0.012899 3.275544
v 0.000894 0.357102 3.275544
v -0.467870 0.586445 3.275544
v -0.120835 -0.012899 4.802730
v 0.425002 0.296170 4.583718
v 0.242228 -0.012899 3.577306
v 0.277099 0.274364 3.986973
v 0.348373 0.434451 4.380643
v 1.182007 -0.012899 4.377578
v 1.214298 0.208245 4.292495
v 1.027227 -0.012899 3.799448
v 1.067354 0.208245 3.929907
v 1.166373 0.315890 4.144643
v 0.676627 -0.012899 3.794958
v 0.753487 0.221668 3.938277
v 0.905831 0.267144 4.477286
v 1.107352 -0.012899 4.574728
v 0.806153 0.339959 4.248570
v -0.587085 0.586445 3.838865
v -0.190588 0.357102 3.616674
v 0.003398 -0.012899 3.554716
v -0.916695 0.743102 4.177176
v 0.071455 -0.012899 3.470959
v -0.860803 0.743102 3.906667
v -0.551318 0.529722 3.669856
v -0.133139 0.300379 3.514328
v -1.293175 0.298833 0.791116
v -1.043113 0.238403 0.461859
v -1.211586 0.279116 0.380149
v -1.088461 0.280864 1.019362
v -1.366719 0.316605 0.000036
v -1.076795 0.251153 1.247918
v -0.732875 0.251153 2.266606
v -1.096825 0.377193 5.070402
v -0.923077 0.221960 3.275544
v -0.834996 0.251153 1.878724
v 0.048734 0.083116 4.734692
v 1.192039 0.055801 4.351146
v 1.044748 0.074099 4.544456
v -1.050418 0.221960 4.261511
v -1.012213 0.221960 3.965700
v -1.076795 0.251153 1.247918
v -1.074887 -0.012899 1.247918
v -1.307681 -0.012899 4.299518
v -0.998271 -0.012899 4.976447
v -0.929875 0.251153 2.266606
v -0.917192 -0.012899 2.266606
v -0.956157 0.102045 4.929368
v -1.042209 -0.012899 1.883602
v -1.120077 0.221960 3.275544
v -1.206908 -0.012899 3.275544
v -1.277447 -0.012899 3.992304
v -1.031996 0.251153 1.878724
v -0.148266 0.083116 4.879908
v -0.300739 -0.012899 4.991629
v -1.247418 0.221960 4.261511
v -1.209213 0.221960 3.965700
v -0.483858 -0.012899 5.089940
v -0.552211 0.092581 4.904637
v 0.015233 -0.012899 3.585275
v -0.145217 0.357102 3.764301
v -1.096642 0.650503 4.873788
v -0.473170 0.586445 4.115980
v -1.164966 0.404226 4.933243
v -1.130079 -0.012899 4.688076
v -1.080234 0.153129 4.644861
v -0.772629 0.521538 4.465617
v -0.665709 0.357102 4.679686
v -0.759157 0.102045 4.784152
v -0.883234 0.153129 4.561507
v -1.210141 0.012899 1.019362
v -0.818456 -0.932712 1.019362
v -1.332542 0.012899 0.380149
v -1.503205 0.012900 0.000036
v -1.063865 -1.047761 0.000036
v -0.943189 -0.927084 0.380149
v -1.147206 0.012899 0.461859
v -0.812136 -0.796031 0.461859
v -1.422299 0.012899 0.791116
v -1.006656 -0.990551 0.791116
v 1.203732 0.012899 1.019362
v 0.812046 -0.932712 1.019362
v -0.003205 -1.324397 1.019362
v 1.326133 0.012899 0.380149
v 1.496795 0.012899 0.000036
v 1.057455 -1.047761 0.000036
v 0.936779 -0.927084 0.380149
v -0.003205 -1.487101 0.000036
v -0.003205 -1.316438 0.380149
v 1.140796 0.012899 0.461859
v 0.805726 -0.796031 0.461859
v -0.003205 -1.131101 0.461859
v 1.415889 0.012899 0.791116
v 1.000246 -0.990551 0.791116
v -0.003205 -1.406194 0.791116
v -1.074887 0.012899 1.247918
v -0.722817 -0.837073 1.247918
v 1.068477 0.012899 1.247918
v 0.716407 -0.837073 1.247918
v -0.003205 -1.189143 1.247918
v -0.454122 -0.837073 1.867898
v 1.181104 0.012899 1.794421
v 0.739853 -0.837073 1.822290
v 0.014667 -1.189143 1.944915
v -1.028028 -0.550471 4.994791
v 0.024016 0.012899 3.607954
v -0.111546 -0.357102 3.873863
v -0.388627 -0.586445 4.321643
v -0.402807 -0.837073 2.266606
v 1.104221 0.012899 2.266606
v 0.752151 -0.451073 2.266606
v 0.032539 -0.803143 2.266606
v -0.730401 -0.743102 3.275544
v 0.230237 0.012899 3.275544
v 0.000894 -0.357102 3.275544
v -0.467870 -0.586445 3.275544
v -0.120835 0.012899 4.802730
v 0.425002 -0.296170 4.583718
v 0.242228 0.012899 3.577306
v 0.277099 -0.274364 3.986973
v 0.348373 -0.434451 4.380643
v 1.182007 0.012899 4.377578
v 1.214298 -0.208245 4.292495
v 1.027227 0.012899 3.799448
v 1.067354 -0.208245 3.929907
v 1.166373 -0.315890 4.144643
v 0.676627 0.012899 3.794958
v 0.753487 -0.221668 3.938277
v 0.905831 -0.267144 4.477286
v 1.107352 0.012899 4.574728
v 0.806153 -0.339959 4.248570
v -0.587085 -0.586445 3.838865
v -0.190588 -0.357102 3.616674
v 0.003398 0.012899 3.554716
v -0.916696 -0.743102 4.177176
v 0.071455 0.012899 3.470959
v -0.860803 -0.743102 3.906667
v -0.551318 -0.529722 3.669856
v -0.133139 -0.300379 3.514328
v -1.293175 -0.298832 0.791116
v -1.043113 -0.238403 0.461859
v -1.211586 -0.279116 0.380149
v -1.088461 -0.280864 1.019362
v -1.366719 -0.316605 0.000036
v -1.076795 -0.251153 1.247918
v -0.732875 -0.251153 2.266606
v -1.096825 -0.377193 5.070402
v -0.923077 -0.221960 3.275544
v -0.834996 -0.251153 1.878724
v 0.048734 -0.083116 4.734692
v 1.192039 -0.055801 4.351146
v 1.044748 -0.074099 4.544456
v -1.050418 -0.221960 4.261511
v -1.012213 -0.221960 3.965700
v -1.076795 -0.251153 1.247918
v -1.074887 0.012899 1.247918
v -1.307681 0.012899 4.299518
v -0.998271 0.012899 4.976447
v -0.929875 -0.251153 2.266606
v -0.917192 0.012899 2.266606
v -0.956157 -0.102045 4.929368
v -1.042209 0.012899 1.883602
v -1.120077 -0.221960 3.275544
v -1.206908 0.012899 3.275544
v -1.277447 0.012899 3.992304
v -1.031996 -0.251153 1.878724
v -0.148266 -0.083116 4.879908
v -0.300739 0.012899 4.991629
v -1.247418 -0.221960 4.261511
v -1.209213 -0.221960 3.965700
v -0.483858 0.012899 5.089940
v -0.552211 -0.092581 4.904637
v 0.015233 0.012899 3.585275
v -0.145218 -0.357102 3.764301
v -1.096642 -0.650503 4.873788
v -0.473170 -0.586445 4.115980
v -1.164966 -0.404226 4.933243
v -1.130079 0.012899 4.688076
v -1.080234 -0.153129 4.644861
v -0.772629 -0.521538 4.465617
v -0.665709 -0.357102 4.679686
v -0.759157 -0.102045 4.784152
v -0.883234 -0.153129 4.561507
vn -0.5698 0.6147 0.5454
vn -0.0254 0.9492 0.3136
vn 0.0000 0.9096 0.4154
vn -0.8280 0.3241 0.4575
vn -0.6570 0.6478 0.3856
vn -0.6700 0.2775 0.6885
vn -0.6773 0.6773 0.2873
vn -0.5262 0.5262 0.6680
vn 0.0000 0.9897 -0.1427
vn -0.7290 0.6843 -0.0129
vn -0.9236 0.3825 0.0261
vn -0.6254 0.6254 -0.4667
vn 0.0000 0.7442 0.6680
vn 0.0000 0.8844 -0.4667
vn 0.0000 0.9578 0.2873
vn -0.8987 0.3722 0.2319
vn -0.7683 0.3182 -0.5553
vn 0.5698 0.6147 0.5454
vn 0.7017 0.6608 0.2662
vn 0.8943 0.4031 0.1942
vn 0.7519 0.3114 0.5810
vn 0.7112 0.2946 0.6383
vn 0.6773 0.6773 0.2873
vn 0.8903 0.3688 0.2671
vn 0.7290 0.6843 -0.0129
vn 0.9236 0.3826 0.0212
vn 0.6254 0.6254 -0.4667
vn 0.5262 0.5262 0.6680
vn 0.8304 0.3440 -0.4382
vn 0.6734 0.6986 0.2420
vn -0.6363 0.7320 0.2433
vn -0.0760 0.9104 0.4066
vn 0.8641 0.5027 0.0218
vn -0.4844 0.8480 0.2150
vn -0.4703 0.8085 0.3537
vn -0.7069 0.6944 0.1341
vn 0.6665 0.7154 -0.2097
vn 0.5008 0.6928 -0.5188
vn 0.8152 0.4904 -0.3081
vn -0.4760 0.8643 0.1626
vn -0.6558 0.7534 0.0476
vn -0.5562 0.8310 -0.0016
vn 0.3149 0.9481 -0.0441
vn 0.4601 0.8127 -0.3575
vn -0.2835 0.8647 0.4145
vn 0.1238 0.9743 0.1878
vn 0.1816 0.8504 0.4937
vn 0.6405 0.6101 0.4664
vn 0.7553 0.5731 0.3178
vn -0.5639 0.8211 -0.0884
vn -0.5845 0.8038 -0.1109
vn 0.5726 0.6615 0.4842
vn -0.3863 0.9205 0.0579
vn 0.4556 0.8447 0.2810
vn 0.6947 0.4436 0.5661
vn 0.9402 0.1850 0.2860
vn -0.4338 -0.0031 0.9010
vn -0.6980 0.2949 0.6525
vn -0.5982 0.7983 -0.0692
vn -0.6370 0.7592 0.1335
vn 0.6981 0.6360 0.3288
vn 0.8597 0.4794 0.1763
vn 0.7164 0.4132 0.5622
vn -0.3402 0.9371 -0.0784
vn 0.4204 0.8941 -0.1542
vn 0.5079 0.8614 -0.0005
vn 0.6039 0.7758 -0.1824
vn 0.2070 0.9715 0.1154
vn 0.2021 0.8193 -0.5365
vn 0.1924 0.6480 0.7369
vn 0.0761 0.8133 -0.5768
vn 0.5524 -0.2835 0.7839
vn 0.4903 0.5684 0.6606
vn 0.2266 0.6813 0.6960
vn 0.0198 0.7595 -0.6502
vn 0.4468 0.3885 -0.8059
vn 0.0816 0.6128 -0.7860
vn 0.4544 0.4892 0.7444
vn 0.9634 0.0665 0.2596
vn 0.9832 -0.0568 0.1735
vn 0.1008 0.9936 -0.0514
vn 0.5435 0.5388 -0.6436
vn 0.2646 0.7606 0.5927
vn 0.6641 0.7137 -0.2228
vn 0.1756 0.4089 0.8955
vn 0.5546 0.5970 0.5796
vn -0.3338 0.9426 0.0072
vn 0.0898 0.7689 0.6330
vn 0.0202 0.9477 0.3185
vn 0.9348 0.3039 0.1838
vn 0.3751 0.5800 0.7231
vn -0.6070 0.7900 -0.0858
vn -0.4623 0.8548 0.2358
vn -0.9855 -0.1657 0.0363
vn 0.1563 0.5795 0.7998
vn -0.4416 0.8972 -0.0003
vn -0.7112 0.2946 0.6383
vn -0.8304 0.3440 -0.4382
vn -0.8903 0.3688 0.2671
vn -0.7519 0.3114 0.5810
vn -0.9236 0.3826 0.0212
vn -0.9978 0.0046 0.0662
vn -0.7059 0.6995 0.1111
vn -0.8375 0.3704 0.4017
vn -0.2861 0.7485 0.5981
vn -0.9859 0.0246 0.1652
vn -0.9982 -0.0180 0.0568
vn -0.9604 0.2585 -0.1035
vn -0.9249 0.3323 -0.1849
vn -0.4622 0.5590 0.6884
vn -0.9412 0.2822 0.1858
vn -0.3147 -0.2366 0.9192
vn 0.0810 0.8787 0.4703
vn -0.5698 -0.6147 0.5454
vn 0.0000 -0.9096 0.4154
vn -0.0254 -0.9492 0.3136
vn -0.8280 -0.3241 0.4575
vn -0.6570 -0.6478 0.3856
vn -0.6700 -0.2775 0.6885
vn -0.5262 -0.5262 0.6680
vn -0.6773 -0.6773 0.2873
vn -0.7290 -0.6843 -0.0129
vn 0.0000 -0.9897 -0.1427
vn -0.9236 -0.3825 0.0261
vn -0.6254 -0.6254 -0.4667
vn 0.0000 -0.8844 -0.4667
vn 0.0000 -0.7442 0.6680
vn 0.0000 -0.9578 0.2873
vn -0.8987 -0.3722 0.2319
vn -0.7683 -0.3182 -0.5553
vn 0.5698 -0.6147 0.5454
vn 0.7017 -0.6608 0.2662
vn 0.7519 -0.3114 0.5810
vn 0.8943 -0.4031 0.1942
vn 0.7112 -0.2946 0.6383
vn 0.8903 -0.3688 0.2671
vn 0.6773 -0.6773 0.2873
vn 0.7290 -0.6843 -0.0129
vn 0.9236 -0.3826 0.0212
vn 0.6254 -0.6254 -0.4667
vn 0.5262 -0.5262 0.6680
vn 0.8304 -0.3440 -0.4382
vn 0.6734 -0.6986 0.2420
vn -0.0760 -0.9104 0.4066
vn -0.6363 -0.7320 0.2433
vn 0.8641 -0.5027 0.0218
vn -0.4844 -0.8480 0.2150
vn -0.7069 -0.6944 0.1341
vn -0.4703 -0.8085 0.3537
vn 0.6665 -0.7154 -0.2097
vn 0.8152 -0.4904 -0.3081
vn 0.5008 -0.6928 -0.5188
vn -0.4760 -0.8643 0.1626
vn -0.5562 -0.8310 -0.0016
vn -0.6558 -0.7534 0.0476
vn 0.3149 -0.9481 -0.0441
vn 0.4601 -0.8127 -0.3575
vn -0.2835 -0.8647 0.4145
vn 0.1238 -0.9743 0.1878
vn 0.6405 -0.6101 0.4664
vn 0.1816 -0.8504 0.4937
vn 0.7553 -0.5731 0.3178
vn -0.5639 -0.8211 -0.0884
vn -0.5845 -0.8038 -0.1109
vn 0.5726 -0.6615 0.4842
vn -0.3863 -0.9205 0.0579
vn 0.4556 -0.8447 0.2810
vn 0.6947 -0.4436 0.5661
vn -0.3718 -0.0833 0.9245
vn -0.6980 -0.2949 0.6525
vn -0.4338 0.0031 0.9010
vn -0.6370 -0.7592 0.1335
vn -0.5982 -0.7983 -0.0692
vn 0.6981 -0.6360 0.3288
vn 0.7164 -0.4132 0.5622
vn 0.8597 -0.4794 0.1763
vn -0.3402 -0.9371 -0.0784
vn 0.5079 -0.8614 -0.0005
vn 0.4204 -0.8941 -0.1542
vn 0.6039 -0.7758 -0.1824
vn 0.2021 -0.8193 -0.5365
vn 0.2070 -0.9715 0.1154
vn 0.1924 -0.6480 0.7369
vn 0.0761 -0.8133 -0.5768
vn 0.5524 0.2835 0.7839
vn 0.2266 -0.6813 0.6960
vn 0.4903 -0.5684 0.6606
vn 0.0198 -0.7595 -0.6502
vn 0.0816 -0.6128 -0.7860
vn 0.4468 -0.3885 -0.8059
vn 0.4544 -0.4892 0.7444
vn 0.9832 0.0568 0.1735
vn 0.9634 -0.0665 0.2596
vn 0.1008 -0.9936 -0.0514
vn 0.5435 -0.5388 -0.6436
vn 0.2646 -0.7606 0.5927
vn 0.6641 -0.7137 -0.2228
vn 0.1756 -0.4089 0.8955
vn 0.5546 -0.5970 0.5796
vn -0.3338 -0.9426 0.0072
vn 0.0898 -0.7689 0.6330
vn 0.0202 -0.9477 0.3185
vn 0.9348 -0.3039 0.1838
vn 0.3751 -0.5800 0.7231
vn -0.6070 -0.7900 -0.0858
vn -0.4623 -0.8548 0.2358
vn -0.9855 0.1657 0.0363
vn -0.4416 -0.8972 -0.0003
vn 0.1563 -0.5795 0.7998
vn -0.7112 -0.2946 0.6383
vn -0.8304 -0.3440 -0.4382
vn -0.8903 -0.3688 0.2671
vn -0.7519 -0.3114 0.5810
vn -0.9236 -0.3826 0.0212
vn -0.9975 -0.0045 0.0705
vn -0.7059 -0.6995 0.1111
vn -0.8375 -0.3704 0.4017
vn -0.2861 -0.7485 0.5981
vn -0.9859 -0.0246 0.1652
vn -0.9982 0.0180 0.0568
vn -0.9604 -0.2585 -0.1035
vn -0.9249 -0.3323 -0.1849
vn -0.4622 -0.5590 0.6884
vn -0.9412 -0.2822 0.1858
vn -0.3147 0.2366 0.9192
vn 0.0810 -0.8787 0.4703
usemtl White_Pieces
s 1
f 2//1 30//2 13//3
f 73//4 27//5 2//1
f 72//6 8//7 6//8
f 2//1 25//9 10//10
f 73//4 10//10 70//11
f 5//12 19//13 18//14
f 8//7 25//9 22//15
f 70//11 8//7 71//16
f 74//17 6//8 5//12
f 6//8 22//15 19//13
f 12//18 30//2 29//19
f 12//18 28//20 11//21
f 14//22 21//23 20//24
f 25//9 12//18 24//25
f 24//25 11//21 23//26
f 16//27 19//13 17//28
f 21//23 25//9 24//25
f 20//24 24//25 23//26
f 16//27 14//22 15//29
f 17//28 22//15 21//23
f 30//2 33//30 29//19
f 30//2 31//31 34//32
f 28//20 33//30 32//33
f 83//34 109//35 113//36
f 104//37 36//38 103//39
f 79//40 89//41 76//42
f 106//43 37//44 104//37
f 110//45 38//46 106//43
f 33//30 42//47 41//48
f 31//31 42//47 34//32
f 32//33 41//48 40//49
f 78//50 89//41 93//51
f 42//47 45//52 41//48
f 39//53 46//54 42//47
f 41//48 44//55 40//49
f 26//56 85//57 75//58
f 83//34 100//59 99//60
f 69//61 64//62 66//63
f 67//64 62//65 68//66
f 68//66 63//67 69//61
f 37//44 51//68 50//69
f 38//46 48//70 51//68
f 36//38 50//69 49//71
f 47//72 97//73 98//74
f 58//75 54//76 57//77
f 82//78 52//79 81//80
f 61//81 55//82 58//75
f 59//83 56//84 61//81
f 48//70 61//81 51//68
f 50//69 61//81 58//75
f 80//85 60//86 82//78
f 50//69 57//77 49//71
f 46//54 69//61 45//52
f 43//87 68//66 46//54
f 45//52 66//63 44//55
f 112//88 102//89 97//73
f 81//80 54//76 55//82
f 78//50 67//64 43//87
f 48//70 82//78 59//83
f 82//78 53//90 59//83
f 111//91 80//85 48//70
f 84//92 65//93 67//64
f 76//42 43//87 39//53
f 31//31 76//42 39//53
f 107//94 35//95 105//96
f 27//5 79//40 31//31
f 3//97 74//17 4//98
f 7//99 70//11 71//16
f 1//100 70//11 9//101
f 7//99 72//6 3//97
f 26//56 73//4 1//100
f 86//102 96//103 85//57
f 108//104 91//105 109//35
f 92//106 89//41 96//103
f 90//107 93//51 89//41
f 95//108 99//60 100//59
f 102//89 98//74 97//73
f 94//109 100//59 93//51
f 84//92 93//51 100//59
f 75//58 96//103 79//40
f 15//29 4//98 74//17
f 88//110 102//89 91//105
f 87//111 109//35 99//60
f 83//34 110//45 65//93
f 65//93 106//43 62//65
f 62//65 104//37 63//67
f 63//67 103//39 64//62
f 112//88 109//35 91//105
f 105//96 111//91 110//45
f 35//95 112//88 111//91
f 107//94 112//88 77//112
f 107//94 110//45 113//36
f 2//1 27//5 30//2
f 73//4 75//58 27//5
f 72//6 71//16 8//7
f 2//1 13//3 25//9
f 73//4 2//1 10//10
f 5//12 6//8 19//13
f 8//7 10//10 25//9
f 70//11 10//10 8//7
f 74//17 72//6 6//8
f 6//8 8//7 22//15
f 12//18 13//3 30//2
f 12//18 29//19 28//20
f 14//22 17//28 21//23
f 25//9 13//3 12//18
f 24//25 12//18 11//21
f 16//27 18//14 19//13
f 21//23 22//15 25//9
f 20//24 21//23 24//25
f 16//27 17//28 14//22
f 17//28 19//13 22//15
f 30//2 34//32 33//30
f 30//2 27//5 31//31
f 28//20 29//19 33//30
f 83//34 99//60 109//35
f 104//37 37//44 36//38
f 79//40 96//103 89//41
f 106//43 38//46 37//44
f 110//45 111//91 38//46
f 33//30 34//32 42//47
f 31//31 39//53 42//47
f 32//33 33//30 41//48
f 78//50 76//42 89//41
f 42//47 46//54 45//52
f 39//53 43//87 46//54
f 41//48 45//52 44//55
f 26//56 86//102 85//57
f 83//34 84//92 100//59
f 69//61 63//67 64//62
f 67//64 65//93 62//65
f 68//66 62//65 63//67
f 37//44 38//46 51//68
f 38//46 111//91 48//70
f 36//38 37//44 50//69
f 47//72 80//85 97//73
f 58//75 55//82 54//76
f 82//78 60//86 52//79
f 61//81 56//84 55//82
f 59//83 53//90 56//84
f 48//70 59//83 61//81
f 50//69 51//68 61//81
f 80//85 47//72 60//86
f 50//69 58//75 57//77
f 46//54 68//66 69//61
f 43//87 67//64 68//66
f 45//52 69//61 66//63
f 97//73 80//85 112//88
f 112//88 91//105 102//89
f 55//82 56//84 53//90
f 81//80 52//79 54//76
f 55//82 53//90 81//80
f 78//50 84//92 67//64
f 48//70 80//85 82//78
f 82//78 81//80 53//90
f 111//91 112//88 80//85
f 84//92 83//34 65//93
f 76//42 78//50 43//87
f 31//31 79//40 76//42
f 107//94 77//112 35//95
f 27//5 75//58 79//40
f 3//97 72//6 74//17
f 7//99 9//101 70//11
f 1//100 73//4 70//11
f 7//99 71//16 72//6
f 26//56 75//58 73//4
f 86//102 92//106 96//103
f 108//104 88//110 91//105
f 92//106 90//107 89//41
f 90//107 94//109 93//51
f 95//108 87//111 99//60
f 102//89 101//113 98//74
f 94//109 95//108 100//59
f 84//92 78//50 93//51
f 75//58 85//57 96//103
f 5//12 18//14 74//17
f 16//27 15//29 74//17
f 74//17 18//14 16//27
f 88//110 101//113 102//89
f 87//111 108//104 109//35
f 83//34 113//36 110//45
f 65//93 110//45 106//43
f 62//65 106//43 104//37
f 63//67 104//37 103//39
f 112//88 113//36 109//35
f 105//96 35//95 111//91
f 35//95 77//112 112//88
f 107//94 113//36 112//88
f 107//94 105//96 110//45
f 115//114 126//115 143//116
f 186//117 115//114 140//118
f 185//119 119//120 121//121
f 115//114 123//122 138//123
f 186//117 183//124 123//122
f 118//125 131//126 132//127
f 121//121 135//128 138//123
f 183//124 184//129 121//121
f 187//130 118//125 119//120
f 119//120 132//127 135//128
f 125//131 142//132 143//116
f 125//131 124//133 141//134
f 127//135 133//136 134//137
f 138//123 137//138 125//131
f 137//138 136//139 124//133
f 129//140 130//141 132//127
f 134//137 137//138 138//123
f 133//136 136//139 137//138
f 129//140 128//142 127//135
f 130//141 134//137 135//128
f 143//116 142//132 146//143
f 143//116 147//144 144//145
f 141//134 145//146 146//143
f 196//147 226//148 222//149
f 217//150 216//151 149//152
f 192//153 189//154 202//155
f 219//156 217//150 150//157
f 223//158 219//156 151//159
f 146//143 154//160 155//161
f 144//145 147//144 155//161
f 145//146 153//162 154//160
f 191//163 206//164 202//155
f 155//161 154//160 158//165
f 152//166 155//161 159//167
f 154//160 153//162 157//168
f 139//169 188//170 198//171
f 196//147 212//172 213//173
f 182//174 179//175 177//176
f 180//177 181//178 175//179
f 181//178 182//174 176//180
f 150//157 163//181 164//182
f 151//159 164//182 161//183
f 149//152 162//184 163//181
f 160//185 211//186 210//187
f 171//188 170//189 167//190
f 195//191 194//192 165//193
f 174//194 171//188 168//195
f 172//196 174//194 169//197
f 161//183 164//182 174//194
f 163//181 171//188 174//194
f 193//198 195//191 173//199
f 163//181 162//184 170//189
f 159//167 158//165 182//174
f 156//200 159//167 181//178
f 158//165 157//168 179//175
f 225//201 210//187 215//202
f 194//192 168//195 167//190
f 191//163 156//200 180//177
f 161//183 172//196 195//191
f 195//191 172//196 166//203
f 224//204 161//183 193//198
f 197//205 180//177 178//206
f 189//154 152//166 156//200
f 144//145 152//166 189//154
f 220//207 218//208 148//209
f 140//118 144//145 192//153
f 116//210 117//211 187//130
f 120//212 184//129 183//124
f 114//213 122//214 183//124
f 120//212 116//210 185//119
f 139//169 114//213 186//117
f 199//215 198//171 209//216
f 221//217 222//149 204//218
f 205//219 209//216 202//155
f 203//220 202//155 206//164
f 208//221 213//173 212//172
f 215//202 210//187 211//186
f 207//222 206//164 213//173
f 197//205 213//173 206//164
f 188//170 192//153 209//216
f 128//142 187//130 117//211
f 201//223 204//218 215//202
f 200//224 212//172 222//149
f 196//147 178//206 223//158
f 178//206 175//179 219//156
f 175//179 176//180 217//150
f 176//180 177//176 216//151
f 225//201 204//218 222//149
f 218//208 223//158 224//204
f 148//209 224//204 225//201
f 220//207 190//225 225//201
f 220//207 226//148 223//158
f 115//114 143//116 140//118
f 186//117 140//118 188//170
f 185//119 121//121 184//129
f 115//114 138//123 126//115
f 186//117 123//122 115//114
f 118//125 132//127 119//120
f 121//121 138//123 123//122
f 183//124 121//121 123//122
f 187//130 119//120 185//119
f 119//120 135//128 121//121
f 125//131 143//116 126//115
f 125//131 141//134 142//132
f 127//135 134//137 130//141
f 138//123 125//131 126//115
f 137//138 124//133 125//131
f 129//140 132//127 131//126
f 134//137 138//123 135//128
f 133//136 137//138 134//137
f 129//140 127//135 130//141
f 130//141 135//128 132//127
f 143//116 146//143 147//144
f 143//116 144//145 140//118
f 141//134 146//143 142//132
f 196//147 222//149 212//172
f 217//150 149//152 150//157
f 192//153 202//155 209//216
f 219//156 150//157 151//159
f 223//158 151//159 224//204
f 146//143 155//161 147//144
f 144//145 155//161 152//166
f 145//146 154//160 146//143
f 191//163 202//155 189//154
f 155//161 158//165 159//167
f 152//166 159//167 156//200
f 154//160 157//168 158//165
f 139//169 198//171 199//215
f 196//147 213//173 197//205
f 182//174 177//176 176//180
f 180//177 175//179 178//206
f 181//178 176//180 175//179
f 150//157 164//182 151//159
f 151//159 161//183 224//204
f 149//152 163//181 150//157
f 160//185 210//187 193//198
f 171//188 167//190 168//195
f 195//191 165//193 173//199
f 174//194 168//195 169//197
f 172//196 169//197 166//203
f 161//183 174//194 172//196
f 163//181 174//194 164//182
f 193//198 173//199 160//185
f 163//181 170//189 171//188
f 159//167 182//174 181//178
f 156//200 181//178 180//177
f 158//165 179//175 182//174
f 210//187 225//201 193//198
f 225//201 215//202 204//218
f 168//195 166//203 169//197
f 194//192 167//190 165//193
f 168//195 194//192 166//203
f 191//163 180//177 197//205
f 161//183 195//191 193//198
f 195//191 166//203 194//192
f 224//204 193//198 225//201
f 197//205 178//206 196//147
f 189//154 156//200 191//163
f 144//145 189//154 192//153
f 220//207 148//209 190//225
f 140//118 192//153 188//170
f 116//210 187//130 185//119
f 120//212 183//124 122//214
f 114//213 183//124 186//117
f 120//212 185//119 184//129
f 139//169 186//117 188//170
f 199//215 209//216 205//219
f 221//217 204//218 201//223
f 205//219 202//155 203//220
f 203//220 206//164 207//222
f 208//221 212//172 200//224
f 215//202 211//186 214//226
f 207//222 213//173 208//221
f 197//205 206//164 191//163
f 188//170 209//216 198//171
f 118//125 187//130 131//126
f 129//140 187//130 128//142
f 187//130 129//140 131//126
f 201//223 215//202 214//226
f 200//224 222//149 221//217
f 196//147 223//158 226//148
f 178//206 219//156 223//158
f 175//179 217//150 219//156
f 176//180 216//151 217//150
f 225//201 222//149 226//148
f 218//208 224//204 148//209
f 148//209 225//201 190//225
f 220//207 225//201 226//148
f 220//207 223//158 218//208
