# Blender v2.79 (sub 0) OBJ File: ''
# www.blender.org
mtllib ChessboardBase.mtl
o Chessboard_Surround_Plane
v -24.000000 0.000000 0.000000
v -24.000000 -23.999998 -0.500004
v -24.000000 0.000000 -0.500000
v -24.000000 0.000000 -1.000000
v -24.000000 23.999998 -0.499996
v 0.000000 -23.999998 -1.000004
v 0.000000 0.000000 -1.000000
v 24.000000 0.000000 -1.000000
v 0.000000 23.999998 -0.999996
v 0.000000 31.199997 -1.499995
v 31.199999 31.199997 -2.249995
v 0.000000 31.199997 -2.249995
v 0.000000 31.199997 -2.999995
v -31.199999 31.199997 -2.249995
v -31.199999 0.000000 -1.500000
v -31.199999 0.000000 -2.250000
v -31.199999 0.000000 -3.000000
v -31.199999 -31.199997 -2.250005
v 0.000000 -31.199997 -1.500005
v 0.000000 -31.199997 -2.250005
v 0.000000 -31.199997 -3.000005
v 31.199999 -31.199997 -2.250005
v 31.199999 0.000000 -1.500000
v 31.199999 0.000000 -2.250000
v 31.199999 0.000000 -3.000000
v 0.000000 23.999998 0.000004
v 0.000000 23.999998 -0.499996
v 24.000000 23.999998 -0.499996
v 0.000000 -23.999998 -0.000004
v 24.000000 -23.999998 -0.500004
v 0.000000 -23.999998 -0.500004
v 24.000000 0.000000 0.000000
v 24.000000 0.000000 -0.500000
v 0.000000 26.849997 0.000004
v 24.000000 23.999998 0.000004
v 26.849998 26.849997 0.000004
v 0.000000 29.699997 0.000005
v -26.849998 26.849997 0.000004
v -24.000000 23.999998 0.000004
v 26.849998 0.000000 0.000000
v 24.000000 -23.999998 -0.000004
v 26.849998 -26.849997 -0.000004
v 29.699999 0.000000 0.000000
v 0.000000 -26.849997 -0.000004
v -24.000000 -23.999998 -0.000004
v -26.849998 -26.849997 -0.000004
v 0.000000 -29.699997 -0.000005
v 0.000000 0.000000 -3.000000
v -30.836769 30.836767 -1.383056
v -30.836769 0.000000 -1.383061
v -30.836769 -30.836767 -1.383066
v -30.473541 -30.473539 -1.266127
v -30.473541 0.000000 -1.266122
v -30.473541 30.473539 -1.266117
v -30.203709 30.203707 -0.996285
v -30.203709 0.000000 -0.996290
v -30.203709 -30.203707 -0.996295
v -29.933876 -29.933874 -0.726464
v -29.933876 0.000000 -0.726459
v -29.933876 29.933874 -0.726454
v -29.816936 29.816935 -0.363224
v -29.816936 0.000000 -0.363229
v -29.816936 -29.816935 -0.363234
v -29.699999 -29.699997 -0.000005
v -29.699999 0.000000 0.000000
v -29.699999 29.699997 0.000005
v 0.000000 -30.836767 -1.383066
v 30.836769 -30.836767 -1.383066
v 30.473541 -30.473539 -1.266127
v 0.000000 -30.473539 -1.266127
v 0.000000 -30.203707 -0.996295
v 30.203709 -30.203707 -0.996295
v 29.933876 -29.933874 -0.726464
v 0.000000 -29.933874 -0.726464
v 0.000000 -29.816935 -0.363234
v 29.816936 -29.816935 -0.363234
v 29.699999 -29.699997 -0.000005
v 30.836769 0.000000 -1.383061
v 30.836769 30.836767 -1.383056
v 30.473541 30.473539 -1.266117
v 30.473541 0.000000 -1.266122
v 30.203709 0.000000 -0.996290
v 30.203709 30.203707 -0.996285
v 29.933876 29.933874 -0.726454
v 29.933876 0.000000 -0.726459
v 29.816936 0.000000 -0.363229
v 29.816936 29.816935 -0.363224
v 29.699999 29.699997 0.000005
v 0.000000 30.836767 -1.383056
v 0.000000 30.473539 -1.266117
v 0.000000 30.203707 -0.996285
v 0.000000 29.933874 -0.726454
v 0.000000 29.816935 -0.363224
v -26.849998 0.000000 0.000000
v -24.000000 -23.999998 -1.000004
v -24.000000 23.999998 -0.999996
v 24.000000 -23.999998 -1.000004
v 24.000000 23.999998 -0.999996
v 31.199999 31.199997 -1.499995
v 31.199999 31.199997 -2.999995
v -31.199999 31.199997 -2.999995
v -31.199999 31.199997 -1.499995
v -31.199999 -31.199997 -3.000005
v -31.199999 -31.199997 -1.500005
v 31.199999 -31.199997 -3.000005
v 31.199999 -31.199997 -1.500005
vt 0.287430 0.484348
vt 0.297105 0.021210
vt 0.297106 0.484348
vt 0.306781 0.484348
vt 0.297106 0.947486
vt 0.697960 0.860577
vt 0.504082 0.668269
vt 0.697960 0.668269
vt 0.697960 0.475962
vt 0.891838 0.668269
vt 0.061401 0.476700
vt 0.072596 0.012281
vt 0.072596 0.476700
vt 0.083791 0.476700
vt 0.072596 0.941118
vt 0.116705 0.474280
vt 0.127673 0.019300
vt 0.127673 0.474280
vt 0.138640 0.474280
vt 0.127673 0.929259
vt 0.030348 0.476700
vt 0.041521 0.013173
vt 0.041521 0.476700
vt 0.052694 0.476700
vt 0.041521 0.940226
vt 0.106180 0.476700
vt 0.094985 0.941118
vt 0.094986 0.476700
vt 0.083791 0.476700
vt 0.094986 0.012281
vt 0.374301 0.487550
vt 0.364602 0.951814
vt 0.364602 0.487550
vt 0.354903 0.487550
vt 0.364602 0.023285
vt 0.322719 0.494028
vt 0.332557 0.023123
vt 0.332557 0.494028
vt 0.342394 0.494028
vt 0.332557 0.964933
vt 0.374301 0.487550
vt 0.384000 0.023285
vt 0.384000 0.487550
vt 0.393699 0.487550
vt 0.384000 0.951814
vt 0.960907 0.237981
vt 0.937884 0.045673
vt 0.960907 0.022837
vt 0.983930 0.237981
vt 0.960907 0.453125
vt 0.937884 0.430288
vt 0.937884 0.237981
vt 0.744006 0.022837
vt 0.550128 0.045673
vt 0.527105 0.022837
vt 0.744006 0.000000
vt 0.744006 0.045673
vt 0.527105 0.237981
vt 0.550128 0.430289
vt 0.527105 0.453125
vt 0.504082 0.237981
vt 0.550128 0.237981
vt 0.504082 0.750000
vt 0.252041 1.000000
vt 0.252041 0.750000
vt 0.000000 0.750000
vt 0.252041 0.500000
vt 0.501148 0.002911
vt 0.504082 0.250000
vt 0.501148 0.250000
vt 0.501148 0.497090
vt 0.498214 0.494179
vt 0.498214 0.250000
vt 0.498214 0.005821
vt 0.197606 0.026546
vt 0.202167 0.487819
vt 0.197606 0.487819
vt 0.197606 0.949092
vt 0.193045 0.944971
vt 0.193045 0.487819
vt 0.193045 0.030667
vt 0.187296 0.032453
vt 0.187296 0.487819
vt 0.187296 0.943185
vt 0.181547 0.941400
vt 0.181547 0.487819
vt 0.181547 0.034239
vt 0.252041 0.500000
vt 0.252041 0.497089
vt 0.002934 0.497089
vt 0.005868 0.494179
vt 0.252041 0.494179
vt 0.230955 0.025460
vt 0.235480 0.482979
vt 0.230956 0.482979
vt 0.230956 0.940498
vt 0.226431 0.936410
vt 0.226431 0.482979
vt 0.226431 0.029548
vt 0.220729 0.031319
vt 0.220730 0.482979
vt 0.220730 0.934639
vt 0.215028 0.932868
vt 0.215028 0.482979
vt 0.215028 0.033090
vt 0.000000 0.250000
vt 0.002934 0.250000
vt 0.002934 0.002910
vt 0.005869 0.005821
vt 0.005869 0.250000
vt 0.165851 0.021779
vt 0.170436 0.485399
vt 0.165851 0.485399
vt 0.165851 0.949019
vt 0.161267 0.944877
vt 0.161267 0.485399
vt 0.161267 0.025921
vt 0.155489 0.027716
vt 0.155489 0.485399
vt 0.155489 0.943082
vt 0.149711 0.941287
vt 0.149711 0.485399
vt 0.149711 0.029511
vt 0.252041 0.000000
vt 0.252041 0.002911
vt 0.252041 0.005821
vt 0.256076 0.960480
vt 0.251473 0.495079
vt 0.256076 0.495079
vt 0.256076 0.029678
vt 0.260678 0.033836
vt 0.260678 0.495079
vt 0.260678 0.956323
vt 0.266478 0.954521
vt 0.266478 0.495079
vt 0.266478 0.035638
vt 0.272278 0.037439
vt 0.272278 0.495079
vt 0.272278 0.952719
vt 0.744006 0.453125
vt 0.744006 0.475962
vt 0.744006 0.430288
vt 0.287430 0.021210
vt 0.306781 0.021210
vt 0.306781 0.947486
vt 0.287430 0.947486
vt 0.504082 0.860577
vt 0.504082 0.475962
vt 0.891838 0.475962
vt 0.891838 0.860577
vt 0.061401 0.012281
vt 0.083790 0.012281
vt 0.083791 0.941118
vt 0.061401 0.941118
vt 0.116705 0.019300
vt 0.138640 0.019300
vt 0.138640 0.929259
vt 0.116705 0.929259
vt 0.030348 0.013173
vt 0.052694 0.013173
vt 0.052695 0.940226
vt 0.030348 0.940226
vt 0.106180 0.941118
vt 0.083791 0.941118
vt 0.106180 0.012281
vt 0.374301 0.951814
vt 0.354903 0.951814
vt 0.354903 0.023285
vt 0.374301 0.023285
vt 0.322719 0.023123
vt 0.342394 0.023123
vt 0.342394 0.964933
vt 0.322719 0.964933
vt 0.393699 0.023285
vt 0.393699 0.951814
vt 0.374301 0.951814
vt 0.983930 0.000000
vt 0.983930 0.475962
vt 0.504082 0.000000
vt 0.504082 0.475962
vt 0.504082 1.000000
vt 0.000000 1.000000
vt 0.000000 0.500000
vt 0.504082 0.500000
vt 0.504082 0.000000
vt 0.504082 0.500000
vt 0.202167 0.022425
vt 0.202167 0.953213
vt 0.000000 0.500000
vt 0.235480 0.021373
vt 0.235480 0.944585
vt 0.000000 0.000000
vt 0.170436 0.017637
vt 0.170436 0.953161
vt 0.251473 0.964638
vt 0.251473 0.025520
vn 0.7071 -0.0000 0.7071
vn 0.7071 0.7071 0.0000
vn 1.0000 0.0000 0.0000
vn 0.7071 -0.7071 0.0000
vn 0.0000 0.7071 0.7071
vn 0.0000 -0.0000 1.0000
vn -0.7071 -0.0000 0.7071
vn 0.0000 -0.7071 0.7071
vn 0.0000 0.8082 0.5889
vn 0.0000 1.0000 0.0000
vn 0.0000 0.7071 -0.7071
vn -0.7071 0.7071 0.0000
vn -0.8082 -0.0000 0.5889
vn -1.0000 -0.0000 0.0000
vn -0.7071 0.0000 -0.7071
vn -0.7071 -0.7071 0.0000
vn 0.0000 -0.8082 0.5889
vn 0.0000 -1.0000 0.0000
vn 0.0000 -0.7071 -0.7071
vn 0.8082 -0.0000 0.5889
vn 0.7071 0.0000 -0.7071
vn -0.3015 -0.3015 0.9045
vn 0.0000 0.5889 0.8082
vn 0.3015 -0.3015 0.9045
vn -0.3015 0.3015 0.9045
vn 0.5889 -0.0000 0.8082
vn 0.3015 0.3015 0.9045
vn 0.0000 -0.5889 0.8082
vn 0.0000 0.0000 -1.0000
vn -0.1570 0.1570 0.9751
vn -0.3065 -0.0000 0.9519
vn -0.1570 -0.1570 0.9751
vn -0.2273 -0.2273 0.9469
vn -0.5213 -0.0000 0.8533
vn -0.2273 0.2273 0.9469
vn -0.4082 0.4082 0.8165
vn -0.4082 -0.4082 0.8165
vn -0.5018 -0.5018 0.7045
vn -0.8533 -0.0000 0.5214
vn -0.5018 0.5018 0.7045
vn -0.6435 0.6435 0.4144
vn -0.9519 0.0000 0.3065
vn -0.6435 -0.6435 0.4144
vn -0.4804 -0.4804 0.7337
vn -0.5889 -0.0000 0.8082
vn -0.4804 0.4804 0.7337
vn 0.0000 -0.3065 0.9519
vn 0.1570 -0.1570 0.9751
vn 0.2273 -0.2273 0.9469
vn 0.0000 -0.5214 0.8533
vn 0.4082 -0.4082 0.8165
vn 0.5018 -0.5018 0.7045
vn 0.0000 -0.8533 0.5214
vn 0.0000 -0.9519 0.3064
vn 0.6435 -0.6435 0.4144
vn 0.4804 -0.4804 0.7337
vn 0.3065 -0.0000 0.9519
vn 0.1570 0.1570 0.9751
vn 0.2273 0.2273 0.9469
vn 0.5213 -0.0000 0.8533
vn 0.4082 0.4082 0.8165
vn 0.5018 0.5018 0.7045
vn 0.8533 -0.0000 0.5214
vn 0.9519 0.0000 0.3065
vn 0.6435 0.6435 0.4144
vn 0.4804 0.4804 0.7337
vn 0.0000 0.3065 0.9519
vn 0.0000 0.5214 0.8533
vn 0.0000 0.8533 0.5214
vn 0.0000 0.9519 0.3064
vn 0.5774 0.5774 0.5774
vn 0.5774 -0.5774 0.5774
vn -0.5774 0.5774 0.5774
vn -0.5774 -0.5774 0.5774
vn 0.6065 0.6065 0.5142
vn 0.5774 0.5774 -0.5774
vn -0.5774 0.5774 -0.5774
vn -0.6065 0.6065 0.5142
vn -0.5774 -0.5774 -0.5774
vn -0.6065 -0.6065 0.5142
vn 0.5774 -0.5774 -0.5774
vn 0.6065 -0.6065 0.5142
usemtl Chessboard_surround
s 1
f 1/1/1 2/2/2 3/3/3
f 2/2/2 4/4/1 3/3/3
f 4/4/1 5/5/4 3/3/3
f 5/5/4 1/1/1 3/3/3
f 4/6/1 6/7/5 7/8/6
f 6/7/5 8/9/7 7/8/6
f 8/9/7 9/10/8 7/8/6
f 9/10/8 4/6/1 7/8/6
f 10/11/9 11/12/2 12/13/10
f 11/12/2 13/14/11 12/13/10
f 13/14/11 14/15/12 12/13/10
f 14/15/12 10/11/9 12/13/10
f 15/16/13 14/17/12 16/18/14
f 14/17/12 17/19/15 16/18/14
f 17/19/15 18/20/16 16/18/14
f 18/20/16 15/16/13 16/18/14
f 19/21/17 18/22/16 20/23/18
f 18/22/16 21/24/19 20/23/18
f 21/24/19 22/25/4 20/23/18
f 22/25/4 19/21/17 20/23/18
f 23/26/20 22/27/4 24/28/3
f 22/27/4 25/29/21 24/28/3
f 25/29/21 11/30/2 24/28/3
f 11/30/2 23/26/20 24/28/3
f 26/31/8 5/32/4 27/33/18
f 5/32/4 9/34/8 27/33/18
f 9/34/8 28/35/16 27/33/18
f 28/35/16 26/31/8 27/33/18
f 29/36/5 30/37/12 31/38/10
f 30/37/12 6/39/5 31/38/10
f 6/39/5 2/40/2 31/38/10
f 2/40/2 29/36/5 31/38/10
f 32/41/7 28/42/16 33/43/14
f 28/42/16 8/44/7 33/43/14
f 8/44/7 30/45/12 33/43/14
f 30/45/12 32/41/7 33/43/14
f 34/46/6 35/47/22 36/48/6
f 36/48/6 37/49/23 34/46/6
f 37/49/23 38/50/6 34/46/6
f 34/46/6 39/51/24 26/52/8
f 40/53/6 41/54/25 42/55/6
f 42/55/6 43/56/26 40/53/6
f 43/56/26 36/48/6 40/53/6
f 40/53/6 35/47/22 32/57/7
f 44/58/6 45/59/27 46/60/6
f 46/60/6 47/61/28 44/58/6
f 47/61/28 42/55/6 44/58/6
f 44/58/6 41/54/25 29/62/5
f 17/63/15 13/64/11 48/65/29
f 13/64/11 25/66/21 48/65/29
f 25/66/21 21/67/19 48/65/29
f 21/67/19 17/63/15 48/65/29
f 49/68/30 15/69/13 50/70/31
f 15/69/13 51/71/32 50/70/31
f 50/70/31 52/72/33 53/73/34
f 50/70/31 54/74/35 49/68/30
f 55/75/36 53/76/34 56/77/7
f 53/76/34 57/78/37 56/77/7
f 56/77/7 58/79/38 59/80/39
f 56/77/7 60/81/40 55/75/36
f 61/82/41 59/80/39 62/83/42
f 59/80/39 63/84/43 62/83/42
f 62/83/42 64/85/44 65/86/45
f 62/83/42 66/87/46 61/82/41
f 51/71/32 19/88/17 67/89/47
f 19/88/17 68/90/48 67/89/47
f 67/89/47 69/91/49 70/92/50
f 67/89/47 52/72/33 51/71/32
f 57/93/37 70/94/50 71/95/8
f 70/94/50 72/96/51 71/95/8
f 71/95/8 73/97/52 74/98/53
f 71/95/8 58/99/38 57/93/37
f 63/100/43 74/98/53 75/101/54
f 74/98/53 76/102/55 75/101/54
f 75/101/54 77/103/56 47/104/28
f 75/101/54 64/105/44 63/100/43
f 68/90/48 23/106/20 78/107/57
f 23/106/20 79/108/58 78/107/57
f 78/107/57 80/109/59 81/110/60
f 78/107/57 69/91/49 68/90/48
f 72/111/51 81/112/60 82/113/1
f 81/112/60 83/114/61 82/113/1
f 82/113/1 84/115/62 85/116/63
f 82/113/1 73/117/52 72/111/51
f 76/118/55 85/116/63 86/119/64
f 85/116/63 87/120/65 86/119/64
f 86/119/64 88/121/66 43/122/26
f 86/119/64 77/123/56 76/118/55
f 79/108/58 10/124/9 89/125/67
f 10/124/9 49/68/30 89/125/67
f 89/125/67 54/74/35 90/126/68
f 89/125/67 80/109/59 79/108/58
f 83/127/61 90/128/68 91/129/5
f 90/128/68 55/130/36 91/129/5
f 91/129/5 60/131/40 92/132/69
f 91/129/5 84/133/62 83/127/61
f 87/134/65 92/132/69 93/135/70
f 92/132/69 61/136/41 93/135/70
f 93/135/70 66/137/46 37/138/23
f 93/135/70 88/139/66 87/134/65
f 94/140/6 39/51/24 38/50/6
f 38/50/6 65/141/45 94/140/6
f 65/141/45 46/60/6 94/140/6
f 94/140/6 45/59/27 1/142/1
f 1/1/1 45/143/27 2/2/2
f 2/2/2 95/144/71 4/4/1
f 4/4/1 96/145/72 5/5/4
f 5/5/4 39/146/24 1/1/1
f 4/6/1 95/147/71 6/7/5
f 6/7/5 97/148/73 8/9/7
f 8/9/7 98/149/74 9/10/8
f 9/10/8 96/150/72 4/6/1
f 10/11/9 99/151/75 11/12/2
f 11/12/2 100/152/76 13/14/11
f 13/14/11 101/153/77 14/15/12
f 14/15/12 102/154/78 10/11/9
f 15/16/13 102/155/78 14/17/12
f 14/17/12 101/156/77 17/19/15
f 17/19/15 103/157/79 18/20/16
f 18/20/16 104/158/80 15/16/13
f 19/21/17 104/159/80 18/22/16
f 18/22/16 103/160/79 21/24/19
f 21/24/19 105/161/81 22/25/4
f 22/25/4 106/162/82 19/21/17
f 23/26/20 106/163/82 22/27/4
f 22/27/4 105/164/81 25/29/21
f 25/29/21 100/152/76 11/30/2
f 11/30/2 99/165/75 23/26/20
f 26/31/8 39/166/24 5/32/4
f 5/32/4 96/167/72 9/34/8
f 9/34/8 98/168/74 28/35/16
f 28/35/16 35/169/22 26/31/8
f 29/36/5 41/170/25 30/37/12
f 30/37/12 97/171/73 6/39/5
f 6/39/5 95/172/71 2/40/2
f 2/40/2 45/173/27 29/36/5
f 32/41/7 35/169/22 28/42/16
f 28/42/16 98/174/74 8/44/7
f 8/44/7 97/175/73 30/45/12
f 30/45/12 41/176/25 32/41/7
f 34/46/6 26/52/8 35/47/22
f 36/48/6 88/177/66 37/49/23
f 37/49/23 66/178/46 38/50/6
f 34/46/6 38/50/6 39/51/24
f 40/53/6 32/57/7 41/54/25
f 42/55/6 77/179/56 43/56/26
f 43/56/26 88/177/66 36/48/6
f 40/53/6 36/48/6 35/47/22
f 44/58/6 29/62/5 45/59/27
f 46/60/6 64/180/44 47/61/28
f 47/61/28 77/179/56 42/55/6
f 44/58/6 42/55/6 41/54/25
f 17/63/15 101/181/77 13/64/11
f 13/64/11 100/182/76 25/66/21
f 25/66/21 105/183/81 21/67/19
f 21/67/19 103/184/79 17/63/15
f 49/68/30 102/185/78 15/69/13
f 15/69/13 104/186/80 51/71/32
f 50/70/31 51/71/32 52/72/33
f 50/70/31 53/73/34 54/74/35
f 55/75/36 54/187/35 53/76/34
f 53/76/34 52/188/33 57/78/37
f 56/77/7 57/78/37 58/79/38
f 56/77/7 59/80/39 60/81/40
f 61/82/41 60/81/40 59/80/39
f 59/80/39 58/79/38 63/84/43
f 62/83/42 63/84/43 64/85/44
f 62/83/42 65/86/45 66/87/46
f 51/71/32 104/186/80 19/88/17
f 19/88/17 106/189/82 68/90/48
f 67/89/47 68/90/48 69/91/49
f 67/89/47 70/92/50 52/72/33
f 57/93/37 52/190/33 70/94/50
f 70/94/50 69/191/49 72/96/51
f 71/95/8 72/96/51 73/97/52
f 71/95/8 74/98/53 58/99/38
f 63/100/43 58/99/38 74/98/53
f 74/98/53 73/97/52 76/102/55
f 75/101/54 76/102/55 77/103/56
f 75/101/54 47/104/28 64/105/44
f 68/90/48 106/189/82 23/106/20
f 23/106/20 99/192/75 79/108/58
f 78/107/57 79/108/58 80/109/59
f 78/107/57 81/110/60 69/91/49
f 72/111/51 69/193/49 81/112/60
f 81/112/60 80/194/59 83/114/61
f 82/113/1 83/114/61 84/115/62
f 82/113/1 85/116/63 73/117/52
f 76/118/55 73/117/52 85/116/63
f 85/116/63 84/115/62 87/120/65
f 86/119/64 87/120/65 88/121/66
f 86/119/64 43/122/26 77/123/56
f 79/108/58 99/192/75 10/124/9
f 10/124/9 102/185/78 49/68/30
f 89/125/67 49/68/30 54/74/35
f 89/125/67 90/126/68 80/109/59
f 83/127/61 80/195/59 90/128/68
f 90/128/68 54/196/35 55/130/36
f 91/129/5 55/130/36 60/131/40
f 91/129/5 92/132/69 84/133/62
f 87/134/65 84/133/62 92/132/69
f 92/132/69 60/131/40 61/136/41
f 93/135/70 61/136/41 66/137/46
f 93/135/70 37/138/23 88/139/66
f 94/140/6 1/142/1 39/51/24
f 38/50/6 66/178/46 65/141/45
f 65/141/45 64/180/44 46/60/6
f 94/140/6 46/60/6 45/59/27
