# Blender v2.79 (sub 0) OBJ File: 'Chess Scene.blend'
# www.blender.org
mtllib ChessKing.mtl
o King.001_Cylinder.029
v 0.173112 1.021350 6.064275
v 0.248949 1.097184 6.007398
v -0.409729 1.370019 6.007398
v -0.409730 1.262771 6.064275
v -0.409730 1.764739 7.481133
v 0.528057 1.376295 7.481133
v 0.414532 0.438508 6.064275
v 0.521781 0.438508 6.007398
v 0.289789 1.138025 5.870085
v -0.409729 1.427776 5.870085
v -1.068407 1.097186 6.007398
v -0.992572 1.021350 6.064275
v 0.916501 0.438508 7.481133
v -1.347517 1.376295 7.481133
v -0.251973 0.596266 7.730866
v -0.409730 0.661611 7.730866
v 0.173111 -0.144334 6.064275
v 0.248947 -0.220170 6.007398
v 0.579538 0.438508 5.870085
v 0.614096 1.462331 5.632906
v -0.409728 1.886414 5.632906
v -1.109247 1.138027 5.870085
v -1.341241 0.438509 6.007398
v -1.233993 0.438508 6.064275
v 0.528056 -0.499280 7.481133
v -0.186627 0.438508 7.730866
v -1.735961 0.438508 7.481133
v -0.567488 0.596266 7.730866
v -0.409731 -0.385755 6.064275
v -0.409730 -0.493003 6.007398
v 0.289788 -0.261010 5.870085
v 1.038176 0.438508 5.632906
v 0.133197 0.981433 5.411032
v -0.409729 1.206322 5.411032
v -1.433554 1.462333 5.632906
v -1.398998 0.438509 5.870085
v -1.068408 -0.220169 6.007398
v -0.992572 -0.144334 6.064275
v -0.409731 -0.887723 7.481133
v -0.251973 0.280750 7.730866
v -1.347518 -0.499279 7.481133
v -0.632834 0.438508 7.730866
v -0.409730 -0.550760 5.870085
v 0.614094 -0.585317 5.632906
v 0.358084 0.438508 5.411032
v 0.385185 1.233421 1.958073
v -0.409729 1.562686 1.958073
v -0.952656 0.981435 5.411032
v -1.857636 0.438509 5.632906
v -1.109248 -0.261010 5.870085
v -0.409730 0.215405 7.730866
v -0.567488 0.280750 7.730866
v -0.409730 -1.009398 5.632906
v 0.133196 -0.104419 5.411032
v 0.714448 0.438508 1.958073
v -0.409728 1.825898 1.866160
v 0.571304 1.419539 1.866160
v -1.204644 1.233423 1.958073
v -1.177544 0.438508 5.411032
v -1.433555 -0.585316 5.632906
v -0.409730 -0.329306 5.411032
v 0.385184 -0.356407 1.958073
v 0.977660 0.438508 1.866160
v -0.409728 1.982008 1.600718
v 0.681691 1.529926 1.600718
v -1.390762 1.419542 1.866160
v -1.533908 0.438509 1.958073
v -0.952657 -0.104419 5.411032
v -0.409730 -0.685670 1.958073
v 0.571302 -0.542525 1.866160
v 1.133770 0.438508 1.600718
v -0.409728 2.567149 1.194015
v 1.095448 1.943682 1.194015
v -1.501149 1.529928 1.600718
v -1.797120 0.438509 1.866160
v -1.204645 -0.356406 1.958073
v -0.409730 -0.948882 1.866160
v 0.681689 -0.652912 1.600718
v 1.718910 0.438508 1.194015
v -0.409728 2.154509 0.697051
v 0.803668 1.651902 0.697051
v -1.914905 1.943686 1.194015
v -1.953230 0.438509 1.600718
v -1.390764 -0.542525 1.866160
v -0.409730 -1.104992 1.600718
v 1.095446 -1.066668 1.194015
v 1.306271 0.438508 0.697051
v -0.409728 2.432514 0.573722
v 1.000247 1.848482 0.573722
v -1.623125 1.651905 0.697051
v -2.538371 0.438509 1.194015
v -1.501150 -0.652911 1.600718
v -0.409731 -1.690132 1.194015
v 0.803666 -0.774888 0.697051
v 1.584276 0.438508 0.573722
v -0.409728 2.688508 -0.000000
v 1.181262 2.029496 -0.000000
v -1.819705 1.848485 0.573722
v -2.125731 0.438509 0.697051
v -1.914907 -1.066668 1.194015
v -0.409731 -1.277493 0.697051
v 1.000245 -0.971468 0.573722
v 1.840270 0.438508 -0.000000
v -2.659730 0.438509 -0.000000
v -2.000720 2.029500 -0.000000
v 1.181259 -1.152483 -0.000000
v -0.409731 -1.811492 -0.000000
v -2.000721 -1.152482 -0.000000
v -2.403737 0.438509 0.573722
v -1.623127 -0.774888 0.697051
v -0.409731 -1.555499 0.573722
v -1.819706 -0.971467 0.573722
v -0.409730 0.674356 7.733693
v -0.409730 0.772047 7.860001
v -0.173883 0.674356 7.860001
v -0.242961 0.605277 7.733693
v -0.576500 0.605278 7.733693
v -0.645578 0.674356 7.860001
v -0.409730 0.647563 8.660108
v -0.261906 0.586332 8.660108
v -0.076191 0.438508 7.860001
v -0.173883 0.438508 7.733693
v -0.645578 0.438508 7.733693
v -0.743269 0.438508 7.860001
v -0.557555 0.586332 8.660108
v -0.409730 0.438508 8.814966
v -0.200675 0.438508 8.660108
v -0.173883 0.202660 7.860001
v -0.242961 0.271738 7.733693
v -0.576500 0.271739 7.733693
v -0.645578 0.202660 7.860001
v -0.618786 0.438508 8.660108
v -0.261906 0.290684 8.660108
v -0.409731 0.104969 7.860001
v -0.409730 0.202660 7.733693
v -0.557555 0.290684 8.660108
v -0.409730 0.229453 8.660108
v -0.409730 0.640572 7.963639
v -0.266850 0.581389 7.963639
v -0.552611 0.581389 7.963639
v -0.207666 0.438508 7.963639
v -0.552611 0.295627 7.963639
v -0.611794 0.438508 7.963639
v -0.266850 0.295627 7.963639
v -0.409730 0.236444 7.963639
v -0.409730 0.642189 8.204697
v -0.409730 0.643587 8.263991
v -0.409730 0.644985 8.403285
v -0.409730 0.646384 8.461561
v -0.553754 0.582532 8.124698
v -0.554743 0.583521 8.263991
v -0.555732 0.584509 8.403285
v -0.556721 0.585498 8.542579
v -0.553755 0.294484 8.204697
v -0.554743 0.293495 8.263991
v -0.555732 0.292507 8.403285
v -0.556721 0.291518 8.461561
v -0.265706 0.294484 8.124698
v -0.264718 0.293495 8.263991
v -0.263729 0.292506 8.403285
v -0.262740 0.291518 8.542579
v -0.262740 0.585498 8.461562
v -0.263729 0.584509 8.403285
v -0.264718 0.583521 8.263991
v -0.265706 0.582532 8.204698
v -0.201855 0.438508 8.542580
v -0.203253 0.438508 8.403285
v -0.204651 0.438508 8.263991
v -0.206050 0.438508 8.124698
v -0.617606 0.438508 8.542580
v -0.616208 0.438508 8.403285
v -0.614809 0.438508 8.263991
v -0.613411 0.438508 8.124698
v -0.409730 0.230632 8.461562
v -0.409730 0.232031 8.403285
v -0.409730 0.233429 8.263991
v -0.409730 0.234827 8.204698
v -0.334012 0.824990 8.122850
v -0.334012 0.826388 8.262145
v -0.334012 0.827786 8.401438
v -0.334012 0.829184 8.540731
v -0.629473 0.111683 8.122850
v -0.630462 0.110694 8.262145
v -0.631451 0.109706 8.401438
v -0.632439 0.108717 8.540731
v -0.187022 0.768299 8.540732
v -0.188010 0.767310 8.401438
v -0.188999 0.766322 8.262145
v -0.189988 0.765333 8.122851
v -0.485449 0.047832 8.540732
v -0.485449 0.049230 8.401438
v -0.485449 0.050628 8.262145
v -0.485449 0.052026 8.122851
v -0.204593 0.643645 8.044168
v -0.119623 0.438508 8.044168
v -0.699838 0.438508 8.044168
v -0.409730 0.148400 8.044168
v -0.409730 0.728616 8.044168
v -0.614867 0.643645 8.044168
v -0.614867 0.233371 8.044168
v -0.204593 0.233371 8.044168
v -0.409730 0.720443 8.638739
v -0.609089 0.637866 8.638739
v -0.609089 0.239150 8.638739
v -0.210372 0.239150 8.638739
v -0.210372 0.637866 8.638739
v -0.127795 0.438508 8.638739
v -0.691666 0.438508 8.638739
v -0.409730 0.156573 8.638739
vn 0.6381 0.6381 0.4309
vn 0.0000 0.7715 0.6362
vn 0.0000 0.9024 0.4309
vn 0.6420 0.6420 0.4191
vn 0.9024 0.0000 0.4309
vn 0.5455 0.5455 0.6362
vn 0.4883 0.4883 0.7232
vn -0.5455 0.5455 0.6362
vn -0.6381 0.6381 0.4309
vn 0.9079 0.0000 0.4191
vn -0.6420 0.6420 0.4191
vn 0.0000 0.9079 0.4191
vn -0.0000 1.0000 -0.0030
vn 0.7071 0.7071 -0.0030
vn 0.5455 -0.5455 0.6362
vn 0.6381 -0.6381 0.4308
vn 0.6906 0.0000 0.7232
vn 0.7715 0.0000 0.6362
vn 0.7055 0.7055 -0.0672
vn 0.0000 0.6906 0.7232
vn -0.4883 0.4883 0.7232
vn -0.7715 0.0000 0.6362
vn -0.9024 0.0000 0.4308
vn 0.6420 -0.6420 0.4191
vn 1.0000 0.0000 -0.0029
vn -0.7071 0.7071 -0.0030
vn 0.0000 -0.7715 0.6362
vn 0.0000 -0.9024 0.4309
vn 0.4883 -0.4883 0.7232
vn 0.9977 0.0000 -0.0672
vn 0.0000 0.7778 -0.6285
vn 0.5500 0.5500 -0.6285
vn 0.0000 0.9977 -0.0672
vn -0.6906 0.0000 0.7232
vn -0.6381 -0.6381 0.4309
vn 0.0000 -0.9079 0.4191
vn 0.7071 -0.7071 -0.0030
vn -0.9079 0.0000 0.4191
vn -1.0000 0.0000 -0.0030
vn -0.5455 -0.5455 0.6362
vn 0.0000 -0.6906 0.7232
vn 0.7055 -0.7055 -0.0672
vn 0.7778 0.0000 -0.6285
vn 0.5101 0.5101 0.6925
vn -0.5500 0.5500 -0.6285
vn -0.7055 0.7055 -0.0672
vn -0.4883 -0.4883 0.7232
vn -0.6420 -0.6420 0.4191
vn 0.0000 -1.0000 -0.0030
vn -0.7071 -0.7071 -0.0030
vn 0.0000 -0.9977 -0.0672
vn 0.5500 -0.5500 -0.6285
vn 0.7214 0.0000 0.6925
vn 0.0000 0.7214 0.6925
vn 0.4811 0.4811 0.7328
vn 0.0000 0.6804 0.7328
vn -0.5101 0.5101 0.6925
vn -0.7778 0.0000 -0.6285
vn -0.7055 -0.7055 -0.0672
vn -0.9977 0.0000 -0.0672
vn 0.0000 -0.7778 -0.6285
vn 0.5101 -0.5101 0.6925
vn 0.6804 0.0000 0.7328
vn 0.4999 0.4999 0.7072
vn 0.0000 0.7070 0.7072
vn -0.4811 0.4811 0.7328
vn -0.7214 0.0000 0.6925
vn -0.5500 -0.5500 -0.6285
vn 0.0000 -0.7214 0.6925
vn 0.4811 -0.4811 0.7328
vn 0.7070 0.0000 0.7072
vn 0.7024 0.7024 0.1157
vn 0.0000 0.9933 0.1157
vn -0.4999 0.4999 0.7072
vn -0.6804 0.0000 0.7328
vn -0.5101 -0.5101 0.6925
vn 0.0000 -0.6804 0.7328
vn 0.4999 -0.4999 0.7072
vn 0.9933 0.0000 0.1157
vn 0.0000 0.9577 0.2876
vn 0.6772 0.6772 0.2876
vn -0.7024 0.7024 0.1157
vn -0.7070 0.0000 0.7072
vn -0.4811 -0.4811 0.7328
vn 0.0000 -0.7070 0.7072
vn 0.7024 -0.7024 0.1157
vn 0.9577 0.0000 0.2876
vn 0.5272 0.5272 0.6663
vn 0.0000 0.7456 0.6663
vn -0.6772 0.6772 0.2876
vn -0.9933 0.0000 0.1157
vn -0.4999 -0.4999 0.7072
vn 0.0000 -0.9933 0.1157
vn 0.6772 -0.6772 0.2876
vn 0.7456 0.0000 0.6663
vn 0.6250 0.6250 -0.4676
vn 0.0000 0.8839 -0.4676
vn -0.5272 0.5272 0.6663
vn -0.9577 0.0000 0.2876
vn -0.7024 -0.7024 0.1157
vn 0.0000 -0.9577 0.2876
vn 0.5272 -0.5272 0.6663
vn 0.8839 0.0000 -0.4676
vn 0.6250 -0.6250 -0.4676
vn -0.6250 -0.6250 -0.4676
vn -0.6250 0.6250 -0.4676
vn -0.7456 0.0000 0.6663
vn -0.6772 -0.6772 0.2876
vn 0.0000 -0.7456 0.6663
vn -0.5272 -0.5272 0.6663
vn -0.8839 0.0000 -0.4676
vn 0.0000 -0.8839 -0.4676
vn 0.0000 0.5907 -0.8069
vn 0.7031 0.7031 0.1054
vn 0.4176 0.4176 -0.8069
vn -0.7031 0.7031 0.1054
vn -0.4176 0.4176 -0.8069
vn 0.0000 0.4089 0.9126
vn 0.6864 0.6346 0.3551
vn -0.0366 0.9341 0.3551
vn 0.5907 0.0000 -0.8069
vn -0.9944 0.0000 0.1055
vn -0.5907 0.0000 -0.8069
vn -0.6822 0.6822 0.2628
vn 0.0000 0.0000 1.0000
vn 0.2891 0.2891 0.9126
vn 0.4089 0.0000 0.9126
vn 0.9648 0.0000 0.2628
vn 0.7031 -0.7031 0.1054
vn 0.4176 -0.4176 -0.8069
vn -0.7031 -0.7031 0.1054
vn -0.4176 -0.4176 -0.8069
vn -0.4089 0.0000 0.9126
vn -0.9648 0.0000 0.2628
vn -0.2891 0.2891 0.9126
vn 0.6822 -0.6822 0.2628
vn 0.0000 -0.5907 -0.8069
vn 0.0000 -0.9944 0.1054
vn -0.2891 -0.2891 0.9126
vn -0.6864 -0.6346 0.3551
vn 0.2891 -0.2891 0.9126
vn 0.0366 -0.9341 0.3551
vn 0.0000 -0.4089 0.9126
vn 0.0000 -0.9989 0.0460
vn 0.7064 -0.7064 0.0460
vn -0.7064 -0.7064 0.0460
vn 0.9989 0.0000 0.0460
vn 0.9944 0.0000 0.1054
vn -0.9989 0.0000 0.0460
vn 0.0000 0.9989 0.0460
vn 0.0000 0.9944 0.1054
vn 0.0362 -0.9918 -0.1224
vn -0.9766 -0.2120 -0.0345
vn -0.7270 -0.6757 -0.1224
vn -0.9239 -0.3823 -0.0096
vn -0.9999 0.0012 -0.0118
vn 0.5406 -0.8405 -0.0345
vn 0.3830 -0.9237 -0.0096
vn 0.3412 -0.6364 -0.6918
vn -0.5406 0.8405 -0.0345
vn -0.3830 0.9237 -0.0096
vn -0.3412 0.6364 -0.6918
vn 0.6591 -0.6159 0.4316
vn 0.7071 -0.7071 -0.0039
vn 0.7064 -0.7077 -0.0108
vn 0.7062 -0.7078 -0.0120
vn 0.7079 -0.7062 -0.0118
vn 0.7077 -0.7064 -0.0108
vn 0.5287 -0.8461 0.0675
vn -0.9015 0.0305 0.4316
vn -1.0000 0.0000 -0.0039
vn -0.9999 -0.0009 -0.0108
vn -0.9999 -0.0011 -0.0120
vn -0.9721 -0.2244 0.0675
vn -0.9999 0.0009 -0.0108
vn 1.0000 0.0000 -0.0039
vn 0.9015 -0.0305 0.4316
vn 0.9999 -0.0009 -0.0108
vn 0.9999 0.0009 -0.0108
vn 0.6813 -0.6427 -0.3503
vn -0.6591 0.6159 0.4316
vn -0.7071 0.7071 -0.0039
vn -0.7064 0.7077 -0.0108
vn -0.6813 0.6427 -0.3503
vn -0.7077 0.7064 -0.0108
vn 0.7270 0.6757 -0.1224
vn 0.9766 0.2120 -0.0345
vn 0.9999 0.0011 -0.0120
vn 0.9999 -0.0012 -0.0118
vn 0.9721 0.2244 0.0675
vn -0.0362 0.9918 -0.1224
vn -0.7079 0.7062 -0.0118
vn -0.5287 0.8461 0.0675
vn -0.7062 0.7078 -0.0120
vn 0.6912 0.2087 -0.6918
vn 0.3824 -0.9239 -0.0096
vn -0.6912 -0.2087 -0.6918
vn -0.6970 -0.2176 0.6833
vn -0.9237 -0.3829 -0.0096
vn -0.3824 0.9239 -0.0096
vn 0.9239 0.3823 -0.0096
vn -0.3390 0.6467 0.6833
vn 0.9237 0.3829 -0.0096
vn 0.6969 0.2176 0.6833
vn 0.3390 -0.6467 0.6833
vn 0.7064 0.7064 0.0460
vn -0.7064 0.7064 0.0460
vn -0.9362 0.0273 -0.3503
vn 0.9362 -0.0273 -0.3503
usemtl Black_Pieces
s 1
f 1//1 3//2 4//3
f 4//3 6//4 1//1
f 7//5 2//6 1//1
f 9//7 3//2 2//6
f 4//3 11//8 12//9
f 1//1 13//10 7//5
f 4//3 14//11 5//12
f 6//4 16//13 15//14
f 18//15 7//5 17//16
f 19//17 2//6 8//18
f 20//19 10//20 9//7
f 22//21 3//2 10//20
f 12//9 23//22 24//23
f 17//16 13//10 25//24
f 13//10 15//14 26//25
f 24//23 14//11 12//9
f 16//13 14//11 28//26
f 30//27 17//16 29//28
f 19//17 18//15 31//29
f 32//30 9//7 19//17
f 34//31 20//19 33//32
f 21//33 22//21 10//20
f 36//34 11//8 22//21
f 23//22 38//35 24//23
f 17//16 39//36 29//28
f 40//37 13//10 26//25
f 38//35 27//38 24//23
f 14//11 42//39 28//26
f 37//40 29//28 38//35
f 31//29 30//27 43//41
f 32//30 31//29 44//42
f 33//32 32//30 45//43
f 46//44 34//31 33//32
f 48//45 21//33 34//31
f 35//46 36//34 22//21
f 50//47 23//22 36//34
f 29//28 41//48 38//35
f 39//36 40//37 51//49
f 27//38 52//50 42//39
f 43//41 37//40 50//47
f 44//42 43//41 53//51
f 45//43 44//42 54//52
f 46//44 45//43 55//53
f 47//54 57//55 56//56
f 58//57 34//31 47//54
f 59//58 35//46 48//45
f 60//59 36//34 49//60
f 41//48 51//49 52//50
f 53//51 50//47 60//59
f 61//61 44//42 53//51
f 55//53 54//52 62//62
f 57//55 55//53 63//63
f 56//56 65//64 64//65
f 58//57 56//56 66//66
f 67//67 48//45 58//57
f 59//58 60//59 49//60
f 68//68 53//51 60//59
f 62//62 61//61 69//69
f 63//63 62//62 70//70
f 57//55 71//71 65//64
f 64//65 73//72 72//73
f 66//66 64//65 74//74
f 67//67 66//66 75//75
f 76//76 59//58 67//67
f 69//69 68//68 76//76
f 70//70 69//69 77//77
f 63//63 78//78 71//71
f 65//64 79//79 73//72
f 80//80 73//72 81//81
f 74//74 72//73 82//82
f 75//75 74//74 83//83
f 84//84 67//67 75//75
f 77//77 76//76 84//84
f 70//70 85//85 78//78
f 71//71 86//86 79//79
f 73//72 87//87 81//81
f 80//80 89//88 88//89
f 82//82 80//80 90//90
f 91//91 74//74 82//82
f 84//84 83//83 92//92
f 85//85 84//84 92//92
f 78//78 93//93 86//86
f 79//79 94//94 87//87
f 81//81 95//95 89//88
f 88//89 97//96 96//97
f 90//90 88//89 98//98
f 91//91 90//90 99//99
f 100//100 83//83 91//91
f 93//93 92//92 100//100
f 86//86 101//101 94//94
f 95//95 94//94 102//102
f 89//88 103//103 97//96
f 97//96 106//104 108//105
f 98//98 96//97 105//106
f 109//107 90//90 98//98
f 100//100 99//99 110//108
f 93//93 110//108 101//101
f 102//102 101//101 111//109
f 95//95 106//104 103//103
f 112//110 104//111 108//105
f 104//111 98//98 105//106
f 106//104 111//109 107//112
f 107//112 112//110 108//105
f 112//110 99//99 109//107
f 101//101 112//110 111//109
f 113//113 115//114 116//115
f 16//13 116//115 15//14
f 118//116 113//113 117//117
f 119//118 206//119 202//120
f 115//114 122//121 116//115
f 28//26 113//113 16//13
f 15//14 122//121 26//25
f 124//122 117//117 123//123
f 203//124 119//118 202//120
f 119//118 126//125 120//126
f 206//119 127//127 207//128
f 122//121 128//129 129//130
f 123//123 28//26 42//39
f 26//25 129//130 40//37
f 131//131 123//123 130//132
f 132//133 203//124 208//134
f 125//135 126//125 119//118
f 120//126 126//125 127//127
f 127//127 205//136 207//128
f 128//129 135//137 129//130
f 130//132 42//39 52//50
f 129//130 51//49 40//37
f 134//138 130//132 135//137
f 136//139 208//134 204//140
f 132//133 126//125 125//135
f 127//127 126//125 133//141
f 133//141 209//142 205//136
f 135//137 52//50 51//49
f 137//143 204//140 209//142
f 136//139 126//125 132//133
f 133//141 126//125 137//143
f 137//143 126//125 136//139
f 145//144 131//131 134//138
f 144//145 134//138 128//129
f 142//146 124//122 131//131
f 141//147 128//129 121//148
f 143//149 118//116 124//122
f 115//114 141//147 121//148
f 118//116 138//150 114//151
f 138//150 115//114 114//151
f 197//152 154//153 200//154
f 154//153 183//155 155//156
f 177//157 192//158 193//159
f 146//160 179//161 178//162
f 158//163 197//152 201//164
f 159//165 177//157 158//163
f 159//165 175//166 176//167
f 160//168 174//169 175//166
f 200//154 173//170 196//171
f 154//153 172//172 173//170
f 156//173 172//172 155//156
f 157//174 171//175 156//173
f 195//176 158//163 201//164
f 169//177 159//165 158//163
f 167//178 159//165 168//179
f 167//178 161//180 160//168
f 196//171 150//181 199//182
f 173//170 151//183 150//181
f 171//175 151//183 172//172
f 171//175 153//184 152//185
f 194//186 169//177 195//176
f 165//187 168//179 169//177
f 163//188 168//179 164//189
f 162//190 167//178 163//188
f 150//181 198//191 199//182
f 151//183 146//160 150//181
f 152//185 147//192 151//183
f 152//185 149//193 148//194
f 146//160 194//186 198//191
f 146//160 189//195 165//187
f 175//166 192//158 176//167
f 174//169 191//196 175//166
f 193//159 183//155 182//197
f 191//196 183//155 192//158
f 191//196 185//198 184//199
f 179//161 189//195 178//162
f 180//200 188//201 179//161
f 181//202 187//203 180//200
f 148//194 179//161 147//192
f 162//190 187//203 186//204
f 154//153 193//159 182//197
f 156//173 183//155 184//199
f 149//193 180//200 148//194
f 163//188 188//201 187//203
f 157//174 184//199 185//198
f 162//190 181//202 149//193
f 165//187 188//201 164//189
f 174//169 185//198 190//205
f 138//150 194//186 139//206
f 199//182 138//150 140//207
f 194//186 141//147 139//206
f 196//171 140//207 143//149
f 195//176 144//145 141//147
f 142//146 196//171 143//149
f 201//164 145//144 144//145
f 197//152 142//146 145//144
f 174//169 204//140 157//174
f 161//180 209//142 174//169
f 204//140 170//208 157//174
f 166//209 205//136 161//180
f 170//208 203//124 153//184
f 206//119 166//209 162//190
f 153//184 202//120 149//193
f 202//120 162//190 149//193
f 1//1 2//6 3//2
f 4//3 5//12 6//4
f 7//5 8//18 2//6
f 9//7 10//20 3//2
f 4//3 3//2 11//8
f 1//1 6//4 13//10
f 4//3 12//9 14//11
f 6//4 5//12 16//13
f 18//15 8//18 7//5
f 19//17 9//7 2//6
f 20//19 21//33 10//20
f 22//21 11//8 3//2
f 12//9 11//8 23//22
f 17//16 7//5 13//10
f 13//10 6//4 15//14
f 24//23 27//38 14//11
f 16//13 5//12 14//11
f 30//27 18//15 17//16
f 19//17 8//18 18//15
f 32//30 20//19 9//7
f 34//31 21//33 20//19
f 21//33 35//46 22//21
f 36//34 23//22 11//8
f 23//22 37//40 38//35
f 17//16 25//24 39//36
f 40//37 25//24 13//10
f 38//35 41//48 27//38
f 14//11 27//38 42//39
f 37//40 30//27 29//28
f 31//29 18//15 30//27
f 32//30 19//17 31//29
f 33//32 20//19 32//30
f 46//44 47//54 34//31
f 48//45 35//46 21//33
f 35//46 49//60 36//34
f 50//47 37//40 23//22
f 29//28 39//36 41//48
f 39//36 25//24 40//37
f 27//38 41//48 52//50
f 43//41 30//27 37//40
f 44//42 31//29 43//41
f 45//43 32//30 44//42
f 46//44 33//32 45//43
f 47//54 46//44 57//55
f 58//57 48//45 34//31
f 59//58 49//60 35//46
f 60//59 50//47 36//34
f 41//48 39//36 51//49
f 53//51 43//41 50//47
f 61//61 54//52 44//42
f 55//53 45//43 54//52
f 57//55 46//44 55//53
f 56//56 57//55 65//64
f 58//57 47//54 56//56
f 67//67 59//58 48//45
f 59//58 68//68 60//59
f 68//68 61//61 53//51
f 62//62 54//52 61//61
f 63//63 55//53 62//62
f 57//55 63//63 71//71
f 64//65 65//64 73//72
f 66//66 56//56 64//65
f 67//67 58//57 66//66
f 76//76 68//68 59//58
f 69//69 61//61 68//68
f 70//70 62//62 69//69
f 63//63 70//70 78//78
f 65//64 71//71 79//79
f 80//80 72//73 73//72
f 74//74 64//65 72//73
f 75//75 66//66 74//74
f 84//84 76//76 67//67
f 77//77 69//69 76//76
f 70//70 77//77 85//85
f 71//71 78//78 86//86
f 73//72 79//79 87//87
f 80//80 81//81 89//88
f 82//82 72//73 80//80
f 91//91 83//83 74//74
f 84//84 75//75 83//83
f 85//85 77//77 84//84
f 78//78 85//85 93//93
f 79//79 86//86 94//94
f 81//81 87//87 95//95
f 88//89 89//88 97//96
f 90//90 80//80 88//89
f 91//91 82//82 90//90
f 100//100 92//92 83//83
f 93//93 85//85 92//92
f 86//86 93//93 101//101
f 95//95 87//87 94//94
f 89//88 95//95 103//103
f 108//105 104//111 105//106
f 105//106 96//97 108//105
f 97//96 103//103 106//104
f 106//104 107//112 108//105
f 108//105 96//97 97//96
f 98//98 88//89 96//97
f 109//107 99//99 90//90
f 100//100 91//91 99//99
f 93//93 100//100 110//108
f 102//102 94//94 101//101
f 95//95 102//102 106//104
f 112//110 109//107 104//111
f 104//111 109//107 98//98
f 106//104 102//102 111//109
f 107//112 111//109 112//110
f 112//110 110//108 99//99
f 101//101 110//108 112//110
f 113//113 114//151 115//114
f 16//13 113//113 116//115
f 118//116 114//151 113//113
f 119//118 120//126 206//119
f 115//114 121//148 122//121
f 28//26 117//117 113//113
f 15//14 116//115 122//121
f 124//122 118//116 117//117
f 203//124 125//135 119//118
f 206//119 120//126 127//127
f 122//121 121//148 128//129
f 123//123 117//117 28//26
f 26//25 122//121 129//130
f 131//131 124//122 123//123
f 132//133 125//135 203//124
f 127//127 133//141 205//136
f 128//129 134//138 135//137
f 130//132 123//123 42//39
f 129//130 135//137 51//49
f 134//138 131//131 130//132
f 136//139 132//133 208//134
f 133//141 137//143 209//142
f 135//137 130//132 52//50
f 137//143 136//139 204//140
f 145//144 142//146 131//131
f 144//145 145//144 134//138
f 142//146 143//149 124//122
f 141//147 144//145 128//129
f 143//149 140//207 118//116
f 115//114 139//206 141//147
f 118//116 140//207 138//150
f 138//150 139//206 115//114
f 197//152 177//157 154//153
f 154//153 182//197 183//155
f 177//157 176//167 192//158
f 146//160 147//192 179//161
f 158//163 177//157 197//152
f 159//165 176//167 177//157
f 159//165 160//168 175//166
f 160//168 161//180 174//169
f 200//154 154//153 173//170
f 154//153 155//156 172//172
f 156//173 171//175 172//172
f 157//174 170//208 171//175
f 195//176 169//177 158//163
f 169//177 168//179 159//165
f 167//178 160//168 159//165
f 167//178 166//209 161//180
f 196//171 173//170 150//181
f 173//170 172//172 151//183
f 171//175 152//185 151//183
f 171//175 170//208 153//184
f 194//186 165//187 169//177
f 165//187 164//189 168//179
f 163//188 167//178 168//179
f 162//190 166//209 167//178
f 150//181 146//160 198//191
f 151//183 147//192 146//160
f 152//185 148//194 147//192
f 152//185 153//184 149//193
f 146//160 165//187 194//186
f 146//160 178//162 189//195
f 175//166 191//196 192//158
f 174//169 190//205 191//196
f 193//159 192//158 183//155
f 191//196 184//199 183//155
f 191//196 190//205 185//198
f 179//161 188//201 189//195
f 180//200 187//203 188//201
f 181//202 186//204 187//203
f 148//194 180//200 179//161
f 162//190 163//188 187//203
f 154//153 177//157 193//159
f 156//173 155//156 183//155
f 149//193 181//202 180//200
f 163//188 164//189 188//201
f 157//174 156//173 184//199
f 162//190 186//204 181//202
f 165//187 189//195 188//201
f 174//169 157//174 185//198
f 138//150 198//191 194//186
f 199//182 198//191 138//150
f 194//186 195//176 141//147
f 196//171 199//182 140//207
f 195//176 201//164 144//145
f 142//146 200//154 196//171
f 201//164 197//152 145//144
f 197//152 200//154 142//146
f 174//169 209//142 204//140
f 161//180 205//136 209//142
f 204//140 208//134 170//208
f 166//209 207//128 205//136
f 170//208 208//134 203//124
f 206//119 207//128 166//209
f 153//184 203//124 202//120
f 202//120 206//119 162//190
