<?xml version="1.0" encoding="UTF-8" standalone="no"?>
<!-- Created with Inkscape (http://www.inkscape.org/) -->

<svg xmlns:dc="http://purl.org/dc/elements/1.1/" xmlns:cc="http://creativecommons.org/ns#" xmlns:rdf="http://www.w3.org/1999/02/22-rdf-syntax-ns#"
    xmlns="http://www.w3.org/2000/svg" xmlns:sodipodi="http://sodipodi.sourceforge.net/DTD/sodipodi-0.dtd"
    xmlns:inkscape="http://www.inkscape.org/namespaces/inkscape" width="320" height="480" viewBox="0 0 320 480"
    version="1.1" id="svg8" inkscape:version="0.92.2 5c3e80d, 2017-08-06" sodipodi:docname="background.svg">
  <defs
     id="defs2" />
  <sodipodi:namedview
     id="base"
     pagecolor="#ffffff"
     bordercolor="#666666"
     borderopacity="1.0"
     inkscape:pageopacity="0.0"
     inkscape:pageshadow="2"
     inkscape:zoom="0.7"
     inkscape:cx="-46.665341"
     inkscape:cy="291.05165"
     inkscape:document-units="px"
     inkscape:current-layer="layer1"
     showgrid="true"
     units="px"
     inkscape:window-width="1596"
     inkscape:window-height="861"
     inkscape:window-x="0"
     inkscape:window-y="18"
     inkscape:window-maximized="0"
     fit-margin-top="0"
     fit-margin-left="0"
     fit-margin-right="0"
     fit-margin-bottom="0"
     inkscape:snap-global="false">
    <inkscape:grid
       type="xygrid"
       id="grid815"
       originx="8.5356454"
       originy="11.735656" />
  </sodipodi:namedview>
  <metadata
     id="metadata5">
    <rdf:RDF>
      <cc:Work
         rdf:about="">
        <dc:format>image/svg+xml</dc:format>
        <dc:type
           rdf:resource="http://purl.org/dc/dcmitype/StillImage" />
        <dc:title></dc:title>
      </cc:Work>
    </rdf:RDF>
  </metadata>
  <g
     inkscape:label="Ebene 1"
     inkscape:groupmode="layer"
     id="layer1"
     transform="translate(8.5356454,-534.7356)">
    <g
       id="g1970"
       transform="matrix(1.0000014,0,0,0.99990804,-8.5127974,11.853818)">
      <rect
         y="523"
         x="0"
         height="479.99997"
         width="320"
         id="rect1380"
         style="fill:#e7e7e7;fill-opacity:1;stroke:#000000;stroke-width:4.10701036;stroke-linecap:round;stroke-linejoin:round;stroke-miterlimit:4;stroke-dasharray:none;stroke-opacity:0" />
      <path
         inkscape:connector-curvature="0"
         id="path1526"
         d="M 15,522.99998 V 1003"
         style="fill:none;stroke:#c8c8c8;stroke-width:1px;stroke-linecap:butt;stroke-linejoin:miter;stroke-opacity:1" />
      <path
         inkscape:connector-curvature="0"
         id="path1526-6"
         d="M 30,522.99998 V 1003"
         style="fill:none;stroke:#c8c8c8;stroke-width:1px;stroke-linecap:butt;stroke-linejoin:miter;stroke-opacity:1" />
      <path
         inkscape:connector-curvature="0"
         id="path1526-7"
         d="M 45,522.99998 V 1003"
         style="fill:none;stroke:#c8c8c8;stroke-width:1px;stroke-linecap:butt;stroke-linejoin:miter;stroke-opacity:1" />
      <path
         inkscape:connector-curvature="0"
         id="path1526-5"
         d="M 60,522.99998 V 1003"
         style="fill:none;stroke:#c8c8c8;stroke-width:1px;stroke-linecap:butt;stroke-linejoin:miter;stroke-opacity:1" />
      <path
         inkscape:connector-curvature="0"
         id="path1526-3"
         d="M 75,522.99998 V 1003"
         style="fill:none;stroke:#c8c8c8;stroke-width:1px;stroke-linecap:butt;stroke-linejoin:miter;stroke-opacity:1" />
      <path
         inkscape:connector-curvature="0"
         id="path1526-56"
         d="M 90,522.99998 V 1003"
         style="fill:none;stroke:#c8c8c8;stroke-width:1px;stroke-linecap:butt;stroke-linejoin:miter;stroke-opacity:1" />
      <path
         inkscape:connector-curvature="0"
         id="path1526-2"
         d="M 105,522.99998 V 1003"
         style="fill:none;stroke:#c8c8c8;stroke-width:1px;stroke-linecap:butt;stroke-linejoin:miter;stroke-opacity:1" />
      <path
         inkscape:connector-curvature="0"
         id="path1526-9"
         d="M 120,522.99998 V 1003"
         style="fill:none;stroke:#c8c8c8;stroke-width:1px;stroke-linecap:butt;stroke-linejoin:miter;stroke-opacity:1" />
      <path
         inkscape:connector-curvature="0"
         id="path1526-1"
         d="M 135,522.99998 V 1003"
         style="fill:none;stroke:#c8c8c8;stroke-width:1px;stroke-linecap:butt;stroke-linejoin:miter;stroke-opacity:1" />
      <path
         inkscape:connector-curvature="0"
         id="path1526-27"
         d="M 150,522.99998 V 1003"
         style="fill:none;stroke:#c8c8c8;stroke-width:1px;stroke-linecap:butt;stroke-linejoin:miter;stroke-opacity:1" />
      <path
         inkscape:connector-curvature="0"
         id="path1526-0"
         d="M 165,522.99998 V 1003"
         style="fill:none;stroke:#c8c8c8;stroke-width:1px;stroke-linecap:butt;stroke-linejoin:miter;stroke-opacity:1" />
      <path
         inkscape:connector-curvature="0"
         id="path1526-93"
         d="M 180,522.99998 V 1003"
         style="fill:none;stroke:#c8c8c8;stroke-width:1px;stroke-linecap:butt;stroke-linejoin:miter;stroke-opacity:1" />
      <path
         inkscape:connector-curvature="0"
         id="path1526-60"
         d="M 195,522.99998 V 1003"
         style="fill:none;stroke:#c8c8c8;stroke-width:1px;stroke-linecap:butt;stroke-linejoin:miter;stroke-opacity:1" />
      <path
         inkscape:connector-curvature="0"
         id="path1526-62"
         d="M 210,522.99998 V 1003"
         style="fill:none;stroke:#c8c8c8;stroke-width:1px;stroke-linecap:butt;stroke-linejoin:miter;stroke-opacity:1" />
      <path
         inkscape:connector-curvature="0"
         id="path1526-61"
         d="M 225,522.99998 V 1003"
         style="fill:none;stroke:#c8c8c8;stroke-width:1px;stroke-linecap:butt;stroke-linejoin:miter;stroke-opacity:1" />
      <path
         inkscape:connector-curvature="0"
         id="path1526-8"
         d="M 240,522.99998 V 1003"
         style="fill:none;stroke:#c8c8c8;stroke-width:1px;stroke-linecap:butt;stroke-linejoin:miter;stroke-opacity:1" />
      <path
         inkscape:connector-curvature="0"
         id="path1526-79"
         d="M 255,522.99998 V 1003"
         style="fill:none;stroke:#c8c8c8;stroke-width:1px;stroke-linecap:butt;stroke-linejoin:miter;stroke-opacity:1" />
      <path
         inkscape:connector-curvature="0"
         id="path1526-20"
         d="M 270,522.99998 V 1003"
         style="fill:none;stroke:#c8c8c8;stroke-width:1px;stroke-linecap:butt;stroke-linejoin:miter;stroke-opacity:1" />
      <path
         inkscape:connector-curvature="0"
         id="path1526-23"
         d="M 285,522.99998 V 1003"
         style="fill:none;stroke:#c8c8c8;stroke-width:1px;stroke-linecap:butt;stroke-linejoin:miter;stroke-opacity:1" />
      <path
         inkscape:connector-curvature="0"
         id="path1526-75"
         d="M 300,522.99998 V 1003"
         style="fill:none;stroke:#c8c8c8;stroke-width:1px;stroke-linecap:butt;stroke-linejoin:miter;stroke-opacity:1" />
      <path
         inkscape:connector-curvature="0"
         id="path1526-92"
         d="M 315,522.99998 V 1003"
         style="fill:none;stroke:#c8c8c8;stroke-width:1px;stroke-linecap:butt;stroke-linejoin:miter;stroke-opacity:1" />
      <path
         inkscape:connector-curvature="0"
         id="path1663"
         d="M 0,537.99998 H 320"
         style="fill:none;stroke:#c8c8c8;stroke-width:1px;stroke-linecap:butt;stroke-linejoin:miter;stroke-opacity:1" />
      <path
         inkscape:connector-curvature="0"
         id="path1663-3"
         d="M 0,552.99998 H 320"
         style="fill:none;stroke:#c8c8c8;stroke-width:1px;stroke-linecap:butt;stroke-linejoin:miter;stroke-opacity:1" />
      <path
         inkscape:connector-curvature="0"
         id="path1663-6"
         d="M 0,567.99998 H 320"
         style="fill:none;stroke:#c8c8c8;stroke-width:1px;stroke-linecap:butt;stroke-linejoin:miter;stroke-opacity:1" />
      <path
         inkscape:connector-curvature="0"
         id="path1663-1"
         d="M 0,582.99998 H 320"
         style="fill:none;stroke:#c8c8c8;stroke-width:1px;stroke-linecap:butt;stroke-linejoin:miter;stroke-opacity:1" />
      <path
         inkscape:connector-curvature="0"
         id="path1663-2"
         d="M 0,597.99998 H 320"
         style="fill:none;stroke:#c8c8c8;stroke-width:1px;stroke-linecap:butt;stroke-linejoin:miter;stroke-opacity:1" />
      <path
         inkscape:connector-curvature="0"
         id="path1663-9"
         d="M 0,612.99998 H 320"
         style="fill:none;stroke:#c8c8c8;stroke-width:1px;stroke-linecap:butt;stroke-linejoin:miter;stroke-opacity:1" />
      <path
         inkscape:connector-curvature="0"
         id="path1663-31"
         d="M 0,627.99998 H 320"
         style="fill:none;stroke:#c8c8c8;stroke-width:1px;stroke-linecap:butt;stroke-linejoin:miter;stroke-opacity:1" />
      <path
         inkscape:connector-curvature="0"
         id="path1663-94"
         d="M 0,642.99998 H 320"
         style="fill:none;stroke:#c8c8c8;stroke-width:1px;stroke-linecap:butt;stroke-linejoin:miter;stroke-opacity:1" />
      <path
         inkscape:connector-curvature="0"
         id="path1663-7"
         d="M 0,657.99998 H 320"
         style="fill:none;stroke:#c8c8c8;stroke-width:1px;stroke-linecap:butt;stroke-linejoin:miter;stroke-opacity:1" />
      <path
         inkscape:connector-curvature="0"
         id="path1663-8"
         d="M 0,672.99998 H 320"
         style="fill:none;stroke:#c8c8c8;stroke-width:1px;stroke-linecap:butt;stroke-linejoin:miter;stroke-opacity:1" />
      <path
         inkscape:connector-curvature="0"
         id="path1663-4"
         d="M 0,687.99998 H 320"
         style="fill:none;stroke:#c8c8c8;stroke-width:1px;stroke-linecap:butt;stroke-linejoin:miter;stroke-opacity:1" />
      <path
         inkscape:connector-curvature="0"
         id="path1663-5"
         d="M 0,702.99998 H 320"
         style="fill:none;stroke:#c8c8c8;stroke-width:1px;stroke-linecap:butt;stroke-linejoin:miter;stroke-opacity:1" />
      <path
         inkscape:connector-curvature="0"
         id="path1663-0"
         d="M 0,717.99998 H 320"
         style="fill:none;stroke:#c8c8c8;stroke-width:1px;stroke-linecap:butt;stroke-linejoin:miter;stroke-opacity:1" />
      <path
         inkscape:connector-curvature="0"
         id="path1663-36"
         d="M 0,732.99998 H 320"
         style="fill:none;stroke:#c8c8c8;stroke-width:1px;stroke-linecap:butt;stroke-linejoin:miter;stroke-opacity:1" />
      <path
         inkscape:connector-curvature="0"
         id="path1663-10"
         d="M 0,747.99998 H 320"
         style="fill:none;stroke:#c8c8c8;stroke-width:1px;stroke-linecap:butt;stroke-linejoin:miter;stroke-opacity:1" />
      <path
         inkscape:connector-curvature="0"
         id="path1663-63"
         d="M 0,762.99998 H 320"
         style="fill:none;stroke:#c8c8c8;stroke-width:1px;stroke-linecap:butt;stroke-linejoin:miter;stroke-opacity:1" />
      <path
         inkscape:connector-curvature="0"
         id="path1663-20"
         d="M 0,777.99998 H 320"
         style="fill:none;stroke:#c8c8c8;stroke-width:1px;stroke-linecap:butt;stroke-linejoin:miter;stroke-opacity:1" />
      <path
         inkscape:connector-curvature="0"
         id="path1663-61"
         d="M 0,792.99998 H 320"
         style="fill:none;stroke:#c8c8c8;stroke-width:1px;stroke-linecap:butt;stroke-linejoin:miter;stroke-opacity:1" />
      <path
         inkscape:connector-curvature="0"
         id="path1663-55"
         d="M 0,807.99998 H 320"
         style="fill:none;stroke:#c8c8c8;stroke-width:1px;stroke-linecap:butt;stroke-linejoin:miter;stroke-opacity:1" />
      <path
         inkscape:connector-curvature="0"
         id="path1663-47"
         d="M 0,822.99998 H 320"
         style="fill:none;stroke:#c8c8c8;stroke-width:1px;stroke-linecap:butt;stroke-linejoin:miter;stroke-opacity:1" />
      <path
         inkscape:connector-curvature="0"
         id="path1663-65"
         d="M 0,837.99998 H 320"
         style="fill:none;stroke:#c8c8c8;stroke-width:1px;stroke-linecap:butt;stroke-linejoin:miter;stroke-opacity:1" />
      <path
         inkscape:connector-curvature="0"
         id="path1663-37"
         d="M 0,852.99998 H 320"
         style="fill:none;stroke:#c8c8c8;stroke-width:1px;stroke-linecap:butt;stroke-linejoin:miter;stroke-opacity:1" />
      <path
         inkscape:connector-curvature="0"
         id="path1663-45"
         d="M 0,867.99998 H 320"
         style="fill:none;stroke:#c8c8c8;stroke-width:1px;stroke-linecap:butt;stroke-linejoin:miter;stroke-opacity:1" />
      <path
         inkscape:connector-curvature="0"
         id="path1663-25"
         d="M 0,882.99998 H 320"
         style="fill:none;stroke:#c8c8c8;stroke-width:1px;stroke-linecap:butt;stroke-linejoin:miter;stroke-opacity:1" />
      <path
         inkscape:connector-curvature="0"
         id="path1663-474"
         d="M 0,897.99998 H 320"
         style="fill:none;stroke:#c8c8c8;stroke-width:1px;stroke-linecap:butt;stroke-linejoin:miter;stroke-opacity:1" />
      <path
         inkscape:connector-curvature="0"
         id="path1663-43"
         d="M 0,912.99998 H 320"
         style="fill:none;stroke:#c8c8c8;stroke-width:1px;stroke-linecap:butt;stroke-linejoin:miter;stroke-opacity:1" />
      <path
         inkscape:connector-curvature="0"
         id="path1663-07"
         d="M 0,927.99998 H 320"
         style="fill:none;stroke:#c8c8c8;stroke-width:1px;stroke-linecap:butt;stroke-linejoin:miter;stroke-opacity:1" />
      <path
         inkscape:connector-curvature="0"
         id="path1663-86"
         d="M 0,942.99998 H 320"
         style="fill:none;stroke:#c8c8c8;stroke-width:1px;stroke-linecap:butt;stroke-linejoin:miter;stroke-opacity:1" />
      <path
         inkscape:connector-curvature="0"
         id="path1663-88"
         d="M 0,957.99998 H 320"
         style="fill:none;stroke:#c8c8c8;stroke-width:1px;stroke-linecap:butt;stroke-linejoin:miter;stroke-opacity:1" />
      <path
         inkscape:connector-curvature="0"
         id="path1663-431"
         d="M 0,972.99998 H 320"
         style="fill:none;stroke:#c8c8c8;stroke-width:1px;stroke-linecap:butt;stroke-linejoin:miter;stroke-opacity:1" />
      <path
         inkscape:connector-curvature="0"
         id="path1663-49"
         d="M 0,987.99998 H 320"
         style="fill:none;stroke:#c8c8c8;stroke-width:1px;stroke-linecap:butt;stroke-linejoin:miter;stroke-opacity:1" />
    </g>
    <g
       id="g1903"
       transform="matrix(1.1629943,0.2270324,-0.22606319,1.1679805,424.529,67.464642)">
      <path
         inkscape:connector-curvature="0"
         id="path1440"
         d="m -180,487.99998 c -0.29762,0.11905 -0.64661,0.15193 -0.89286,0.35714 -0.23504,0.19587 -0.17857,0.83061 -0.17857,1.07143 0,0.47619 0.0526,0.95529 0,1.42857 -0.0271,0.24392 -0.15415,0.47008 -0.17857,0.71429 -0.077,0.76997 0.0515,1.54933 0,2.32143 -0.12895,1.93418 -0.28642,0.91583 -0.17857,2.85714 0.0332,0.59729 0.14539,1.18843 0.17857,1.78571 0.0264,0.47546 0,0.95238 0,1.42858 0,1.42857 0,2.85714 0,4.28571 0,0.71429 0.0619,1.43126 0,2.14286 -0.0576,0.66299 -0.30188,1.30108 -0.35714,1.96428 -0.0643,0.77114 0,1.54762 0,2.32143 0,2.61905 0,5.2381 0,7.85714 0,5.41667 0,10.83334 0,16.25 0,2.5 0,5 0,7.5 0,0.83334 0,1.66667 0,2.5 0,0.65477 -0.0567,1.31199 0,1.96429 0.0627,0.72142 0.28509,1.42231 0.35714,2.14286 0.0474,0.47382 0,0.95238 0,1.42857 0,1.54762 0,3.09524 0,4.64286 0,0.47619 0,0.95238 0,1.42857 0,0.11904 -0.0842,0.27296 0,0.35714 0.0595,0.0595 0.11905,-0.11905 0.17857,-0.17857 0.35714,0.47619 0.71429,0.95238 1.07143,1.42857"
         style="fill:none;stroke:#000000;stroke-width:1px;stroke-linecap:butt;stroke-linejoin:miter;stroke-opacity:1" />
      <path
         inkscape:connector-curvature="0"
         id="path1442"
         d="m -155,487.99998 c 0.0595,0.53571 0.13723,1.06972 0.17857,1.60714 0.13697,1.78062 -0.033,-0.20579 -0.17857,1.25 -0.0415,0.4146 0,0.83334 0,1.25 0,0.41667 0,0.83334 0,1.25 0,1.07143 0,2.14286 0,3.21429 0,5.47619 0,10.95238 0,16.42857 0,15.74119 0,36.09768 0,50"
         style="fill:none;stroke:#000000;stroke-width:1px;stroke-linecap:butt;stroke-linejoin:miter;stroke-opacity:1" />
      <path
         inkscape:connector-curvature="0"
         id="path1444"
         d="m -215,507.99998 c 0.53571,0.2381 1.06283,0.49656 1.60714,0.71429 0.80301,0.3212 1.66333,0.51507 2.5,0.71428 2.57689,0.61354 2.50432,0.59596 5.35715,1.07143 1.48651,0.24775 2.96474,0.56433 4.46428,0.71429 1.4819,0.14818 2.98032,0.0528 4.46429,0.17857 2.03049,0.17207 4.03789,0.58309 6.07143,0.71428 1.6632,0.10731 3.33425,-0.0555 5,0 1.90741,0.0636 3.80673,0.29753 5.71428,0.35715 1.90383,0.0595 3.81058,-0.0635 5.71429,0 1.66998,0.0557 3.33015,0.2975 5,0.35714 1.6656,0.0595 3.33472,-0.068 5,0 1.25461,0.0512 2.49583,0.29596 3.75,0.35714 1.18906,0.058 2.38095,0 3.57143,0 2.2619,0 4.5238,0 6.78571,0 0.95238,0 1.90476,0 2.85714,0 0.83334,0 1.66912,-0.0639 2.5,0 0.72201,0.0555 1.42857,0.2381 2.14286,0.35714 1.42857,0.2381 2.85714,0.47619 4.28571,0.71429 0.71429,0.11905 1.4304,0.2276 2.14286,0.35714 0.59724,0.10859 1.18142,0.29959 1.78572,0.35714 0.65181,0.0621 1.31352,-0.0723 1.96428,0 0.43069,0.0479 0.82001,0.3034 1.25,0.35715 0.53158,0.0664 1.07143,0 1.60714,0 0.35715,0 0.71429,0 1.07143,0 0.35715,0 0.71534,-0.0274 1.07143,0 0.41966,0.0323 0.84029,0.0822 1.25,0.17857 1.22413,0.28803 2.50939,0.85567 3.75,1.07143 0.70616,0.12281 1.43766,0.0503 2.14286,0.17857 0.61142,0.11117 1.17524,0.41943 1.78571,0.53571 4.90988,0.93522 -0.48314,-0.33823 3.39286,0.17857 3.16914,0.42256 -0.11201,0.35715 1.96429,0.35715 0.17857,0 0.71355,-0.0162 0.53571,0 -0.83203,0.0756 -1.66667,0.11905 -2.5,0.17857"
         style="fill:none;stroke:#000000;stroke-width:1px;stroke-linecap:butt;stroke-linejoin:miter;stroke-opacity:1" />
      <path
         inkscape:connector-curvature="0"
         id="path1446"
         d="m -215,532.99998 c 0.2381,-0.2381 0.41312,-0.5637 0.71429,-0.71429 0.21295,-0.10648 0.47619,0 0.71428,0 0.35714,0 0.71534,-0.0274 1.07143,0 0.41966,0.0323 0.82983,0.15386 1.25,0.17857 0.59421,0.035 1.19292,-0.0539 1.78571,0 0.72117,0.0656 1.42551,0.2582 2.14286,0.35715 1.00933,0.13922 2.02273,0.24763 3.03572,0.35714 9.18247,0.9927 -2.20881,-0.35022 7.32142,0.89286 1.48619,0.19385 2.98058,0.32375 4.46429,0.53571 1.43372,0.20482 2.85089,0.51735 4.28571,0.71429 1.60202,0.21988 3.21782,0.32784 4.82143,0.53571 0.007,8.5e-4 9.6394,1.42818 9.64286,1.42857 0.98556,0.11158 8.82506,0.64887 9.64286,0.71429 1.31073,0.10486 2.615,0.29743 3.92857,0.35714 2.37849,0.10811 4.76519,-0.12514 7.14286,0 1.19476,0.0629 2.37707,0.28689 3.57142,0.35715 0.8319,0.0489 1.66667,0 2.5,0 0.71429,0 1.42858,0 2.14286,0 2.97619,0 5.95238,0 8.92857,0 1.42857,0 2.85715,0 4.28572,0 0.35714,0 0.71428,0 1.07143,0 0.17857,0 0.35957,0.0294 0.53571,0 0.18567,-0.031 0.35114,-0.14166 0.53571,-0.17858 0.11674,-0.0234 0.24165,0.0289 0.35715,0 0.12912,-0.0323 0.22663,-0.15246 0.35714,-0.17857 0.29184,-0.0584 0.60412,0.0722 0.89286,0 0.12912,-0.0323 0.23809,-0.11905 0.35714,-0.17857 0.17857,-0.0595 0.35114,-0.14166 0.53571,-0.17857 0.11674,-0.0234 0.23972,0.0196 0.35715,0 0.24208,-0.0404 0.47075,-0.14813 0.71428,-0.17857 0.23626,-0.0295 0.47619,0 0.71429,0 0.95238,0 1.90476,0 2.85714,0 0.2381,0 0.47858,0.0337 0.71429,0 0.18634,-0.0266 0.35114,-0.14166 0.53571,-0.17857 0.11674,-0.0233 0.24421,0.0376 0.35714,0 0.0799,-0.0266 0.0987,-0.15195 0.17858,-0.17857 0.0817,-0.0272 0.63482,0.0397 0.71428,0 0.0753,-0.0377 0.10328,-0.14093 0.17857,-0.17858 0.0532,-0.0266 0.13648,0.0421 0.17857,0 0.0421,-0.0421 -0.0421,-0.13648 0,-0.17857 0.0421,-0.0421 0.2092,-0.051 0.17858,0 -0.1961,0.32683 -0.47619,0.59524 -0.71429,0.89286"
         style="fill:none;stroke:#000000;stroke-width:1px;stroke-linecap:butt;stroke-linejoin:miter;stroke-opacity:1" />
      <path
         inkscape:connector-curvature="0"
         id="path1452"
         d="m -175,517.99998 c 0.11905,-0.17857 0.17857,-0.65476 0.35714,-0.53572 0.17857,0.11905 -0.46362,0.34938 -0.35714,0.53572 0.21296,0.37268 0.74553,0.43494 1.07143,0.71428 0.10105,0.0866 0.10474,0.2464 0.17857,0.35715 0.0467,0.07 0.15195,0.0987 0.17857,0.17857 0.0376,0.11294 -0.0377,0.2442 0,0.35714 0.0266,0.0799 0.14093,0.10328 0.17857,0.17857 0.0266,0.0532 -0.0266,0.12533 0,0.17857 0.0753,0.15059 0.28185,0.20656 0.35715,0.35715 0.0266,0.0532 -0.0188,0.1221 0,0.17857 0.0421,0.12627 0.13648,0.23087 0.17857,0.35714 0.0188,0.0565 -0.0266,0.12533 0,0.17857 0.0376,0.0753 0.11904,0.11905 0.17857,0.17857 0.14031,0.14032 0.83598,0.77912 0.89286,0.89286 0.0266,0.0532 -0.033,0.12905 0,0.17857 0.14008,0.21013 0.39563,0.32559 0.53571,0.53572 0.0738,0.11074 0.10474,0.2464 0.17857,0.35714 0.0467,0.07 0.11905,0.11905 0.17857,0.17857 0.2381,0.2381 0.47619,0.47619 0.71429,0.71429 0.11905,0.11905 0.25197,0.22567 0.35714,0.35714 0.13407,0.16759 0.20539,0.38396 0.35714,0.53571 0.0941,0.0941 0.26303,0.0845 0.35715,0.17858 0.0941,0.0941 0.0987,0.25066 0.17857,0.35714 0.15152,0.20203 0.35714,0.35714 0.53571,0.53571 0.29762,0.29762 0.59524,0.59524 0.89286,0.89286 0.23809,0.2381 0.47619,0.47619 0.71429,0.71429 0.0595,0.0595 0.11904,0.11904 0.17857,0.17857 0.0595,0.0595 0.14092,0.10328 0.17857,0.17857 0.0266,0.0532 -0.0421,0.13648 0,0.17857 0.0421,0.0421 0.13648,-0.0421 0.17857,0 0.0421,0.0421 -0.0266,0.12533 0,0.17857 0.0377,0.0753 0.11905,0.11905 0.17857,0.17857 0.10503,0.10503 0.67294,0.6316 0.71429,0.71429 0.0266,0.0532 -0.0266,0.12533 0,0.17857 0.38209,0.76418 -0.025,-0.40704 0.35714,0.35714 0.0266,0.0532 -0.0421,0.13649 0,0.17857 0.0941,0.0941 0.26303,0.0845 0.35714,0.17858 0.36947,0.36947 -0.5646,-0.0145 0.17857,0.35714 0.0532,0.0266 0.13649,-0.0421 0.17858,0 0.0421,0.0421 -0.0266,0.12533 0,0.17857 0.0376,0.0753 0.14092,0.10328 0.17857,0.17857 0.0266,0.0532 -0.0421,0.13648 0,0.17857 0.0421,0.0421 0.13648,-0.0421 0.17857,0 0.0421,0.0421 -0.0266,0.12534 0,0.17857 0.0753,0.15059 0.28185,0.20656 0.35714,0.35715 0.0266,0.0532 0,0.11905 0,0.17857 0.0595,0.0595 0.14093,0.10328 0.17857,0.17857 0.0266,0.0532 -0.0421,0.13648 0,0.17857 0.0421,0.0421 0.13648,-0.0421 0.17857,0 0.0421,0.0421 -0.0421,0.13648 0,0.17857 0.0421,0.0421 0.13649,-0.0421 0.17858,0 0.0421,0.0421 0,0.11905 0,0.17857 0.0595,0 0.12533,-0.0266 0.17857,0 0.74317,0.37159 -0.1909,-0.0123 0.17857,0.35715 0.0421,0.0421 0.12533,-0.0266 0.17857,0 0.0753,0.0376 0.11905,0.11905 0.17857,0.17857 0.0595,0.0595 0.14093,0.10328 0.17857,0.17857 0.0266,0.0532 -0.0421,0.13648 0,0.17857 0.0421,0.0421 0.13648,-0.0421 0.17857,0 0.0421,0.0421 -0.0421,0.13648 0,0.17857 0.36947,0.36947 -0.0144,-0.5646 0.35715,0.17858 0.26275,0.5255 -0.41368,-0.23511 0.17857,0.35714 0.0595,0.0595 0.11905,0.11905 0.17857,0.17857 0.0595,0.0595 0.10328,0.14092 0.17857,0.17857 0.0532,0.0266 0.13648,-0.0421 0.17857,0 0.0421,0.0421 -0.0421,0.13648 0,0.17857 0.0421,0.0421 0.13648,-0.0421 0.17857,0 0.0421,0.0421 -0.0421,0.13648 0,0.17857 0.0421,0.0421 0.15647,0.0553 0.17858,0 0.2308,-0.57699 0.35714,-1.19047 0.53571,-1.78571"
         style="fill:none;stroke:#ffff00;stroke-width:1px;stroke-linecap:butt;stroke-linejoin:miter;stroke-opacity:1" />
      <path
         inkscape:connector-curvature="0"
         id="path1454"
         d="m -175,532.99998 c -0.47619,0.11905 -0.9444,0.27645 -1.42857,0.35714 -0.13129,0.0219 0.22802,-0.14629 0.35714,-0.17857 0.48549,-0.12137 0.48301,0.27909 1.07143,-0.17857 0.36697,-0.28542 0.56413,-0.7427 0.89286,-1.07143 0.0941,-0.0941 0.25066,-0.0987 0.35714,-0.17857 0.4,-0.3 0.67143,-0.77143 1.07143,-1.07143 0.10648,-0.0799 0.26303,-0.0845 0.35714,-0.17857 0.0941,-0.0941 0.0987,-0.25066 0.17857,-0.35714 0.10102,-0.13469 0.2381,-0.2381 0.35715,-0.35715 0.35714,-0.35714 0.71428,-0.71428 1.07142,-1.07143 0.11905,-0.11904 0.2381,-0.23809 0.35715,-0.35714 0.17857,-0.11905 0.38395,-0.20538 0.53571,-0.35714 0.15176,-0.15176 0.20539,-0.38396 0.35714,-0.53572 0.92814,-0.92813 0.18601,0.16928 0.89286,-0.71428 0.13407,-0.16759 0.20539,-0.38396 0.35714,-0.53572 0.15176,-0.15175 0.36403,-0.22837 0.53572,-0.35714 0.20203,-0.15152 0.35714,-0.35714 0.53571,-0.53571 0.11905,-0.11905 0.25613,-0.22246 0.35715,-0.35715 0.0798,-0.10647 0.0987,-0.25066 0.17857,-0.35714 0.25,-0.33333 0.64285,-0.55952 0.89285,-0.89286 0.0799,-0.10647 0.10475,-0.24639 0.17858,-0.35714 0.18174,-0.27261 0.53254,-0.2631 0.71428,-0.53571 0.0738,-0.11075 0.10474,-0.2464 0.17857,-0.35715 0.0934,-0.14008 0.2381,-0.23809 0.35715,-0.35714 0.11904,-0.11905 0.23809,-0.23809 0.35714,-0.35714 0.0595,-0.0595 0.10853,-0.13188 0.17857,-0.17857 0.11074,-0.0738 0.2464,-0.10474 0.35714,-0.17857 0.41025,-0.2735 -0.0766,-0.102 0.35715,-0.53572 0.0941,-0.0941 0.24639,-0.10474 0.35714,-0.17857 0.07,-0.0467 0.11905,-0.11905 0.17857,-0.17857 0.11905,-0.11905 0.25613,-0.22246 0.35714,-0.35714 0.0799,-0.10648 0.0845,-0.26303 0.17857,-0.35715 0.0941,-0.0941 0.2464,-0.10474 0.35715,-0.17857 0.07,-0.0467 0.10853,-0.13188 0.17857,-0.17857 0.11074,-0.0738 0.26303,-0.0845 0.35714,-0.17857 0.0941,-0.0941 0.10474,-0.2464 0.17857,-0.35714 0.0934,-0.14009 0.2381,-0.2381 0.35715,-0.35715 0.10502,-0.10502 0.63159,-0.67294 0.71428,-0.71428 0.0532,-0.0266 0.13648,0.0421 0.17857,0 0.0421,-0.0421 -0.0266,-0.12533 0,-0.17857 0.37159,-0.74318 -0.0123,0.1909 0.35715,-0.17858 0.0421,-0.0421 0.0476,-0.21428 0,-0.17857 -0.26938,0.20203 -0.47619,0.47619 -0.71429,0.71429"
         style="fill:none;stroke:#ffff00;stroke-width:1px;stroke-linecap:butt;stroke-linejoin:miter;stroke-opacity:1" />
      <path
         inkscape:connector-curvature="0"
         id="path1456"
         d="m -130,492.99998 c -0.2381,-0.53571 -0.41267,-1.10445 -0.71429,-1.60714 -0.15505,-0.25843 -0.70945,-0.17857 -0.89285,-0.17857 -0.2119,0 -1.25527,-0.0347 -1.42857,0 -0.13052,0.0261 -0.23357,0.12913 -0.35715,0.17857 -0.17477,0.0699 -0.36094,0.10866 -0.53571,0.17857 -0.12358,0.0494 -0.23356,0.12914 -0.35714,0.17857 -0.25724,0.10289 -0.65356,0.17766 -0.89286,0.35714 -0.13469,0.10102 -0.22246,0.25613 -0.35714,0.35715 -0.10648,0.0799 -0.25067,0.0987 -0.35715,0.17857 -0.13468,0.10101 -0.22245,0.25612 -0.35714,0.35714 -0.10648,0.0799 -0.25066,0.0987 -0.35714,0.17857 -0.3701,0.27758 -0.70417,0.77762 -1.07143,1.07143 -0.51563,0.41251 -0.5096,0.23522 -0.89286,0.71429 -0.32406,0.20878 -0.32746,0.61519 -0.53571,0.89285 -0.49828,0.66438 -0.2773,0.0189 -0.71429,0.89286 -0.0842,0.16836 -0.0944,0.36735 -0.17857,0.53571 -0.19196,0.38392 -0.52233,0.68752 -0.71429,1.07143 -0.0842,0.16836 -0.0944,0.36736 -0.17857,0.53572 -0.30851,0.61702 -0.4235,0.39816 -0.53571,1.07143 -0.0294,0.17614 0.0252,0.35893 0,0.53571 -0.0347,0.24296 -0.14387,0.47133 -0.17857,0.71429 -0.0421,0.29462 0,0.59523 0,0.89285 0,0.29762 -0.0584,0.60102 0,0.89286 0.0261,0.13051 0.11904,0.23809 0.17857,0.35714 0.0595,0.17857 0.14762,0.35005 0.17857,0.53572 0.0294,0.17614 -0.0294,0.35957 0,0.53571 -0.062,0.36333 0.29428,0.57854 0.35714,0.89286 0.035,0.1751 -0.0565,0.3663 0,0.53571 0.0679,0.20361 0.26117,0.34376 0.35715,0.53572 0.0842,0.16836 0.0817,0.3743 0.17857,0.53571 0.0866,0.14437 0.25197,0.22568 0.35714,0.35714 0.33426,0.41783 0.45482,0.92148 0.89286,1.25 0.10648,0.0799 0.26302,0.0845 0.35714,0.17858 0.43371,0.43371 -0.0531,0.26221 0.35714,0.53571 0.11075,0.0738 0.2381,0.11905 0.35715,0.17857 0.23809,0.11905 0.46712,0.25828 0.71428,0.35714 1.04873,0.4195 0.0215,0.004 1.07143,0.17858 0.18567,0.0309 0.35714,0.11904 0.53571,0.17857 0.2381,0.0595 0.47133,0.14386 0.71429,0.17857 0.17678,0.0252 0.35894,-0.0253 0.53571,0 0.24296,0.0347 0.47133,0.14386 0.71429,0.17857 0.17678,0.0253 0.35714,0 0.53571,0 0.29762,0 0.59524,0 0.89286,0 0.2381,0 0.47803,-0.0295 0.71429,0 0.24352,0.0304 0.47036,0.15147 0.71428,0.17857 0.2958,0.0329 0.59524,0 0.89286,0 0.17857,0 0.35957,0.0294 0.53571,0 0.18567,-0.0309 0.35114,-0.14166 0.53572,-0.17857 0.11673,-0.0233 0.24165,0.0289 0.35714,0 0.12913,-0.0323 0.2381,-0.11905 0.35714,-0.17857 0.11905,-0.0595 0.2464,-0.10474 0.35715,-0.17857 0.07,-0.0467 0.10853,-0.13188 0.17857,-0.17857 0.22149,-0.14767 0.50133,-0.19743 0.71428,-0.35715 0.62485,-0.46864 0.14462,-0.19282 0.53572,-0.71428 0.10101,-0.13469 0.25613,-0.22246 0.35714,-0.35715 0.0799,-0.10648 0.0987,-0.25066 0.17857,-0.35714 0.3,-0.4 0.77143,-0.67143 1.07143,-1.07143 0.0799,-0.10648 0.11009,-0.24301 0.17857,-0.35714 0.25155,-0.41925 0.37244,-0.48467 0.53572,-0.89286 0.0699,-0.17477 0.0817,-0.37431 0.17857,-0.53571 0.0866,-0.14437 0.29461,-0.20083 0.35714,-0.35714 0.0663,-0.1658 -0.0294,-0.35958 0,-0.53572 0.031,-0.18567 0.14166,-0.35114 0.17857,-0.53571 0.0233,-0.11674 0,-0.2381 0,-0.35715 0,-0.17857 0,-0.35714 0,-0.53571 0,-0.17857 0,-0.35714 0,-0.53571 0,-0.17858 0.035,-0.36062 0,-0.53572 -0.0261,-0.13051 -0.12914,-0.23356 -0.17857,-0.35714 -0.0699,-0.17477 -0.11905,-0.35714 -0.17857,-0.53572 -0.0595,-0.17857 -0.14166,-0.35114 -0.17857,-0.53571 -0.0234,-0.11674 0.0289,-0.24165 0,-0.35714 -0.0646,-0.25825 -0.27297,-0.46175 -0.35714,-0.71429 -0.0419,-0.12576 0.0479,-0.66636 0,-0.71428 -0.0941,-0.0941 -0.28332,-0.0678 -0.35715,-0.17858 -0.066,-0.099 0.0532,-0.25066 0,-0.35714 -0.0753,-0.15058 -0.26375,-0.21706 -0.35714,-0.35714 -0.033,-0.0495 0.0188,-0.1221 0,-0.17857 -0.0421,-0.12627 -0.11905,-0.2381 -0.17857,-0.35715 -0.0595,-0.11904 -0.10474,-0.24639 -0.17857,-0.35714 -0.0467,-0.07 -0.13188,-0.10853 -0.17857,-0.17857 -0.14766,-0.22149 -0.20949,-0.4928 -0.35715,-0.71429 -0.0467,-0.07 -0.13187,-0.10853 -0.17857,-0.17857 -0.0738,-0.11074 -0.10474,-0.2464 -0.17857,-0.35714 -0.0467,-0.07 -0.13188,-0.10853 -0.17857,-0.17857 -0.0738,-0.11075 -0.10474,-0.2464 -0.17857,-0.35714 -0.14009,-0.21013 -0.39563,-0.32559 -0.53572,-0.53572 -0.033,-0.0495 0.0421,-0.13648 0,-0.17857 -0.0941,-0.0941 -0.26302,-0.0845 -0.35714,-0.17857 -0.0421,-0.0421 0.0266,-0.12533 0,-0.17857 -0.0376,-0.0753 -0.11905,-0.11905 -0.17857,-0.17857 -0.0595,-0.0595 -0.11905,-0.11905 -0.17857,-0.17858 -0.40944,-0.40943 0.0753,0.11294 -0.35715,-0.53571 -0.0467,-0.07 -0.14092,-0.10328 -0.17857,-0.17857 -0.12315,-0.24632 0.21626,-0.15973 -0.17857,-0.35714 -0.0532,-0.0266 -0.13648,0.0421 -0.17857,0 -0.0421,-0.0421 0.0547,-0.20202 0,-0.17858 -0.44109,0.18904 -0.83333,0.47619 -1.25,0.71429"
         style="fill:none;stroke:#0000ff;stroke-width:1px;stroke-linecap:butt;stroke-linejoin:miter;stroke-opacity:1" />
      <path
         inkscape:connector-curvature="0"
         id="path1458"
         d="m -195,537.99998 c 0.0595,0.65476 0.17857,1.30682 0.17857,1.96429 0,0.13309 -0.0845,-0.26303 -0.17857,-0.35715 -0.0421,-0.0421 -0.12533,0.0266 -0.17857,0 -0.0753,-0.0376 -0.11905,-0.11905 -0.17857,-0.17857 -0.11905,-0.0595 -0.2381,-0.11905 -0.35715,-0.17857 -0.23809,-0.11905 -0.46174,-0.27296 -0.71428,-0.35714 -0.11294,-0.0376 -0.24421,0.0376 -0.35714,0 -0.12627,-0.0421 -0.22802,-0.14629 -0.35715,-0.17857 -0.11549,-0.0289 -0.23809,0 -0.35714,0 -0.11905,0 -0.2381,0 -0.35714,0 -0.41667,0 -0.83334,0 -1.25,0 -0.17857,0 -0.35715,0 -0.53572,0 -0.23809,0 -0.47943,-0.0391 -0.71428,0 -0.13129,0.0219 -0.23088,0.13648 -0.35715,0.17857 -0.23282,0.0776 -0.48145,0.10096 -0.71428,0.17857 -0.12627,0.0421 -0.23357,0.12914 -0.35714,0.17857 -0.17477,0.0699 -0.35715,0.11905 -0.53572,0.17857 -1.94212,0.64737 0.47058,-0.0941 -0.89286,0.17857 -0.59224,0.11845 -0.41666,0.16667 -0.89285,0.35715 -0.17477,0.0699 -0.36736,0.0944 -0.53572,0.17857 -0.15058,0.0753 -0.21706,0.26375 -0.35714,0.35714 -0.11075,0.0738 -0.2381,0.11905 -0.35714,0.17857 -0.11905,0.11905 -0.22246,0.25613 -0.35715,0.35714 -0.10648,0.0799 -0.25066,0.0987 -0.35714,0.17858 -0.13469,0.10101 -0.22245,0.25612 -0.35714,0.35714 -0.10648,0.0799 -0.25067,0.0987 -0.35714,0.17857 -0.13469,0.10101 -0.2381,0.23809 -0.35715,0.35714 -0.11905,0.11905 -0.25613,0.22246 -0.35714,0.35715 -0.0799,0.10647 -0.0987,0.25066 -0.17857,0.35714 -0.20203,0.26937 -0.54105,0.42555 -0.71429,0.71428 -0.0968,0.16141 -0.10866,0.36095 -0.17857,0.53572 -0.0494,0.12358 -0.11009,0.24301 -0.17857,0.35714 -0.11042,0.18403 -0.26116,0.34376 -0.35714,0.53572 -0.16836,0.33671 -0.21733,0.72189 -0.35715,1.07142 -0.0494,0.12358 -0.12914,0.23357 -0.17857,0.35715 -0.13981,0.34953 -0.21733,0.72189 -0.35714,1.07143 -0.0494,0.12357 -0.15247,0.22662 -0.17857,0.35714 -0.035,0.1751 0,0.35714 0,0.53571 0,0.41667 0,0.83334 0,1.25 0,0.35715 0,0.71429 0,1.07143 0,0.11905 -0.0289,0.24165 0,0.35714 0.0323,0.12913 0.14629,0.22802 0.17857,0.35715 0.0289,0.11549 -0.0377,0.2442 0,0.35714 0.0266,0.0799 0.13188,0.10853 0.17857,0.17857 0.0738,0.11075 0.11905,0.2381 0.17857,0.35714 0.17857,0.35715 0.35715,0.71429 0.53572,1.07143 0.0595,0.11905 0.0844,0.26303 0.17857,0.35715 0.0941,0.0941 0.25066,0.0987 0.35714,0.17857 0.26938,0.20203 0.44491,0.51225 0.71429,0.71428 0.10648,0.0799 0.25321,0.0954 0.35714,0.17857 0.1972,0.15776 0.32559,0.39564 0.53571,0.53572 0.15662,0.10441 0.36271,0.10442 0.53572,0.17857 0.24467,0.10486 0.48316,0.22507 0.71428,0.35714 0.18634,0.10648 0.33845,0.2726 0.53572,0.35715 0.22558,0.0967 0.48449,0.0924 0.71428,0.17857 0.24925,0.0935 0.47103,0.24903 0.71429,0.35714 0.29292,0.13019 0.59524,0.23809 0.89286,0.35714 0.29762,0.11905 0.58583,0.26504 0.89285,0.35715 0.29072,0.0872 0.60215,0.0914 0.89286,0.17857 0.30703,0.0921 0.58583,0.26503 0.89286,0.35714 0.29071,0.0872 0.59657,0.11273 0.89286,0.17857 0.58988,0.13109 0.99162,0.2802 1.60714,0.35714 0.83333,0.10417 0.27778,-0.13889 1.25,0 0.18634,0.0266 0.35004,0.14763 0.53571,0.17858 0.17614,0.0294 0.35715,0 0.53572,0 0.17857,0 0.35714,0 0.53571,0 0.17857,0 0.35714,0 0.53572,0 0.11904,0 0.24165,0.0289 0.35714,0 0.25825,-0.0646 0.45603,-0.29258 0.71428,-0.35715 0.1155,-0.0289 0.25067,0.0532 0.35715,0 0.15058,-0.0753 0.20655,-0.28185 0.35714,-0.35714 0.10648,-0.0532 0.23809,0 0.35714,0 0.11905,-0.11905 0.22246,-0.25613 0.35715,-0.35714 0.1908,-0.14311 0.52347,-0.21404 0.71428,-0.35715 0.24878,-0.18658 0.489,-0.489 0.71429,-0.71428 0.11904,-0.11905 0.23809,-0.2381 0.35714,-0.35714 0.0595,-0.0595 0.13188,-0.10853 0.17857,-0.17858 0.0738,-0.11074 0.11905,-0.23809 0.17857,-0.35714 0.0595,-0.11905 0.14629,-0.22802 0.17857,-0.35714 0.0289,-0.1155 -0.0376,-0.24421 0,-0.35714 0.0266,-0.0799 0.11905,-0.11905 0.17858,-0.17858 0.0595,-0.11904 0.14629,-0.22801 0.17857,-0.35714 0.0289,-0.11549 -0.0289,-0.24165 0,-0.35714 0.0323,-0.12913 0.14629,-0.22802 0.17857,-0.35714 0.0289,-0.1155 -0.0289,-0.24165 0,-0.35715 0.0323,-0.12912 0.15247,-0.22663 0.17857,-0.35714 0.0584,-0.29184 0,-0.59524 0,-0.89286 0,-0.21189 0.0347,-1.25526 0,-1.42857 -0.0261,-0.13051 -0.15247,-0.22663 -0.17857,-0.35714 -0.0584,-0.29184 0.0722,-0.60413 0,-0.89286 -0.0323,-0.12912 -0.13648,-0.23087 -0.17857,-0.35714 -0.0565,-0.16941 0.035,-0.36061 0,-0.53572 -0.1858,-0.92896 -0.11905,-0.17857 -0.35715,-0.89285 -0.0188,-0.0565 0,-0.11905 0,-0.17857 -0.0595,-0.17858 -0.0944,-0.36736 -0.17857,-0.53572 -0.27228,-0.54456 -0.14156,0.3266 -0.35714,-0.53571 -0.0289,-0.1155 0.0377,-0.24421 0,-0.35715 -0.0266,-0.0799 -0.14093,-0.10328 -0.17857,-0.17857 -0.0397,-0.0795 0.0272,-0.63261 0,-0.71428 -0.0266,-0.0799 -0.11905,-0.11905 -0.17857,-0.17857 -0.0595,-0.11905 -0.14629,-0.22802 -0.17857,-0.35715 -0.0289,-0.11549 0.0289,-0.24165 0,-0.35714 -0.029,-0.11583 -0.45985,-0.95763 -0.53572,-1.07143 -0.0467,-0.07 -0.14092,-0.10328 -0.17857,-0.17857 -0.0266,-0.0532 0.0266,-0.12533 0,-0.17857 -0.0377,-0.0753 -0.14093,-0.10328 -0.17857,-0.17857 -0.0266,-0.0532 0,-0.11905 0,-0.17857 -0.0595,-0.11905 -0.10474,-0.2464 -0.17857,-0.35715 -0.13737,-0.20604 -0.39835,-0.32967 -0.53572,-0.53571 -0.0738,-0.11075 -0.0844,-0.26303 -0.17857,-0.35714 -0.0421,-0.0421 -0.13648,0.0421 -0.17857,0 -0.0421,-0.0421 0.0266,-0.12534 0,-0.17858 -0.0753,-0.15058 -0.28185,-0.20655 -0.35714,-0.35714 -0.0266,-0.0532 0.0266,-0.12533 0,-0.17857 -0.37159,-0.74317 0.0123,0.1909 -0.35715,-0.17857 -0.36947,-0.36947 0.5646,0.0144 -0.17857,-0.35714 -0.10648,-0.0532 -0.27296,0.0842 -0.35714,0 -0.0421,-0.0421 0.0266,-0.12534 0,-0.17858 -0.10714,-0.21428 -0.42857,-0.32142 -0.53571,-0.53571 -0.0532,-0.10648 0.0842,-0.27296 0,-0.35714 -0.0421,-0.0421 -0.11905,0 -0.17858,0 -0.17857,-0.29762 -0.35714,-0.59524 -0.53571,-0.89286"
         style="fill:none;stroke:#0000ff;stroke-width:1px;stroke-linecap:butt;stroke-linejoin:miter;stroke-opacity:1" />
      <path
         inkscape:connector-curvature="0"
         id="path1464"
         d="m -205,492.99998 c 0.17857,-0.47619 0.21013,-1.03788 0.53571,-1.42857 0.10778,-0.12934 0.27053,0.21277 0.35715,0.35714 0.36013,0.60022 -0.004,0.41103 0.35714,0.89286 0.20203,0.26937 0.54105,0.42555 0.71429,0.71428 0.0968,0.16141 0.0944,0.36736 0.17857,0.53572 0.0376,0.0753 0.11904,0.11905 0.17857,0.17857 0.11905,0.11905 0.25613,0.22246 0.35714,0.35714 0.0799,0.10648 0.0987,0.25067 0.17857,0.35715 0.10081,0.13441 0.75844,0.79204 0.89286,0.89285 0.95238,0.47619 -0.17857,-0.17857 0.53571,0.53572 0.0941,0.0941 0.25067,0.0987 0.35715,0.17857 0.13468,0.10101 0.22245,0.25613 0.35714,0.35714 0.10648,0.0799 0.26303,0.0845 0.35714,0.17857 0.0941,0.0941 0.0987,0.25067 0.17857,0.35715 0.10102,0.13468 0.2381,0.23809 0.35715,0.35714 0.29762,0.29762 0.59523,0.59524 0.89285,0.89286 0.35715,0.35714 0.71429,0.71428 1.07143,1.07142 0.2381,0.2381 0.45136,0.50394 0.71429,0.71429 0.16759,0.13407 0.36813,0.22307 0.53571,0.35714 0.13147,0.10518 0.22568,0.25197 0.35715,0.35715 1.10674,0.88539 0.0583,-0.0207 0.89285,0.53571 0.14009,0.0934 0.2381,0.23809 0.35715,0.35714 0.23809,0.2381 0.47619,0.47619 0.71428,0.71429 0.11905,0.11905 0.2381,0.23809 0.35714,0.35714 0.0595,0.0595 0.10853,0.13188 0.17858,0.17857 0.11074,0.0738 0.25066,0.0987 0.35714,0.17857 0.13469,0.10102 0.23809,0.2381 0.35714,0.35715 0.0595,0.0595 0.13188,0.10853 0.17857,0.17857 0.0738,0.11074 0.0845,0.26303 0.17857,0.35714 0.0941,0.0941 0.2464,0.10474 0.35715,0.17857 0.07,0.0467 0.11904,0.11905 0.17857,0.17857 0.0595,0.0595 0.15195,0.0987 0.17857,0.17858 0.0377,0.11293 -0.0377,0.2442 0,0.35714 0.0266,0.0799 0.11905,0.11905 0.17857,0.17857 0.0595,0.0595 0.11905,0.11905 0.17857,0.17857 0.17857,0.17857 0.35715,0.35714 0.53572,0.53572 0.0595,0.0595 0.13187,0.10853 0.17857,0.17857 0.0738,0.11074 0.13648,0.23087 0.17857,0.35714 0.0188,0.0565 -0.0421,0.13648 0,0.17857 0.0941,0.0941 0.26303,0.0845 0.35714,0.17857 0.0421,0.0421 -0.0266,0.12533 0,0.17857 0.0753,0.15059 0.28185,0.20656 0.35715,0.35715 0.0266,0.0532 -0.0421,0.13648 0,0.17857 0.0421,0.0421 0.13648,-0.0421 0.17857,0 0.0421,0.0421 -0.0421,0.13648 0,0.17857 0.0421,0.0421 0.13648,-0.0421 0.17857,0 0.0421,0.0421 -0.0421,0.13648 0,0.17857 0.0421,0.0421 0.13648,-0.0421 0.17857,0 0.0421,0.0421 -0.0421,0.13648 0,0.17857 0.0421,0.0421 0.12533,-0.0266 0.17857,0 0.0753,0.0376 0.11905,0.11905 0.17857,0.17857 0.0595,0.0595 0.14093,0.10328 0.17857,0.17858 0.0266,0.0532 -0.0421,0.13648 0,0.17857 0.0941,0.0941 0.2464,0.10474 0.35715,0.17857 0.28316,-0.0884 0.13437,0.31295 0.17857,0.35714 0.0421,0.0421 0.22926,0.0312 0.17857,0 -0.81742,-0.50302 -1.66667,-0.95238 -2.5,-1.42857"
         style="fill:none;stroke:#ffff00;stroke-width:1px;stroke-linecap:butt;stroke-linejoin:miter;stroke-opacity:1" />
      <path
         inkscape:connector-curvature="0"
         id="path1466"
         d="m -205,507.99998 c 0.71429,-0.2381 1.42857,-0.47619 2.14286,-0.71429 0.11904,-0.0595 0.23356,-0.12914 0.35714,-0.17857 0.17477,-0.0699 0.36736,-0.0944 0.53571,-0.17857 0.19196,-0.096 0.34376,-0.26116 0.53572,-0.35714 0.2867,-0.14335 0.61265,-0.20147 0.89286,-0.35714 0.26016,-0.14454 0.47619,-0.35715 0.71428,-0.53572 0.2381,-0.17857 0.47619,-0.35714 0.71429,-0.53571 0.71379,-0.53535 1.43857,-1.05937 2.14285,-1.60715 0.30086,-0.23399 0.57573,-0.50286 0.89286,-0.71428 0.22149,-0.14766 0.51217,-0.18391 0.71429,-0.35714 0.42211,-0.36182 0.5454,-0.84464 0.89285,-1.25 0.21914,-0.25566 0.47619,-0.4762 0.71429,-0.71429 0.11905,-0.11905 0.26375,-0.21706 0.35714,-0.35714 0.14766,-0.22149 0.18673,-0.50979 0.35715,-0.71429 0.01,-0.0119 1.03285,-0.68343 1.07142,-0.71428 1.07868,-0.86294 -0.35398,0.21926 0.53572,-0.89286 0.13407,-0.16759 0.36813,-0.22308 0.53571,-0.35714 0.13147,-0.10518 0.22246,-0.25613 0.35715,-0.35715 0.10647,-0.0799 0.26302,-0.0845 0.35714,-0.17857 0.0941,-0.0941 0.10474,-0.2464 0.17857,-0.35714 0.0467,-0.07 0.11905,-0.11905 0.17857,-0.17857 0.17857,-0.17857 0.35714,-0.35715 0.53572,-0.53572 0.11904,-0.11905 0.26375,-0.21706 0.35714,-0.35714 0.0738,-0.11075 0.10474,-0.2464 0.17857,-0.35714 0.16377,-0.24566 0.27549,-0.18366 0.53571,-0.35715 0.0734,-0.0489 0.48681,-0.46235 0.53572,-0.53571 0.0738,-0.11075 0.0845,-0.26303 0.17857,-0.35714 0.0941,-0.0941 0.2464,-0.10474 0.35714,-0.17857 0.07,-0.0467 0.10853,-0.13188 0.17857,-0.17858 0.11075,-0.0738 0.26303,-0.0845 0.35715,-0.17857 0.0421,-0.0421 -0.0266,-0.12533 0,-0.17857 0.0376,-0.0753 0.11904,-0.11905 0.17857,-0.17857 0.094,-0.094 0.44034,-0.48803 0.53571,-0.53571 0.0532,-0.0266 0.13648,0.0421 0.17857,0 0.0421,-0.0421 -0.0421,-0.13649 0,-0.17858 0.0421,-0.0421 0.12534,0.0266 0.17858,0 0.0753,-0.0376 0.11904,-0.11904 0.17857,-0.17857 0.0595,-0.0595 0.14092,-0.10328 0.17857,-0.17857 0,-0.47619 -0.0595,0.0595 0.17857,-0.17857 0.0421,-0.0421 -0.0421,-0.13648 0,-0.17857 0.0421,-0.0421 0.17857,-0.0595 0.17857,0 0,0.47989 -0.11905,0.95238 -0.17857,1.42857"
         style="fill:none;stroke:#ffff00;stroke-width:1px;stroke-linecap:butt;stroke-linejoin:miter;stroke-opacity:1" />
    </g>
    <g
       id="g1915"
       transform="matrix(1.3632237,-0.58113501,0.57865411,1.3690683,-53.989184,-23.038236)">
      <path
         inkscape:connector-curvature="0"
         id="path1480"
         d="m -175,592.99998 c -0.59223,1.13787 -1.18446,2.27573 -1.7767,3.4136 0,0.0842 0.0377,0.17725 0,0.25254 -0.0532,0.10648 -0.21489,0.1396 -0.25253,0.25254 -0.0532,0.15972 0.0532,0.34535 0,0.50507 -0.0376,0.11294 -0.2149,0.1396 -0.25254,0.25254 -0.0532,0.15972 0.0408,0.34175 0,0.50508 -0.0456,0.18261 -0.20689,0.32246 -0.25254,0.50507 -0.0408,0.16334 0,0.33672 0,0.50508 0,0.4209 0.0692,0.84752 0,1.26269 -0.0438,0.26258 -0.25254,0.49142 -0.25254,0.75762 0,0.18823 0.21562,0.3205 0.25254,0.50507 0.0495,0.24764 0,0.50508 0,0.75762 0,0.92597 0,1.85194 0,2.77792 0,2.18866 0,4.37732 0,6.56599 0,0.58925 0,1.17851 0,1.76776 0,0.16836 0,0.33672 0,0.50508 0,0.16836 -0.0408,0.34174 0,0.50508 0.0456,0.18261 0.16836,0.33671 0.25254,0.50507 0,0.25254 -0.0495,0.50998 0,0.75762 0.0369,0.18457 0.20688,0.32246 0.25254,0.50507 0.10208,0.40833 -0.0825,0.84997 0,1.26269 0.0369,0.18458 0.19301,0.32651 0.25253,0.50508 0.0266,0.0799 0,0.16836 0,0.25254 0,0.25254 -0.0495,0.50998 0,0.75761 0.0369,0.18458 0.16836,0.33672 0.25254,0.50508 0,0.25254 -0.0495,0.50998 0,0.75761 0.0738,0.36915 0.43125,0.64101 0.50508,1.01016 0.0533,0.26667 0,1.40254 0,1.76776 0,1.09433 0,2.18867 0,3.283 0,3.53553 0,7.07107 0,10.6066 0,1.96983 0.0799,-0.47916 -0.25254,1.51523 -0.0415,0.2491 0,0.50508 0,0.75761 0,0.33672 0,0.67344 0,1.01016 0,0.84179 0,1.68358 0,2.52538 0,1.34687 0,2.69374 0,4.04061 0,0.50507 0,1.01015 0,1.51523 0,0.16835 -0.033,0.33998 0,0.50507 0.69213,2.07639 -0.0887,-0.53239 0.25254,1.51523 0.0438,0.26258 0.20877,0.49504 0.25254,0.75762 0.0415,0.2491 0,0.50507 0,0.75761 0,0.16836 0.033,0.33999 0,0.50508 -0.0522,0.26103 -0.20034,0.49658 -0.25254,0.75761 -0.033,0.16509 0,0.33672 0,0.50508 0,0.25254 0,0.50507 0,0.75761 0,0.16836 0,0.33672 0,0.50508 0,0.16836 -0.0532,0.34535 0,0.50507 0.0376,0.11294 0.1993,0.14606 0.25254,0.25254 0.0326,0.0653 0,1.33623 0,1.51523 0,0.25254 0,0.50508 0,0.75762 0,0.0842 0,0.16835 0,0.25253 0,0.0842 -0.0789,0.28192 0,0.25254 0.29254,-0.10893 0.51103,-0.35865 0.76654,-0.53798"
         style="fill:none;stroke:#000000;stroke-width:1px;stroke-linecap:butt;stroke-linejoin:miter;stroke-opacity:1" />
      <path
         inkscape:connector-curvature="0"
         id="path1482"
         d="m -145,592.99998 c -0.65907,0.12771 -1.39571,0.0476 -1.9772,0.38314 -0.21874,0.12621 0.0495,0.50998 0,0.75762 -0.0369,0.18457 -0.21562,0.3205 -0.25253,0.50507 -0.0495,0.24764 0,0.50508 0,0.75762 0,0.67343 0,1.34687 0,2.0203 0,1.85195 0,3.7039 0,5.55584 0,14.47886 0,28.95771 0,43.43656 0,1.17851 0,2.35702 0,3.53554 0,0.42089 0,0.84179 0,1.26269 0,0.16835 -0.0408,0.34174 0,0.50507 0.0456,0.18261 0.19301,0.32651 0.25253,0.50508 0.0266,0.0799 0,0.16836 0,0.25254 0,0.33671 0,0.67343 0,1.01015 0,0.16836 -0.033,0.33999 0,0.50508 0.0522,0.26102 0.25254,0.49141 0.25254,0.75761 0,0.18823 -0.20688,0.32247 -0.25254,0.50508 -0.0497,0.19865 0,1.2526 0,1.51522 0,0.0842 -0.0715,0.20808 0,0.25254 0.62427,0.38829 1.31813,0.6515 1.9772,0.97725"
         style="fill:none;stroke:#000000;stroke-width:1px;stroke-linecap:butt;stroke-linejoin:miter;stroke-opacity:1" />
      <path
         inkscape:connector-curvature="0"
         id="path1484"
         d="m -210,607.99998 c 0.38365,0.85191 0.67637,1.75093 1.15096,2.55574 0.0956,0.16213 0.32651,0.19301 0.50508,0.25253 0.80402,0.26801 1.70475,0.35588 2.52538,0.50508 3.66768,0.66685 -1.68794,-0.22083 3.03046,0.50508 0.73356,0.11285 2.59953,0.45625 3.28299,0.50507 5.70837,0.40774 -2.57386,-0.5427 3.78807,0.25254 0.73572,0.092 3.63818,0.46414 4.29315,0.50508 0.58811,0.0368 1.18306,-0.0731 1.76777,0 0.7701,0.0963 1.50206,0.41439 2.27284,0.50507 0.66883,0.0787 1.34836,-0.0448 2.02031,0 0.59392,0.0396 1.17428,0.20689 1.76776,0.25254 0.50359,0.0387 1.01016,0 1.51523,0 1.01016,0 2.02031,0 3.03046,0 2.27284,0 4.54569,0 6.81853,0 7.66032,0 15.32065,0 22.98097,0 4.71405,0 9.42809,0 14.14214,0 1.59941,0 3.19881,0 4.79822,0 0.4209,0 0.8418,0 1.26269,0 0.16836,0 0.64328,0.0961 0.50508,0 -0.46027,-0.32022 -0.97206,-0.55915 -1.45809,-0.83873"
         style="fill:none;stroke:#000000;stroke-width:1px;stroke-linecap:butt;stroke-linejoin:miter;stroke-opacity:1" />
      <path
         inkscape:connector-curvature="0"
         id="path1486"
         d="m -210,637.99998 c 1.47799,-0.47761 2.9239,-1.06914 4.43396,-1.43284 0.49103,-0.11826 1.01015,0 1.51523,0 1.51522,0 3.03045,0 4.54568,0 3.61972,0 7.23943,0 10.85914,0 4.20897,0 8.41794,0 12.62691,0 1.34687,0 2.69621,-0.0815 4.04061,0 1.43828,0.0872 2.85471,0.42047 4.29315,0.50508 1.42858,0.084 2.8621,0 4.29315,0 1.26269,0 2.52538,0 3.78807,0 3.87225,0 7.7445,0 11.61675,0 3.36718,0 6.73435,0 10.10153,0 1.43105,0 2.8621,0 4.29315,0 0.42089,0 0.84179,0 1.26269,0 0.33671,0 0.68639,0.0925 1.01015,0 0.29183,-0.0834 0.47581,-0.39235 0.75761,-0.50508 0.15632,-0.0625 0.33901,0.0277 0.50508,0 0.34236,-0.0571 0.66779,-0.19547 1.01015,-0.25253 0.16607,-0.0277 0.34536,0.0532 0.50508,0 0.11294,-0.0376 0.13704,-0.22367 0.25254,-0.25254 0.24499,-0.0613 0.50851,0.0415 0.75761,0 0.26258,-0.0438 0.49659,-0.20033 0.75762,-0.25254 0.16508,-0.033 0.33998,0.033 0.50507,0 0.26103,-0.0522 0.49504,-0.20878 0.75762,-0.25254 0.2491,-0.0415 0.50998,0.0495 0.75761,0 0.36915,-0.0738 0.641,-0.43124 1.01015,-0.50508 0.24764,-0.0495 0.50508,0 0.75762,0 0.33671,0 0.67997,0.066 1.01015,0 0.26103,-0.0522 0.49659,-0.20033 0.75761,-0.25253 0.33018,-0.066 0.69072,0.10648 1.01016,0 0.11294,-0.0376 0.1396,-0.2149 0.25254,-0.25254 0.15971,-0.0532 0.33671,0 0.50507,0 0.0842,0 0.17725,0.0376 0.25254,0 0.10648,-0.0532 0.30733,-0.14685 0.25254,-0.25254 -0.25615,-0.49405 -0.70303,-0.86288 -1.05454,-1.29432"
         style="fill:none;stroke:#000000;stroke-width:1px;stroke-linecap:butt;stroke-linejoin:miter;stroke-opacity:1" />
      <path
         inkscape:connector-curvature="0"
         id="path1488"
         d="m -135,597.99998 c 0.38493,-0.69716 0.91854,-1.33096 1.15479,-2.09148 0.0499,-0.16078 -0.33672,0 -0.50508,0 -0.33672,0 -0.67343,0 -1.01015,0 -0.0842,0 -0.16836,0 -0.25254,0 -0.0842,0 -0.17725,-0.0376 -0.25254,0 -0.22383,0.11192 -0.52772,0.60436 -0.75761,0.75762 -0.15662,0.10441 -0.35449,0.1396 -0.50508,0.25254 -0.19047,0.14285 -0.33672,0.33671 -0.50507,0.50507 -0.16836,0.16836 -0.35634,0.31916 -0.50508,0.50508 -0.55928,0.6991 -0.82301,1.5034 -1.26269,2.27284 -0.30117,0.52705 -0.73868,0.97229 -1.01015,1.51523 -0.11905,0.2381 -0.13349,0.51952 -0.25254,0.75762 -0.13574,0.27147 -0.4091,0.46967 -0.50508,0.75761 -0.0799,0.23958 0.11294,0.53174 0,0.75761 -0.55387,1.10774 -0.77543,0.3238 -1.01015,1.2627 -0.0408,0.16333 0,0.33671 0,0.50507 0,0.50508 0,1.01015 0,1.51523 0,0.0998 -0.0539,1.15484 0,1.26269 0.0532,0.10648 0.1993,0.14606 0.25254,0.25254 0.0376,0.0753 -0.0595,0.19301 0,0.25254 0.0595,0.0595 0.17724,-0.0376 0.25254,0 0.10647,0.0532 0.16835,0.16836 0.25253,0.25254 0.33672,0.33671 0.67344,0.67343 1.01016,1.01015 0.0842,0.0842 0.1396,0.21489 0.25253,0.25254 0.15972,0.0532 0.33672,0 0.50508,0 0.0842,0 0.17725,-0.0376 0.25254,0 0.10648,0.0532 0.1396,0.21489 0.25254,0.25253 0.15972,0.0532 0.33671,0 0.50507,0 0.16836,0 0.33672,0 0.50508,0 0.25254,0 0.50508,0 0.75761,0 0.0842,0 0.19302,0.0595 0.25254,0 0.0595,-0.0595 -0.0376,-0.17724 0,-0.25253 0.0532,-0.10648 0.16836,-0.16836 0.25254,-0.25254 0.0842,-0.0842 0.15348,-0.1865 0.25254,-0.25254 0.36802,-0.24535 0.526,-0.15766 0.75761,-0.50508 0.10441,-0.15661 0.14813,-0.34846 0.25254,-0.50507 0.19426,-0.29139 0.56335,-0.46623 0.75762,-0.75762 0.10441,-0.15661 0.14812,-0.34846 0.25253,-0.50507 0.13207,-0.19811 0.37301,-0.30697 0.50508,-0.50508 0.20882,-0.31323 0.33672,-0.67343 0.50508,-1.01015 0.0842,-0.16836 0.14812,-0.34846 0.25253,-0.50508 0.066,-0.099 0.2149,-0.1396 0.25254,-0.25254 0.0532,-0.15972 -0.0408,-0.34174 0,-0.50507 0.0913,-0.36522 0.41377,-0.64493 0.50508,-1.01016 0.15851,-0.63405 -0.15852,-0.37609 0,-1.01015 0.0456,-0.18261 0.20688,-0.32246 0.25254,-0.50507 0.0572,-0.22894 0,-0.96933 0,-1.26269 0,-0.26263 0.0497,-1.31658 0,-1.51523 -0.0913,-0.36523 -0.36527,-0.66062 -0.50508,-1.01016 -0.14552,-0.36379 -0.25126,-0.92426 -0.50508,-1.26269 -0.14285,-0.19047 -0.373,-0.30697 -0.50507,-0.50507 -0.0467,-0.07 0.0595,-0.19302 0,-0.25254 -0.61337,-0.61337 -0.37084,0.0751 -0.75762,-0.50508 -0.10441,-0.15662 -0.14812,-0.34846 -0.25253,-0.50507 -0.066,-0.0991 -0.18651,-0.15349 -0.25254,-0.25254 -0.10441,-0.15662 -0.11944,-0.37198 -0.25254,-0.50508 -0.0595,-0.0595 -0.19302,0.0595 -0.25254,0 -0.0595,-0.0595 0.0595,-0.19301 0,-0.25254 -0.008,-0.008 -0.69637,0 -0.75761,0 -0.0842,0 -0.19302,-0.0595 -0.25254,0 -0.0595,0.0595 -0.0591,0.31248 0,0.25254 0.5846,-0.59278 1.08209,-1.26558 1.62313,-1.89837"
         style="fill:none;stroke:#ff0000;stroke-width:1px;stroke-linecap:butt;stroke-linejoin:miter;stroke-opacity:1" />
      <path
         inkscape:connector-curvature="0"
         id="path1490"
         d="m -160,622.99998 c -0.0364,-0.86509 0.0734,-1.74888 -0.10918,-2.59528 -0.0812,-0.37652 -1.18856,-0.23771 -1.26269,-0.25253 -0.18457,-0.0369 -0.32246,-0.20689 -0.50508,-0.25254 -1e-4,-3e-5 -1.21001,-0.0263 -1.26269,0 -0.10648,0.0532 -0.15348,0.1865 -0.25253,0.25254 -0.15662,0.10441 -0.37198,0.11943 -0.50508,0.25253 -0.1331,0.1331 -0.11944,0.37198 -0.25254,0.50508 -0.1331,0.1331 -0.33672,0.16836 -0.50508,0.25254 -0.16835,0.25254 -0.31547,0.52061 -0.50507,0.75761 -0.14874,0.18592 -0.31916,0.35634 -0.50508,0.50508 -0.237,0.1896 -0.56801,0.26807 -0.75761,0.50507 -0.16629,0.20787 -0.11558,0.52936 -0.25254,0.75762 -0.245,0.40833 -0.72444,0.6292 -1.01015,1.01015 -0.25382,0.33843 -0.35956,0.8989 -0.50508,1.26269 -0.0699,0.17477 -0.21562,0.3205 -0.25254,0.50508 -0.0495,0.24763 0.0938,0.52314 0,0.75761 -0.0884,0.22107 -0.41665,0.28401 -0.50507,0.50508 -0.0938,0.23447 0.0495,0.50998 0,0.75761 -0.0369,0.18458 -0.20689,0.32247 -0.25254,0.50508 -0.0513,0.20536 0,1.25086 0,1.51523 0,0.13206 -0.0332,0.94375 0,1.01015 0.0532,0.10648 0.1865,0.15349 0.25254,0.25254 0.10441,0.15662 0.14812,0.34846 0.25253,0.50508 0.066,0.0991 0.16836,0.16835 0.25254,0.25253 0.0842,0.0842 0.15349,0.18651 0.25254,0.25254 0.31324,0.20883 0.69692,0.29625 1.01015,0.50508 0.0991,0.066 0.14606,0.1993 0.25254,0.25254 0.0753,0.0376 0.17268,-0.0266 0.25254,0 0.17857,0.0595 0.32247,0.20688 0.50508,0.25253 0.16333,0.0408 0.34174,-0.0408 0.50507,0 0.18261,0.0457 0.32247,0.20689 0.50508,0.25254 0.19865,0.0497 1.25261,0 1.51523,0 0.16836,0 0.33671,0 0.50507,0 0.16836,0 0.34175,0.0408 0.50508,0 0.18261,-0.0457 0.32247,-0.20688 0.50508,-0.25254 0.16333,-0.0408 0.34174,0.0408 0.50507,0 0.47869,-0.11967 0.67473,-0.42218 1.01016,-0.75761 0.25253,-0.25254 0.50507,-0.50508 0.75761,-0.75761 0.0842,-0.0842 0.1865,-0.15349 0.25254,-0.25254 0.10441,-0.15662 0.14812,-0.34846 0.25254,-0.50508 0.066,-0.0991 0.1865,-0.15348 0.25253,-0.25254 0.20883,-0.31323 0.29626,-0.69691 0.50508,-1.01015 0.066,-0.099 0.22367,-0.13704 0.25254,-0.25254 0.0613,-0.245 -0.0495,-0.50998 0,-0.75761 0.0369,-0.18458 0.21562,-0.3205 0.25254,-0.50508 0.0495,-0.24763 0,-0.50507 0,-0.75761 0,-0.58926 0,-1.17851 0,-1.76777 0,-0.67343 0,-1.34687 0,-2.0203 0,-0.16836 0,-0.33672 0,-0.50508 0,-0.16836 0.0408,-0.34175 0,-0.50508 -0.0457,-0.18261 -0.20689,-0.32246 -0.25254,-0.50507 -0.0408,-0.16334 0.0408,-0.34175 0,-0.50508 -0.0913,-0.36522 -0.38603,-0.65301 -0.50508,-1.01015 -0.0266,-0.0799 0.0376,-0.17725 0,-0.25254 -0.10648,-0.21296 -0.39859,-0.29212 -0.50507,-0.50508 -0.0376,-0.0753 0.0595,-0.19301 0,-0.25253 -0.0595,-0.0595 -0.19302,0.0595 -0.25254,0 -0.0595,-0.0595 0.0152,-0.16975 0,-0.25254 -0.11702,-0.63615 -0.26393,-1.26643 -0.3959,-1.89965"
         style="fill:none;stroke:#ff0000;stroke-width:1px;stroke-linecap:butt;stroke-linejoin:miter;stroke-opacity:1" />
      <path
         inkscape:connector-curvature="0"
         id="path1492"
         d="m -180,637.99998 c -0.35661,0.0275 -0.72564,-0.0148 -1.06984,0.0824 -0.10067,0.0284 -2.4351,1.1982 -2.52539,1.26269 -0.29061,0.20759 -0.46699,0.55003 -0.75761,0.75762 -0.30634,0.21881 -0.69692,0.29625 -1.01015,0.50507 -0.19811,0.13208 -0.3146,0.36222 -0.50508,0.50508 -0.15058,0.11294 -0.35449,0.1396 -0.50507,0.25254 -0.19048,0.14286 -0.3146,0.36222 -0.50508,0.50507 -0.15059,0.11294 -0.37198,0.11944 -0.50508,0.25254 -0.1331,0.1331 -0.14812,0.34846 -0.25254,0.50508 -0.13207,0.19811 -0.373,0.30697 -0.50507,0.50508 -0.10441,0.15661 -0.11944,0.37197 -0.25254,0.50507 -0.61337,0.61337 -0.37083,-0.0751 -0.75761,0.50508 -0.10442,0.15662 -0.11944,0.37197 -0.25254,0.50507 -0.1331,0.1331 -0.35449,0.1396 -0.50508,0.25254 -0.19047,0.14286 -0.33672,0.33672 -0.50507,0.50508 -0.50508,0.50507 -1.01016,1.01015 -1.51523,1.51523 -0.16836,0.16836 -0.31916,0.35634 -0.50508,0.50507 -0.237,0.18961 -0.52061,0.31548 -0.75761,0.50508 -0.37185,0.29747 -0.67344,0.67343 -1.01016,1.01015 -0.0842,0.0842 -0.15348,0.1865 -0.25254,0.25254 -0.15661,0.10441 -0.34845,0.14813 -0.50507,0.25254 -0.0991,0.066 -0.16836,0.16836 -0.25254,0.25254 -0.25254,0.25254 -0.50508,0.50507 -0.75761,0.75761 -0.0842,0.0842 -0.15349,0.1865 -0.25254,0.25254 -0.15662,0.10441 -0.37198,0.11944 -0.50508,0.25254 -0.1331,0.1331 -0.14812,0.34846 -0.25254,0.50507 -0.066,0.0991 -0.19929,0.14606 -0.25253,0.25254 -0.0376,0.0753 0.0595,0.19302 0,0.25254 -0.37159,0 -0.19302,-0.0595 -0.50508,0.25254 -0.0842,0.0842 -0.16836,0.16836 -0.25254,0.25254 -0.0842,0.0842 -0.1993,0.14606 -0.25254,0.25253 -0.0376,0.0753 0.0376,0.17725 0,0.25254 -0.0532,0.10648 -0.16836,0.16836 -0.25254,0.25254 -0.0842,0.0842 -0.16835,0.16836 -0.25253,0.25254 -0.25254,0.25254 -0.50508,0.50508 -0.75762,0.75761 -0.0842,0.0842 -0.15348,0.18651 -0.25254,0.25254 -0.15661,0.10441 -0.37197,0.11944 -0.50507,0.25254 -0.0595,0.0595 0.0376,0.17725 0,0.25254 -0.5255,1.051 0.0174,-0.26997 -0.50508,0.25254 -0.0595,0.0595 0.0595,0.19301 0,0.25253 -0.0595,0.0595 -0.27732,-0.0804 -0.25254,0 0.2643,0.85797 0.68024,1.66165 1.02036,2.49248"
         style="fill:none;stroke:#00ff00;stroke-width:1px;stroke-linecap:butt;stroke-linejoin:miter;stroke-opacity:1" />
      <path
         inkscape:connector-curvature="0"
         id="path1494"
         d="m -200,637.99998 c 0.0601,1.72386 0.37235,2.36274 0.99995,3.61793 0.0842,0.16836 0.1396,0.35449 0.25254,0.50507 0.14285,0.19048 0.36222,0.3146 0.50507,0.50508 0.22588,0.30117 0.2792,0.70898 0.50508,1.01015 0.14286,0.19048 0.33672,0.33672 0.50508,0.50508 0.16835,0.16836 0.33671,0.33672 0.50507,0.50507 0.16836,0.16836 0.33672,0.33672 0.50508,0.50508 0.16836,0.16836 0.3146,0.36222 0.50507,0.50508 0.15059,0.11294 0.34846,0.14812 0.50508,0.25253 0.3215,0.21434 0.69898,0.77678 1.01015,1.01016 0.15059,0.11294 0.3581,0.13495 0.50508,0.25254 0.27888,0.2231 0.48325,0.52897 0.75761,0.75761 0.23317,0.1943 0.52445,0.31077 0.75762,0.50508 0.27436,0.22863 0.46699,0.55003 0.75761,0.75761 0.30634,0.21881 0.69092,0.30555 1.01016,0.50508 0.35691,0.22307 0.64222,0.55321 1.01015,0.75761 0.39627,0.22015 0.84844,0.32097 1.26269,0.50508 2.29925,1.14962 -0.0902,0.0144 1.76777,0.75761 0.34953,0.13982 0.653,0.38603 1.01015,0.50508 0.0799,0.0266 0.17724,-0.0376 0.25254,0 1.051,0.5255 -0.26998,-0.0174 0.25253,0.50507 0.0595,0.0595 0.19302,-0.0595 0.25254,0 0.1331,0.1331 0.1396,0.3545 0.25254,0.50508 0.14286,0.19048 0.33672,0.33672 0.50508,0.50508 0.33671,0.33671 0.67343,0.67343 1.01015,1.01015 0.25254,0.25254 0.47873,0.53451 0.75761,0.75761 0.14699,0.11759 0.34367,0.1557 0.50508,0.25254 0.26026,0.15616 0.49735,0.34892 0.75761,0.50508 0.16141,0.0968 0.32651,0.19301 0.50508,0.25254 0.0799,0.0266 0.19301,-0.0595 0.25254,0 0.0595,0.0595 -0.003,0.16842 0,0.25253 0.0165,0.41008 0.0398,0.81986 0.0597,1.22979"
         style="fill:none;stroke:#00ff00;stroke-width:1px;stroke-linecap:butt;stroke-linejoin:miter;stroke-opacity:1" />
      <path
         inkscape:connector-curvature="0"
         id="path1496"
         d="m -130,637.99998 c 0.40185,1.1218 0.90202,2.2131 1.20555,3.36539 0.0556,0.21095 -0.47618,0.294 -0.75761,0.50507 -0.19048,0.14286 -0.33672,0.33672 -0.50508,0.50508 -0.16836,0.16836 -0.35634,0.31916 -0.50508,0.50508 -0.1896,0.237 -0.31547,0.52061 -0.50507,0.75761 -0.14874,0.18592 -0.33672,0.33672 -0.50508,0.50508 -0.4209,0.42089 -0.89085,0.79789 -1.26269,1.26269 -0.11759,0.14698 -0.1396,0.35449 -0.25254,0.50507 -0.28571,0.38096 -0.72444,0.62921 -1.01015,1.01016 -0.11294,0.15058 -0.1396,0.35449 -0.25254,0.50507 -0.14286,0.19048 -0.35634,0.31916 -0.50507,0.50508 -0.18961,0.237 -0.31548,0.52061 -0.50508,0.75761 -0.22311,0.27889 -0.54333,0.4719 -0.75762,0.75762 -0.1821,0.24281 -0.34892,0.49735 -0.50507,0.75761 -0.0968,0.16141 -0.1396,0.35449 -0.25254,0.50508 -0.14286,0.19048 -0.36222,0.3146 -0.50508,0.50508 -0.11293,0.15058 -0.1396,0.35449 -0.25253,0.50507 -0.38291,0.51054 -0.49393,0.4995 -1.01016,0.75762 -0.16836,0.0842 -0.37197,0.11944 -0.50507,0.25253 -0.1331,0.1331 -0.11944,0.37198 -0.25254,0.50508 -0.1331,0.1331 -0.34846,0.14813 -0.50508,0.25254 -0.0991,0.066 -0.16836,0.16836 -0.25254,0.25254 -0.25253,0.25254 -0.50507,0.50507 -0.75761,0.75761 -0.0842,0.0842 -0.14606,0.1993 -0.25254,0.25254 -0.0753,0.0377 -0.17724,-0.0377 -0.25254,0 -0.30304,0.15152 -0.45457,0.60609 -0.75761,0.75761 -0.0753,0.0377 -0.19302,-0.0595 -0.25254,0 -0.0595,0.0595 0.0753,0.2149 0,0.25254 -0.15058,0.0753 -0.38603,-0.11905 -0.50508,0 -0.11904,0.11905 0.0753,0.35449 0,0.50508 -0.0376,0.0753 -0.17724,-0.0377 -0.25253,0 -0.10648,0.0532 -0.16836,0.16836 -0.25254,0.25254 -0.67533,0.67532 -0.16588,0.17092 -1.55834,1.48232"
         style="fill:none;stroke:#00ff00;stroke-width:1px;stroke-linecap:butt;stroke-linejoin:miter;stroke-opacity:1" />
      <path
         inkscape:connector-curvature="0"
         id="path1498"
         d="m -145,642.99998 c 0.43527,-0.37651 0.82804,-0.80866 1.3058,-1.12954 0.0699,-0.0469 -0.0266,0.17268 0,0.25254 0.0595,0.17857 0.16836,0.33672 0.25254,0.50508 0.0842,0.16836 0.11944,0.37198 0.25254,0.50508 0.1331,0.13309 0.37197,0.11943 0.50507,0.25253 0.46541,0.46541 0.4587,0.7645 0.75762,1.26269 1.01015,1.68359 -0.0842,-0.0842 1.26269,1.26269 0.1331,0.1331 0.15569,0.34367 0.25254,0.50508 0.15615,0.26026 0.31547,0.52061 0.50507,0.75762 0.44348,0.55435 1.07175,0.96087 1.51523,1.51522 0.1896,0.23701 0.31547,0.52061 0.50508,0.75762 0.542,0.67751 0.53347,0.42678 1.26269,1.01015 0.18592,0.14874 0.31915,0.35634 0.50507,0.50508 0.23701,0.1896 0.50508,0.33672 0.75762,0.50507 0.25254,0.16836 0.48614,0.36934 0.75761,0.50508 0.2381,0.11905 0.51952,0.13349 0.75762,0.25254 0.27147,0.13573 0.49735,0.34892 0.75761,0.50507 1.10331,0.66199 -0.1828,-0.21767 1.26269,0.50508 0.10648,0.0532 0.15349,0.1865 0.25254,0.25254 0.31324,0.20882 0.69692,0.29625 1.01015,0.50508 0.0991,0.066 0.15349,0.1865 0.25254,0.25253 0.58978,0.39319 1.43053,0.61697 2.02031,1.01016 0.099,0.066 0.14606,0.19929 0.25253,0.25253 0.62199,0.311 -0.22797,-0.73305 0.75762,0.25254 0.0595,0.0595 -0.0595,0.19302 0,0.25254 0.0595,0.0595 0.18909,-0.0553 0.25254,0 0.71314,0.62183 1.35112,1.32493 2.02668,1.9874"
         style="fill:none;stroke:#00ff00;stroke-width:1px;stroke-linecap:butt;stroke-linejoin:miter;stroke-opacity:1" />
    </g>
    <g
       id="g1891"
       transform="matrix(0.98594836,-0.05189289,0.05167136,0.99017548,281.97384,349.6373)">
      <path
         inkscape:connector-curvature="0"
         id="path1500"
         d="m -120,392.99998 c 0.099,0.67148 0.24865,1.33742 0.29692,2.01444 0.009,0.13276 -0.10438,0.24751 -0.12627,0.3788 -0.0484,0.29062 0.0325,0.59106 0,0.88389 -0.0237,0.2133 -0.10491,0.41779 -0.12626,0.63134 -0.021,0.20941 0,0.4209 0,0.63135 0,0.25254 0,0.50507 0,0.75761 0,1.47314 0,2.94628 0,4.41942 0,1.09433 0,2.18866 0,3.28299 0,0.37881 0,0.75762 0,1.13643 0,0.42089 -0.0399,0.84369 0,1.26269 0.0446,0.46845 0.21177,0.92015 0.25253,1.38896 0.0438,0.50317 0,1.01015 0,1.51523 0,1.73139 -0.0489,1.64775 0.12627,3.28299 0.74808,5.98464 -0.19926,-1.93278 0.37881,4.04061 0.1227,1.26794 0.38617,2.51977 0.50508,3.78807 0.0669,0.71364 0.0156,1.43841 0.12626,2.14658 0.10088,0.64557 0.39406,1.25013 0.50508,1.89403 0.10037,0.58217 0.0187,1.18689 0.12627,1.76777 0.78883,4.25968 0.31109,-1.05595 0.75761,3.40927 0.0671,0.6714 0.0591,1.3489 0.12627,2.0203 7e-5,6.4e-4 0.50469,3.53265 0.50508,3.53554 0.0897,0.67272 0.14096,1.35086 0.25254,2.0203 0.0991,0.59443 0.27973,1.17333 0.37881,1.76777 0.11157,0.66944 0.16568,1.34721 0.25253,2.0203 0.16302,1.26339 0.374,2.52097 0.50508,3.78807 0.0608,0.58763 0.0633,1.18038 0.12627,1.76777 0.12682,1.1837 0.35741,2.35425 0.50507,3.53554 0.0525,0.41972 0.10866,0.84006 0.12627,1.26269 0.0245,0.58874 0,1.17851 0,1.76776 0,1.72568 0,3.45136 0,5.17703 0,1.22061 0,2.44121 0,3.66181 0,0.3788 0.0236,0.75835 0,1.13642 -0.0186,0.29704 -0.12627,0.58626 -0.12627,0.88388 0,0.25602 0.12627,0.5016 0.12627,0.75762 0,0.25602 -0.10079,0.50286 -0.12627,0.75761 -0.0168,0.16752 0,0.33672 0,0.50508 -0.0421,0.16836 -0.10474,0.33287 -0.12626,0.50507 -0.006,0.0502 0.006,0.99074 0,1.01016 -0.0376,0.11294 -0.20833,0.142 -0.25254,0.25253 -0.0469,0.11724 0.0248,0.25499 0,0.37881 -0.0369,0.18458 -0.19302,0.32651 -0.25254,0.50508 -0.0133,0.0399 0,0.0842 0,0.12627 -0.0421,0.0842 -0.0842,0.16836 -0.12627,0.25254 -0.0421,0.0842 -0.0741,0.17422 -0.12627,0.25253 -0.13631,0.20448 -0.25254,0.0886 -0.25254,0.37881"
         style="fill:none;stroke:#000000;stroke-width:1px;stroke-linecap:butt;stroke-linejoin:miter;stroke-opacity:1" />
      <path
         inkscape:connector-curvature="0"
         id="path1502"
         d="m -90,392.99998 c 0.537217,0.88193 1.251814,1.67784 1.611652,2.64578 0.120942,0.32533 -0.168359,0.67344 -0.252538,1.01015 -0.08418,0.33672 -0.177246,0.67134 -0.252538,1.01016 -0.197006,0.88652 -0.368012,1.887 -0.505076,2.77792 -0.09051,0.58831 -0.215409,1.17368 -0.252538,1.76776 -0.04726,0.75614 0,1.51523 0,2.27285 0,0.75761 0,1.51523 0,2.27284 0,3.71014 0,1.84569 0,5.55584 0,15.99408 0,31.98816 0,47.98224 0,5.21913 0,10.43825 0,15.65737 0,0.14551 -0.04602,1.17065 0,1.26269 0.312061,0.62412 0.252538,-0.0872 0.252538,0.50508 0,0.0842 0,0.16836 0,0.25253 0,0.0842 0.0841,0.2488 0,0.25254 -0.213945,0.01 -0.401,-0.1505 -0.6015,-0.22575"
         style="fill:none;stroke:#000000;stroke-width:1px;stroke-linecap:butt;stroke-linejoin:miter;stroke-opacity:1" />
      <path
         inkscape:connector-curvature="0"
         id="path1504"
         d="m -150,417.99998 c 0.75506,-0.0436 1.51309,-0.21064 2.26519,-0.13086 0.45079,0.0478 0.82534,0.3858 1.26269,0.50507 0.60011,0.16367 3.10736,0.45471 3.53553,0.50508 0.75706,0.0891 1.51523,0.16836 2.27285,0.25254 0.75761,0.0842 1.51162,0.21247 2.27284,0.25254 0.84063,0.0442 1.68359,0 2.52538,0 0.75762,0 1.51523,0 2.27285,0 2.52538,0 5.05076,0 7.57614,0 1.68359,0 3.36717,0 5.05076,0 0.92598,0 1.85612,0.0878 2.77792,0 7.33389,-0.69847 -2.24996,-0.39258 5.05076,-0.75762 0.84075,-0.042 1.68359,0 2.52539,0 0.67343,0 1.35099,0.0744 2.0203,0 0.85322,-0.0948 1.67118,-0.41965 2.52538,-0.50507 0.83762,-0.0838 1.68359,0 2.52538,0 0.58926,0 1.17852,0 1.76777,0 0.75762,0 1.51523,0 2.272844,0 0.505076,0 1.011897,-0.0419 1.515229,0 0.510274,0.0425 1.004694,0.21326 1.515229,0.25253 0.58752,0.0452 1.178511,0 1.767767,0 0.589255,0 1.178511,0 1.767767,0 1.851946,0 3.703892,0 5.555839,0 2,0 1.030457,0 3.030457,0 0.336718,0 0.675495,0.0372 1.010153,0 0.426607,-0.0474 0.836084,-0.20513 1.262691,-0.25253 0.334658,-0.0372 0.673435,0 1.010152,0 0.336718,0 0.675495,-0.0372 1.010153,0 1.49621,0.16624 1.086996,0.27815 2.525381,0.75761 0.879874,0.29329 1.592848,0.31857 2.525381,0.50508 0.340341,0.0681 0.676427,0.15718 1.010153,0.25253 0.255956,0.0731 0.494091,0.2149 0.757614,0.25254 0.333334,0.0476 0.673435,0 1.010153,0 0.252538,0 0.505076,0 0.757614,0 0.252538,0 0.518036,-0.0799 0.757615,0 0.112938,0.0377 0.146058,0.1993 0.252538,0.25254 0.07529,0.0376 0.172678,-0.0266 0.252538,0 0.178571,0.0595 0.330308,0.18263 0.505076,0.25254 0.494319,0.19773 1.025879,0.29535 1.515229,0.50508 0.346023,0.14829 0.657661,0.37289 1.010153,0.50507 0.324981,0.12187 0.673435,0.16836 1.010152,0.25254 0.336718,0.0842 0.666561,0.20345 1.010153,0.25254 3.12469,0.44638 -1.696484,-0.55039 1.515229,0.25254 0.163332,0.0408 0.354491,-0.0753 0.505076,0 0.106479,0.0532 0.146059,0.19929 0.252538,0.25253 0.150585,0.0753 0.345357,-0.0532 0.505076,0 1.010153,0.33672 -0.05106,0.24233 1.262691,0.50508 0.165089,0.033 0.336717,0 0.505076,0 0.168359,0.0842 0.322466,0.20689 0.505076,0.25254 0.163332,0.0408 0.345358,-0.0532 0.505077,0 0.112938,0.0376 0.146058,0.1993 0.252538,0.25254 0.07529,0.0376 0.323109,0.0459 0.252538,0 -0.279667,-0.18186 -0.604051,-0.28332 -0.906076,-0.42498"
         style="fill:none;stroke:#000000;stroke-width:1px;stroke-linecap:butt;stroke-linejoin:miter;stroke-opacity:1" />
      <path
         inkscape:connector-curvature="0"
         id="path1506"
         d="m -145,447.99998 c 0.77198,-0.27881 1.51405,-0.66136 2.31595,-0.83644 0.49346,-0.10773 1.01016,0 1.51523,0 1.59941,0 3.19882,0 4.79823,0 4.20897,0 8.41793,0 12.6269,0 14.22632,0 28.452633,0 42.678948,0 1.262691,0 2.525382,0 3.788072,0 0.420897,0 0.846024,0.0595 1.262691,0 0.186339,-0.0266 0.319406,-0.22159 0.505076,-0.25254 0.243878,-0.0407 2.391987,0 2.525382,0 1.683587,0 3.367175,0 5.050762,0 0.925973,0 1.851947,0 2.77792,0 0.252538,0 0.505076,0 0.757614,0 0.08418,0 0.177246,0.0376 0.252538,0 0.10648,-0.0532 0.146059,-0.19929 0.252538,-0.25253 0.07529,-0.0377 0.168359,0 0.252539,0 0.08418,0 0.177245,-0.0377 0.252538,0 0.106479,0.0532 0.139599,0.21489 0.252538,0.25253 0.151631,0.0505 0.865264,-0.0664 1.010152,0 0.723434,0.33144 1.416255,0.72599 2.124382,1.08898"
         style="fill:none;stroke:#000000;stroke-width:1px;stroke-linecap:butt;stroke-linejoin:miter;stroke-opacity:1" />
      <path
         inkscape:connector-curvature="0"
         id="path1508"
         d="m -100,422.99998 c -0.84349,0.0575 -1.68533,0.19474 -2.53048,0.17244 -0.18817,-0.005 -0.32247,-0.20689 -0.50508,-0.25254 -0.19205,-0.048 -1.05122,0 -1.26269,0 -0.16836,0 -0.33672,0 -0.50508,0 -0.0842,0 -0.17268,-0.0266 -0.25253,0 -0.17858,0.0595 -0.33672,0.16836 -0.50508,0.25254 -0.16836,0.0842 -0.35449,0.1396 -0.50508,0.25254 -0.19047,0.14285 -0.33671,0.33671 -0.50507,0.50507 -0.16836,0.16836 -0.33672,0.33672 -0.50508,0.50508 -0.16836,0.16836 -0.33672,0.33672 -0.50508,0.50508 -0.25253,0.16835 -0.54299,0.29046 -0.75761,0.50507 -0.1331,0.1331 -0.1396,0.35449 -0.25254,0.50508 -0.14286,0.19047 -0.35634,0.31915 -0.50508,0.50507 -0.45829,0.29526 -0.4631,0.87002 -0.75761,1.2627 -1.47979,1.97305 0.44953,-1.15161 -0.75761,1.26269 -0.27147,0.54294 -0.77104,0.95728 -1.01016,1.51522 -0.13672,0.31902 -0.15718,0.67643 -0.25253,1.01016 -0.0731,0.25595 -0.16836,0.50507 -0.25254,0.75761 -0.16836,0.50508 -0.33672,1.01015 -0.50508,1.51523 -0.0842,0.25254 -0.20877,0.49504 -0.25254,0.75762 -0.0969,0.58123 0.0969,1.18652 0,1.76776 -0.16848,1.01092 -0.51683,-0.0588 -0.25254,1.26269 0.0369,0.18458 0.20689,0.32247 0.25254,0.50508 0.0408,0.16333 -0.033,0.33999 0,0.50508 0.12627,0.63135 0.47373,1.19998 0.75762,1.76776 0.0842,0.16836 0.16836,0.33672 0.25254,0.50508 0.0842,0.16836 0.11943,0.37198 0.25253,0.50507 0.1331,0.1331 0.3545,0.1396 0.50508,0.25254 0.50314,0.37736 0.39887,0.6048 1.01015,0.75762 0.16333,0.0408 0.34536,-0.0532 0.50508,0 0.11294,0.0376 0.16836,0.16836 0.25254,0.25254 0.16836,0.0842 0.32246,0.20688 0.50507,0.25253 0.16334,0.0408 0.33672,0 0.50508,0 0.16836,0 0.33672,0 0.50508,0 0.50507,0 1.01015,0 1.51522,0 0.25254,0 0.50508,0 0.75762,0 0.33672,0 0.68145,0.073 1.01015,0 0.5804,-0.12897 1.71411,-0.73078 2.27284,-1.01015 0.33672,-0.16836 0.6833,-0.3183 1.01016,-0.50508 0.59515,-0.34008 1.22574,-0.87553 1.767764,-1.26269 0.246979,-0.17641 0.542998,-0.29046 0.757615,-0.50507 0.410179,-0.41018 0.746059,-1.30561 1.010152,-1.76777 0.150585,-0.26352 0.369341,-0.48614 0.505076,-0.75761 0.119048,-0.2381 0.168359,-0.50508 0.252539,-0.75762 0.08418,-0.25254 0.168358,-0.50507 0.252538,-0.75761 0.08418,-0.25254 0.168358,-0.50508 0.252538,-0.75762 0.08418,-0.25253 0.214892,-0.49409 0.252538,-0.75761 0.04762,-0.33333 0,-0.67344 0,-1.01015 0,-0.25254 0,-0.50508 0,-0.75762 0,-0.25254 0,-0.50507 0,-0.75761 0,-0.25254 0.04152,-0.50851 0,-0.75762 -0.04376,-0.26257 -0.168359,-0.50507 -0.252538,-0.75761 -0.08418,-0.25254 -0.153675,-0.51046 -0.252538,-0.75762 -0.06991,-0.17476 -0.182631,-0.3303 -0.252538,-0.50507 -0.09886,-0.24716 -0.115581,-0.52935 -0.252539,-0.75762 -0.04936,-0.60996 -0.757614,-0.42089 -1.010152,-0.75761 -0.159719,-0.21296 -0.08625,-0.54975 -0.252538,-0.75762 -0.189603,-0.237 -0.520611,-0.31547 -0.757615,-0.50507 -0.185921,-0.14874 -0.336717,-0.33672 -0.505076,-0.50508 -0.336716,-0.33672 -0.673436,-0.67343 -1.010156,-1.01015 -0.0842,-0.0842 -0.16836,-0.16836 -0.25253,-0.25254 -0.0842,-0.0842 -0.14606,-0.1993 -0.25254,-0.25254 -0.15059,-0.0753 -0.35449,0.0753 -0.50508,0 -0.33672,-0.16836 -0.1828,-0.53994 -0.75761,-0.25253 -0.0753,0.0376 0.0812,0.2748 0,0.25253 -0.84827,-0.23272 -1.64635,-0.62003 -2.46952,-0.93005"
         style="fill:none;stroke:#ff00ff;stroke-width:1px;stroke-linecap:butt;stroke-linejoin:miter;stroke-opacity:1" />
      <path
         inkscape:connector-curvature="0"
         id="path1510"
         d="m -130,397.99998 c -1.39801,0.39141 -2.35453,0.4237 -3.59267,0.4237 -0.0842,0 -0.19302,-0.0595 -0.25254,0 -0.0595,0.0595 0.0595,0.19302 0,0.25254 -0.0392,0.0392 -0.65935,-0.0328 -0.75762,0 -0.17857,0.0595 -0.3265,0.19301 -0.50507,0.25254 -0.0799,0.0266 -0.17725,-0.0376 -0.25254,0 -0.10648,0.0532 -0.14606,0.1993 -0.25254,0.25254 -0.0753,0.0376 -0.16836,0 -0.25254,0 -0.16836,0 -0.34174,-0.0408 -0.50507,0 -0.18261,0.0456 -0.34846,0.14812 -0.50508,0.25253 -0.099,0.066 -0.15348,0.18651 -0.25254,0.25254 -0.15662,0.10441 -0.34846,0.14813 -0.50507,0.25254 -0.37161,0.24774 -0.63855,0.76242 -1.01016,1.01015 -0.15661,0.10441 -0.37197,0.11944 -0.50507,0.25254 -0.1331,0.1331 -0.16836,0.33672 -0.25254,0.50508 -0.0842,0.16836 -0.16836,0.33671 -0.25254,0.50507 -0.16836,0.33672 -0.36526,0.66062 -0.50508,1.01016 -0.0989,0.24715 -0.15367,0.51045 -0.25253,0.75761 -0.0699,0.17477 -0.20689,0.32247 -0.25254,0.50508 -0.0408,0.16333 0.0408,0.34174 0,0.50507 -0.0913,0.36522 -0.43125,0.641 -0.50508,1.01016 -0.0825,0.41272 0,0.84179 0,1.26269 0,0.16835 0,0.33671 0,0.50507 0,0.16836 -0.0408,0.34175 0,0.50508 0.0457,0.18261 0.16836,0.33672 0.25254,0.50507 0.0842,0.16836 0.1396,0.3545 0.25254,0.50508 0.14286,0.19048 0.36222,0.3146 0.50507,0.50508 0.11294,0.15058 0.11944,0.37197 0.25254,0.50507 0.21462,0.21462 0.543,0.29046 0.75762,0.50508 0.21461,0.21462 0.29046,0.543 0.50507,0.75761 0.21462,0.21462 0.52061,0.31548 0.75762,0.50508 0.37184,0.29747 0.6292,0.72444 1.01015,1.01015 0.15058,0.11294 0.35449,0.1396 0.50508,0.25254 0.83451,0.62589 0.13689,0.40831 1.01015,0.75762 0.49432,0.19772 1.02091,0.30734 1.51523,0.50507 0.17477,0.0699 0.3205,0.21562 0.50507,0.25254 0.24764,0.0495 0.50508,0 0.75762,0 0.25254,0 0.50507,0 0.75761,0 0.16836,0 0.33999,0.033 0.50508,0 0.74714,-0.14943 1.93904,-0.79362 2.52538,-1.26269 0.18592,-0.14874 0.33672,-0.33672 0.50508,-0.50508 0.16836,-0.16836 0.36222,-0.3146 0.50507,-0.50507 0.11294,-0.15059 0.1396,-0.3545 0.25254,-0.50508 0.14286,-0.19048 0.36222,-0.3146 0.50508,-0.50508 0.11294,-0.15058 0.1396,-0.35449 0.25254,-0.50507 0.14285,-0.19048 0.41665,-0.28401 0.50507,-0.50508 0.0938,-0.23447 -0.0938,-0.52314 0,-0.75761 0.0884,-0.22107 0.41665,-0.28401 0.50508,-0.50508 0.0182,-0.0455 -0.0175,-1.41042 0,-1.51523 0.0438,-0.26257 0.20877,-0.49504 0.25254,-0.75761 0.0415,-0.2491 0,-0.50508 0,-0.75762 0,-0.25253 0.0415,-0.50851 0,-0.75761 -0.0438,-0.26258 -0.20878,-0.49504 -0.25254,-0.75762 -0.0415,-0.2491 0.0415,-0.50851 0,-0.75761 -0.36947,-2.21682 -0.0929,0.38603 -0.50508,-1.26269 -0.0408,-0.16333 0.0532,-0.34536 0,-0.50508 -0.0376,-0.11294 -0.1865,-0.15348 -0.25254,-0.25254 -0.10441,-0.15661 -0.19301,-0.3265 -0.25253,-0.50507 -0.0266,-0.0799 0.0467,-0.1825 0,-0.25254 -0.13208,-0.19811 -0.33672,-0.33672 -0.50508,-0.50508 -0.16836,-0.16835 -0.33672,-0.33671 -0.50508,-0.50507 -0.25254,-0.25254 -0.4719,-0.54333 -0.75761,-0.75762 -0.0775,-0.0581 -0.98255,-0.47086 -1.01015,-0.50507 -0.21582,-0.26752 -0.13201,-0.79338 -0.44794,-0.92878 -0.40776,-0.17475 -0.87654,0.18853 -1.31983,0.17116 -0.266,-0.0104 -1.0216,-0.2183 -0.75762,-0.25254 0.68726,-0.0891 1.38497,0.0542 2.07745,0.0814"
         style="fill:none;stroke:#ff00ff;stroke-width:1px;stroke-linecap:butt;stroke-linejoin:miter;stroke-opacity:1" />
      <path
         inkscape:connector-curvature="0"
         id="path1512"
         d="m -65,447.99998 c -0.977586,0.98388 -1.955172,1.96776 -2.932759,2.95163 -0.168359,0.25254 -0.310772,0.52445 -0.505076,0.75762 -0.457275,0.54873 -1.050378,0.9729 -1.515229,1.51523 -0.273916,0.31957 -0.480452,0.69339 -0.757614,1.01015 -1.34476,1.53687 -0.596508,0.52194 -2.020305,1.76777 -1.421808,1.24408 -0.623644,0.68549 -1.767767,2.0203 -0.232426,0.27116 -0.486452,0.52519 -0.757615,0.75762 -0.319568,0.27391 -0.736236,0.43804 -1.010152,0.75761 -0.244998,0.28583 -0.318299,0.68329 -0.505077,1.01015 -0.150584,0.26353 -0.336717,0.50508 -0.505076,0.75762 -0.168359,0.25254 -0.336717,0.50507 -0.505076,0.75761 -0.252538,0.33672 -0.524143,0.65995 -0.757614,1.01015 -0.104412,0.15662 -0.1396,0.3545 -0.252539,0.50508 -0.142857,0.19048 -0.382577,0.30091 -0.505076,0.50508 -0.136958,0.22826 -0.13349,0.51952 -0.252538,0.75761 -0.135735,0.27147 -0.34892,0.49736 -0.505076,0.75762 -0.193688,0.32281 -0.336718,0.67343 -0.505077,1.01015 -0.08418,0.16836 -0.168358,0.33672 -0.252538,0.50507 -0.08418,0.16836 -0.139599,0.3545 -0.252538,0.50508 -0.142857,0.19048 -0.362219,0.3146 -0.505076,0.50508 -0.112939,0.15058 -0.1396,0.35449 -0.252538,0.50507 -0.142857,0.19048 -0.362219,0.3146 -0.505077,0.50508 -0.112938,0.15058 -0.139599,0.35449 -0.252538,0.50508 -0.142857,0.19047 -0.362219,0.3146 -0.505076,0.50507 -0.112938,0.15059 -0.168359,0.33672 -0.252538,0.50508 -0.08418,0.16836 -0.193014,0.3265 -0.252538,0.50507 -0.02662,0.0799 0.03765,0.17725 0,0.25254 -0.05324,0.10648 -0.199299,0.14606 -0.252538,0.25254 -0.03765,0.0753 0.02662,0.17268 0,0.25254 -0.05952,0.17857 -0.193015,0.3265 -0.252538,0.50508 -0.05324,0.15971 0.119047,0.38602 0,0.50507 -0.05952,0.0595 -0.193015,-0.0595 -0.252539,0 -0.119047,0.11905 0.119048,0.38603 0,0.50508 -0.183821,0.18382 -0.474719,-0.23764 -0.652262,-0.42753"
         style="fill:none;stroke:#00ffff;stroke-width:1px;stroke-linecap:butt;stroke-linejoin:miter;stroke-opacity:1" />
      <path
         inkscape:connector-curvature="0"
         id="path1514"
         d="m -85,452.99998 c 0.314275,0.30707 -0.921043,1.37102 -0.610428,1.99224 0.106479,0.21296 0.356339,0.31916 0.505076,0.50508 0.189603,0.237 0.29046,0.543 0.505076,0.75761 0.214616,0.21462 0.581201,0.2581 0.757615,0.50508 0.263486,0.36888 0.206563,0.92153 0.505076,1.26269 0.323224,0.3694 0.854282,0.48534 1.262691,0.75762 0.350207,0.23347 0.66534,0.51624 1.010152,0.75761 2.998248,2.09877 0.02978,0.0174 3.030458,1.76777 0.524336,0.30586 0.972288,0.73868 1.515229,1.01015 0.47619,0.2381 1.047839,0.25014 1.515228,0.50508 0.473196,0.2581 0.807948,0.72077 1.262691,1.01015 0.476409,0.30317 1.045376,0.44438 1.515229,0.75761 0.297161,0.19811 0.488837,0.52244 0.757614,0.75762 0.01744,0.0153 1.513738,1.13418 1.767767,1.51523 0.208824,0.31323 0.238878,0.74395 0.505077,1.01015 0.266198,0.2662 0.743954,0.23888 1.010152,0.50508 0.266199,0.26619 0.260078,0.72432 0.505076,1.01015 0.273916,0.31957 0.736237,0.43804 1.010153,0.75761 0.244998,0.28583 0.286262,0.70382 0.505076,1.01015 0.207585,0.29062 0.528977,0.48325 0.757615,0.75762 0.388608,0.46633 0.58092,1.086 1.010152,1.51523 0.133099,0.1331 0.336718,0.16836 0.505076,0.25254 0.252539,0.16835 0.542999,0.29046 0.757615,0.50507 0.05952,0.0595 -0.05952,0.19302 0,0.25254 0.133099,0.1331 0.371977,0.11944 0.505076,0.25254 0.133099,0.1331 0.119439,0.37198 0.252538,0.50507 0.1331,0.1331 0.371977,0.11944 0.505077,0.25254 0.214616,0.21462 0.29046,0.543 0.505076,0.75762 0.429232,0.42923 1.041221,0.63094 1.515229,1.01015 0.185921,0.14874 0.336717,0.33672 0.505076,0.50508 0.08418,0.0842 0.146059,0.19929 0.252538,0.25253 0.07529,0.0376 0.193014,-0.0595 0.252538,0 0.05952,0.0595 0.08416,0.2506 0,0.25254 -0.393362,0.009 -0.772409,-0.1505 -1.158614,-0.22575"
         style="fill:none;stroke:#00ffff;stroke-width:1px;stroke-linecap:butt;stroke-linejoin:miter;stroke-opacity:1" />
      <path
         inkscape:connector-curvature="0"
         id="path1516"
         d="m -125,422.99998 c 0.25041,0.81509 0.67376,1.59612 0.75124,2.44528 0.0171,0.18745 -0.35449,0.1396 -0.50508,0.25254 -0.19048,0.14286 -0.31915,0.35634 -0.50508,0.50508 -0.474,0.3792 -1.04889,0.62154 -1.51522,1.01015 -1.50179,1.25149 -0.0104,0.32218 -1.51523,1.26269 -1.1742,0.73387 -1.20283,0.56151 -2.02031,1.51523 -0.27391,0.31957 -0.45999,0.71253 -0.75761,1.01015 -0.29762,0.29762 -0.69059,0.4837 -1.01016,0.75762 -0.27116,0.23242 -0.50507,0.50507 -0.75761,0.75761 -0.16836,0.16836 -0.373,0.30697 -0.50508,0.50508 -0.69995,1.04993 -0.18297,0.85348 -1.01015,1.51523 -0.237,0.1896 -0.52061,0.31547 -0.75761,0.50507 -0.18592,0.14874 -0.3146,0.36222 -0.50508,0.50508 -0.15058,0.11294 -0.33672,0.16836 -0.50508,0.25254 -0.50507,0.25253 -1.01015,0.50507 -1.51522,0.75761 -0.16836,0.0842 -0.34846,0.14813 -0.50508,0.25254 -0.58017,0.38678 0.10829,0.14425 -0.50508,0.75761 -0.1331,0.1331 -0.34846,0.14813 -0.50507,0.25254 -0.54366,0.36244 0.0386,0.14264 -0.50508,0.50508 -0.31323,0.20882 -0.69692,0.29625 -1.01015,0.50507 -0.58017,0.38679 0.10829,0.14425 -0.50508,0.75762 -0.1331,0.1331 -0.37198,0.11944 -0.50507,0.25254 -0.0595,0.0595 0.0595,0.19301 0,0.25253 -0.0595,0.0595 -0.17725,-0.0376 -0.25254,0 -0.55838,0.27919 -0.0784,0.15674 -0.25254,0.50508 -0.0532,0.10648 -0.16836,0.16836 -0.25254,0.25254 -0.0842,0.0842 -0.16836,0.16836 -0.25254,0.25254 -0.8745,0.8745 -0.15944,0.17833 -2.31595,1.89735"
         style="fill:none;stroke:#00ffff;stroke-width:1px;stroke-linecap:butt;stroke-linejoin:miter;stroke-opacity:1" />
      <path
         inkscape:connector-curvature="0"
         id="path1518"
         d="m -145,427.99998 c 0.77198,-0.17814 1.52615,-0.5969 2.31595,-0.53441 0.30257,0.0239 0.36934,0.48614 0.50508,0.75761 0.11905,0.2381 0.10488,0.53613 0.25254,0.75762 0.83432,0.83432 0.6767,0.57765 1.26269,1.51522 0.26015,0.41624 0.43817,0.89002 0.75761,1.2627 0.19753,0.23044 0.52717,0.30755 0.75762,0.50507 3.09285,3.09285 -0.85184,-0.63887 2.0203,1.51523 0.38095,0.28571 0.67344,0.67344 1.01015,1.01015 0.25254,0.25254 0.45476,0.56833 0.75762,0.75762 0.38441,0.24026 0.8855,0.25362 1.26269,0.50507 0.39621,0.26415 0.67343,0.67344 1.01015,1.01016 0.25254,0.25253 0.45476,0.56833 0.75762,0.75761 0.38441,0.24026 0.87827,0.26482 1.26269,0.50508 0.76537,0.76537 0.63625,0.7353 1.51523,1.26269 1.37871,0.82723 -0.32988,-0.19414 1.01015,0.25254 0.11294,0.0376 0.15348,0.1865 0.25254,0.25253 0.15661,0.10442 0.37197,0.11944 0.50507,0.25254 0.1331,0.1331 0.11944,0.37198 0.25254,0.50508 0.1331,0.1331 0.33672,0.16836 0.50508,0.25254 0.16836,0.16836 0.35634,0.31915 0.50507,0.50507 0.18961,0.23701 0.29046,0.543 0.50508,0.75762 0.90979,0.90979 0.90741,0.54572 1.76777,1.26269 1.79966,1.79966 -0.24273,-0.14368 1.51523,1.26269 0.18592,0.14874 0.3146,0.36222 0.50507,0.50507 0.15059,0.11294 0.34846,0.14813 0.50508,0.25254 0.0991,0.066 0.14606,0.1993 0.25254,0.25254 0.15058,0.0753 0.42056,-0.14561 0.50507,0 0.38662,0.66615 0.64385,1.39942 0.96577,2.09913"
         style="fill:none;stroke:#00ffff;stroke-width:1px;stroke-linecap:butt;stroke-linejoin:miter;stroke-opacity:1" />
      <path
         inkscape:connector-curvature="0"
         id="path1520"
         d="m -130,457.99998 c 0.40185,-0.66587 1.05371,-1.23484 1.20555,-1.9976 0.052,-0.26108 -0.50508,-0.16836 -0.75761,-0.25254 -0.25254,-0.0842 -0.49504,-0.20878 -0.75762,-0.25254 -0.2491,-0.0415 -0.50507,0 -0.75761,0 -0.50508,0 -1.01016,0 -1.51523,0 -0.0988,0 -1.65885,-0.0363 -1.76777,0 -0.22588,0.0753 -0.30697,0.37301 -0.50507,0.50508 -0.36802,0.24534 -0.52601,0.15766 -0.75762,0.50507 -0.10441,0.15662 -0.1396,0.35449 -0.25254,0.50508 -0.14285,0.19048 -0.39859,0.29212 -0.50507,0.50508 -0.0753,0.15058 0.0753,0.35449 0,0.50507 -0.10648,0.21296 -0.38258,0.30091 -0.50508,0.50508 -0.005,0.008 -0.49199,1.4825 -0.50508,1.51523 -0.23553,0.58883 -0.38542,0.54478 -0.50507,1.26269 -0.0415,0.2491 0.0415,0.50851 0,0.75761 -0.0438,0.26258 -0.20878,0.49504 -0.25254,0.75762 -0.0212,0.12718 -0.0397,1.56923 0,1.76776 0.0522,0.26103 0.20877,0.49504 0.25254,0.75762 0.0415,0.2491 -0.0495,0.50998 0,0.75761 0.0637,0.31864 0.8537,1.57221 1.01015,1.76777 0.14874,0.18592 0.35634,0.31915 0.50508,0.50508 0.1896,0.237 0.29046,0.54299 0.50507,0.75761 0.21462,0.21462 0.52061,0.31547 0.75762,0.50508 0.18592,0.14873 0.31915,0.35634 0.50507,0.50507 0.23701,0.18961 0.50508,0.33672 0.75762,0.50508 0.25254,0.16836 0.47864,0.38552 0.75761,0.50507 0.31902,0.13673 0.67643,0.15719 1.01015,0.25254 0.25596,0.0731 0.50508,0.16836 0.75762,0.25254 0.25254,0.0842 0.49658,0.20033 0.75761,0.25254 0.33018,0.066 0.67344,0 1.01016,0 0.16835,0 0.34535,0.0532 0.50507,0 0.11294,-0.0376 0.16836,-0.16836 0.25254,-0.25254 1.54643,-1.54643 -0.31944,0.42592 0.75761,-1.01015 1.54643,-1.54643 -0.31943,0.42592 0.75762,-1.01015 0.14286,-0.19048 0.38258,-0.30092 0.50508,-0.50508 0.13695,-0.22826 0.15367,-0.51046 0.25253,-0.75761 0.0699,-0.17477 0.18263,-0.33031 0.25254,-0.50508 0.0989,-0.24716 0.15368,-0.51046 0.25254,-0.75762 0.34525,-0.86313 0.32214,-0.23466 0.50508,-1.51522 0.0357,-0.25 0,-0.50508 0,-0.75762 0,-0.67343 0,-1.34687 0,-2.0203 0,-0.4209 0.0825,-0.84997 0,-1.26269 -0.0369,-0.18458 -0.20689,-0.32247 -0.25254,-0.50508 -0.22004,-0.88015 0.40115,-0.17321 -0.25254,-1.26269 -0.1225,-0.20417 -0.35634,-0.31916 -0.50508,-0.50508 -1.27429,-1.59287 0.20936,-0.0432 -1.01015,-1.26269 -0.06,-0.06 -0.92525,-0.98185 -1.01015,-1.01015 -0.15972,-0.0532 -0.34536,0.0532 -0.50508,0 -0.11294,-0.0377 -0.1396,-0.21489 -0.25254,-0.25254 -0.15972,-0.0532 -0.34535,0.0532 -0.50507,0 -0.11294,-0.0377 -0.23401,-0.37013 -0.25254,-0.25254 -0.0775,0.49181 0.0381,0.99502 0.0571,1.49253"
         style="fill:none;stroke:#ff00ff;stroke-width:1px;stroke-linecap:butt;stroke-linejoin:miter;stroke-opacity:1" />
      <path
         inkscape:connector-curvature="0"
         id="path1522"
         d="m -65,397.99998 c -0.725048,-0.27966 -1.398329,-0.81744 -2.175144,-0.83899 -0.357006,-0.01 -0.505077,0.50508 -0.757615,0.75761 -0.252538,0.25254 -0.488837,0.52244 -0.757614,0.75762 -0.955896,0.83641 -1.269615,0.89196 -2.020305,1.76777 -0.273916,0.31956 -0.459996,0.71253 -0.757615,1.01015 -1.672095,1.67209 -0.393292,-0.13414 -1.767767,1.51523 -0.194304,0.23316 -0.354491,0.49409 -0.505076,0.75761 -0.186777,0.32686 -0.238878,0.74396 -0.505076,1.01015 -0.266199,0.2662 -0.720947,0.26408 -1.010153,0.50508 -0.233165,0.1943 -0.336717,0.50508 -0.505076,0.75762 -0.168359,0.25253 -0.354492,0.49409 -0.505076,0.75761 -0.377456,0.66055 -0.386936,1.09975 -1.010153,1.51523 -0.313235,0.20882 -0.720947,0.26407 -1.010152,0.50507 -0.233166,0.19431 -0.310772,0.52445 -0.505077,0.75762 -1.799664,1.79966 0.143677,-0.24273 -1.26269,1.51523 -0.148737,0.18592 -0.362219,0.3146 -0.505077,0.50507 -0.112938,0.15059 -0.139599,0.3545 -0.252538,0.50508 -0.142857,0.19048 -0.336717,0.33672 -0.505076,0.50508 -0.168359,0.16836 -0.336718,0.33671 -0.505076,0.50507 -0.08418,0.0842 -0.186503,0.15349 -0.252538,0.25254 -0.104412,0.15662 -0.119439,0.37198 -0.252539,0.50508 -0.266198,0.2662 -0.708983,0.2792 -1.010152,0.50507 -0.728201,0.54615 -0.327426,0.36487 -0.757614,1.01016 -0.132072,0.1981 -0.398597,0.29211 -0.505077,0.50507 -0.03765,0.0753 0.05952,0.19302 0,0.25254 -0.05952,0.0595 -0.235196,-0.0824 -0.252538,0 -0.130774,0.62116 -0.09812,1.26575 -0.147186,1.89863"
         style="fill:none;stroke:#00ffff;stroke-width:1px;stroke-linecap:butt;stroke-linejoin:miter;stroke-opacity:1" />
      <path
         inkscape:connector-curvature="0"
         id="path1524"
         d="m -85,402.99998 c 0.554138,-0.4311 0.986291,-1.10416 1.662415,-1.2933 0.256357,-0.0717 0.153674,0.51045 0.252538,0.75761 0.06991,0.17477 0.168359,0.33672 0.252538,0.50508 0.527192,1.05438 -0.09329,-0.0535 0.757615,1.01015 1.274295,1.59287 -0.20936,0.0432 1.010152,1.26269 0.420897,0.4209 0.805416,0.88163 1.262691,1.26269 0.323342,0.26945 0.690584,0.4837 1.010152,0.75762 0.271163,0.23242 0.48325,0.52897 0.757615,0.75761 0.233165,0.1943 0.524449,0.31077 0.757614,0.50508 0.274365,0.22863 0.48325,0.52897 0.757615,0.75761 0.233165,0.19431 0.542998,0.29046 0.757614,0.50508 1.282436,1.28243 0.243923,0.66625 1.262691,1.51523 0.998031,0.83169 0.965255,0.57896 1.767767,1.51522 0.273916,0.31957 0.440857,0.73299 0.757614,1.01016 0.369399,0.32322 0.870014,0.4631 1.262691,0.75761 0.285714,0.21429 0.505076,0.50508 0.757614,0.75762 0.336718,0.33671 0.673435,0.67343 1.010153,1.01015 0.252538,0.25254 0.483249,0.52898 0.757614,0.75761 0.466331,0.38861 1.085997,0.58092 1.515229,1.01016 0.214616,0.21461 0.322968,0.5148 0.505076,0.75761 0.214286,0.28571 0.505076,0.50508 0.757615,0.75761 0.08418,0.0842 0.199298,0.14606 0.252538,0.25254 0.03765,0.0753 -0.05952,0.19302 0,0.25254 0.05952,0.0595 0.246469,0.084 0.252538,0 0.05153,-0.71288 -0.06513,-1.42799 -0.0977,-2.14198"
         style="fill:none;stroke:#00ffff;stroke-width:1px;stroke-linecap:butt;stroke-linejoin:miter;stroke-opacity:1" />
    </g>
    <rect
       style="fill:#ffffff;fill-opacity:0.85365858;stroke:none;stroke-width:2.00018311;stroke-linecap:round;stroke-linejoin:round;stroke-miterlimit:4;stroke-dasharray:none;stroke-opacity:1"
       id="rect1974"
       width="320.04022"
       height="480.02756"
       x="-8.5288162"
       y="534.72913" />
  </g>
</svg>
