<?xml version="1.0" encoding="UTF-8" standalone="no"?>
<!-- Created with Inkscape (http://www.inkscape.org/) -->

<svg xmlns:dc="http://purl.org/dc/elements/1.1/" xmlns:cc="http://creativecommons.org/ns#" xmlns:rdf="http://www.w3.org/1999/02/22-rdf-syntax-ns#"
    xmlns="http://www.w3.org/2000/svg" xmlns:sodipodi="http://sodipodi.sourceforge.net/DTD/sodipodi-0.dtd"
    xmlns:inkscape="http://www.inkscape.org/namespaces/inkscape" width="52" height="29.500149"
    viewBox="0 0 52 29.500149" version="1.1" id="svg8" inkscape:version="0.92.2 5c3e80d, 2017-08-06"
    sodipodi:docname="connect.svg">
  <defs
     id="defs2" />
  <sodipodi:namedview
     id="base"
     pagecolor="#ffffff"
     bordercolor="#666666"
     borderopacity="1.0"
     inkscape:pageopacity="0.0"
     inkscape:pageshadow="2"
     inkscape:zoom="8.8660715"
     inkscape:cx="25.39047"
     inkscape:cy="3.1060218"
     inkscape:document-units="px"
     inkscape:current-layer="layer1"
     showgrid="true"
     units="px"
     inkscape:window-width="1596"
     inkscape:window-height="861"
     inkscape:window-x="0"
     inkscape:window-y="18"
     inkscape:window-maximized="0"
     inkscape:snap-global="true"
     inkscape:snap-bbox="false"
     inkscape:bbox-paths="true"
     inkscape:bbox-nodes="true"
     inkscape:snap-bbox-midpoints="true"
     inkscape:snap-bbox-edge-midpoints="true"
     fit-margin-top="5"
     fit-margin-left="5"
     fit-margin-right="5"
     fit-margin-bottom="5">
    <inkscape:grid
       type="xygrid"
       id="grid815"
       originx="-271.5"
       originy="-395.24993" />
  </sodipodi:namedview>
  <metadata
     id="metadata5">
    <rdf:RDF>
      <cc:Work
         rdf:about="">
        <dc:format>image/svg+xml</dc:format>
        <dc:type
           rdf:resource="http://purl.org/dc/dcmitype/StillImage" />
        <dc:title></dc:title>
      </cc:Work>
    </rdf:RDF>
  </metadata>
  <g
     inkscape:label="Ebene 1"
     inkscape:groupmode="layer"
     id="layer1"
     transform="translate(-271.5,-578.24991)">
    <path
       style="color:#000000;font-style:normal;font-variant:normal;font-weight:normal;font-stretch:normal;font-size:medium;line-height:normal;font-family:sans-serif;font-variant-ligatures:normal;font-variant-position:normal;font-variant-caps:normal;font-variant-numeric:normal;font-variant-alternates:normal;font-feature-settings:normal;text-indent:0;text-align:start;text-decoration:none;text-decoration-line:none;text-decoration-style:solid;text-decoration-color:#000000;letter-spacing:normal;word-spacing:normal;text-transform:none;writing-mode:lr-tb;direction:ltr;text-orientation:mixed;dominant-baseline:auto;baseline-shift:baseline;text-anchor:start;white-space:normal;shape-padding:0;clip-rule:nonzero;display:inline;overflow:visible;visibility:visible;opacity:1;isolation:auto;mix-blend-mode:normal;color-interpolation:sRGB;color-interpolation-filters:linearRGB;solid-color:#000000;solid-opacity:1;vector-effect:none;fill:#000000;fill-opacity:1;fill-rule:nonzero;stroke:none;stroke-width:4.5;stroke-linecap:butt;stroke-linejoin:miter;stroke-miterlimit:4;stroke-dasharray:none;stroke-dashoffset:0;stroke-opacity:1;color-rendering:auto;image-rendering:auto;shape-rendering:auto;text-rendering:auto;enable-background:accumulate"
       d="m 286.25,583.24998 c 0,0 -2.34322,-0.0311 -4.75488,1.1748 -2.41166,1.20584 -4.99512,4.0752 -4.99512,8.5752 0,4.5 2.58346,7.36936 4.99512,8.5752 2.41166,1.20582 4.75488,1.1748 4.75488,1.1748 h 7.5 c 0,0 1.15029,-0.0116 2.63965,-0.40137 -0.0775,-0.0365 -0.15362,-0.0636 -0.23144,-0.10254 -1.46908,-0.73453 -2.99483,-2.10093 -4.0547,-3.99609 H 286.25 c 0,0 -1.40678,-0.0311 -2.74512,-0.7002 -1.33835,-0.66916 -2.50488,-1.5498 -2.50488,-4.5498 0,-3 1.16653,-3.88064 2.50488,-4.5498 1.33834,-0.66918 2.74512,-0.7002 2.74512,-0.7002 h 7.5 c 0,0 1.40678,0.031 2.74512,0.7002 1.33834,0.66916 2.50488,1.5498 2.50488,4.5498 0,1.72058 -0.38995,2.7327 -0.96972,3.41895 0.24906,0.1743 0.52366,0.31603 0.81152,0.45996 1.15945,0.57969 2.4082,0.62109 2.4082,0.62109 h 1.23633 c 0.61875,-1.25441 1.01367,-2.75101 1.01367,-4.5 0,-4.5 -2.58347,-7.36936 -4.99512,-8.5752 -2.41166,-1.20582 -4.75488,-1.1748 -4.75488,-1.1748 z"
       id="path1552"
       inkscape:connector-curvature="0" />
    <path
       style="color:#000000;font-style:normal;font-variant:normal;font-weight:normal;font-stretch:normal;font-size:medium;line-height:normal;font-family:sans-serif;font-variant-ligatures:normal;font-variant-position:normal;font-variant-caps:normal;font-variant-numeric:normal;font-variant-alternates:normal;font-feature-settings:normal;text-indent:0;text-align:start;text-decoration:none;text-decoration-line:none;text-decoration-style:solid;text-decoration-color:#000000;letter-spacing:normal;word-spacing:normal;text-transform:none;writing-mode:lr-tb;direction:ltr;text-orientation:mixed;dominant-baseline:auto;baseline-shift:baseline;text-anchor:start;white-space:normal;shape-padding:0;clip-rule:nonzero;display:inline;overflow:visible;visibility:visible;opacity:1;isolation:auto;mix-blend-mode:normal;color-interpolation:sRGB;color-interpolation-filters:linearRGB;solid-color:#000000;solid-opacity:1;vector-effect:none;fill:#040404;fill-opacity:1;fill-rule:nonzero;stroke:none;stroke-width:4.5;stroke-linecap:butt;stroke-linejoin:miter;stroke-miterlimit:4;stroke-dasharray:none;stroke-dashoffset:0;stroke-opacity:1;color-rendering:auto;image-rendering:auto;shape-rendering:auto;text-rendering:auto;enable-background:accumulate"
       d="m 301.25,583.24998 c 0,0 -1.15029,0.0115 -2.63966,0.40137 0.0775,0.0365 0.15363,0.0636 0.23145,0.10254 1.46844,0.73421 2.99193,2.10222 4.05176,3.99609 H 308.75 c 0,0 1.40678,0.031 2.74512,0.7002 1.33834,0.66916 2.50488,1.5498 2.50488,4.5498 0,3 -1.16654,3.88064 -2.50488,4.5498 -1.33834,0.66918 -2.74512,0.7002 -2.74512,0.7002 h -7.5 c -3,0 -3.88063,-1.16654 -4.5498,-2.50488 -0.66918,-1.33835 -0.7002,-2.74512 -0.7002,-2.74512 0,-1.72058 0.38995,-2.7327 0.96972,-3.41895 -0.24906,-0.1743 -0.52367,-0.31603 -0.81152,-0.45996 -1.15945,-0.57969 -2.4082,-0.62109 -2.4082,-0.62109 h -1.23633 c -0.61875,1.25441 -1.01367,2.75101 -1.01367,4.5 0,0 -0.031,2.34323 1.1748,4.75488 1.20583,2.41166 4.0752,4.99512 8.5752,4.99512 h 7.5 c 0,0 2.34322,0.031 4.75488,-1.1748 2.41165,-1.20584 4.99512,-4.0752 4.99512,-8.5752 0,-4.5 -2.58347,-7.36936 -4.99512,-8.5752 -2.41166,-1.20582 -4.75488,-1.1748 -4.75488,-1.1748 z"
       id="path1554"
       inkscape:connector-curvature="0" />
    <path
       style="fill:none;stroke:#000000;stroke-width:1.5;stroke-linecap:butt;stroke-linejoin:miter;stroke-miterlimit:4;stroke-dasharray:none;stroke-opacity:1"
       d="m 293.75,585.49998 c 0,0 7.5,0 7.5,7.5"
       id="path1556"
       inkscape:connector-curvature="0" />
  </g>
</svg>
