<?xml version="1.0" encoding="UTF-8" standalone="no"?>
<!-- Created with Inkscape (http://www.inkscape.org/) -->

<svg xmlns:dc="http://purl.org/dc/elements/1.1/" xmlns:cc="http://creativecommons.org/ns#" xmlns:rdf="http://www.w3.org/1999/02/22-rdf-syntax-ns#"
    xmlns="http://www.w3.org/2000/svg" xmlns:sodipodi="http://sodipodi.sourceforge.net/DTD/sodipodi-0.dtd"
    xmlns:inkscape="http://www.inkscape.org/namespaces/inkscape" width="42.712105" height="69.075394"
    viewBox="0 0 42.712105 69.075394" version="1.1" id="svg8" inkscape:version="0.92.2 5c3e80d, 2017-08-06"
    sodipodi:docname="O.svg">
  <defs
     id="defs2" />
  <sodipodi:namedview
     id="base"
     pagecolor="#ffffff"
     bordercolor="#666666"
     borderopacity="1.0"
     inkscape:pageopacity="0.0"
     inkscape:pageshadow="2"
     inkscape:zoom="5.6"
     inkscape:cx="28.372012"
     inkscape:cy="30.03301"
     inkscape:document-units="px"
     inkscape:current-layer="layer1"
     showgrid="true"
     units="px"
     inkscape:window-width="1596"
     inkscape:window-height="861"
     inkscape:window-x="0"
     inkscape:window-y="18"
     inkscape:window-maximized="0"
     fit-margin-top="0"
     fit-margin-left="0"
     fit-margin-right="0"
     fit-margin-bottom="0">
    <inkscape:grid
       type="xygrid"
       id="grid815"
       originx="-37.225123"
       originy="-269.3672" />
  </sodipodi:namedview>
  <metadata
     id="metadata5">
    <rdf:RDF>
      <cc:Work
         rdf:about="">
        <dc:format>image/svg+xml</dc:format>
        <dc:type
           rdf:resource="http://purl.org/dc/dcmitype/StillImage" />
        <dc:title></dc:title>
      </cc:Work>
    </rdf:RDF>
  </metadata>
  <g
     inkscape:label="Ebene 1"
     inkscape:groupmode="layer"
     id="layer1"
     transform="translate(-37.225123,-664.55738)">
    <path
       style="fill:none;stroke:#000000;stroke-width:4;stroke-linecap:butt;stroke-linejoin:miter;stroke-miterlimit:4;stroke-dasharray:none;stroke-opacity:1"
       d="m 50,672.99998 c -0.238095,-0.71429 -0.181889,-1.61046 -0.714286,-2.14286 -0.02866,-0.0287 -3.173058,0 -3.571428,0 -0.238095,0 -0.545927,-0.16836 -0.714286,0 -0.168359,0.16836 0.07529,0.48841 0,0.71429 -0.168359,0.50507 -0.47619,0.95238 -0.714286,1.42857 -0.238095,0.47619 -0.418965,0.98559 -0.714285,1.42857 -0.186778,0.28017 -0.527509,0.43412 -0.714286,0.71429 -0.837564,1.25634 -0.847776,2.11944 -1.428572,3.57143 -0.395454,0.98863 -1.17032,1.82414 -1.428571,2.85714 -0.115493,0.46197 0,0.95238 0,1.42857 0,0.71429 0,1.42857 0,2.14286 0,0.47619 0.09339,0.96163 0,1.42857 -0.940163,4.70081 -0.714286,-0.3939 -0.714286,4.28571 0,4.04762 0,8.09524 0,12.14286 0,0.45965 -0.120847,4.51661 0,5 0.129126,0.5165 0.585161,0.91207 0.714286,1.42857 0.230986,0.92395 -0.230986,1.9332 0,2.85714 0.354623,1.41849 1.788235,2.86723 2.142857,4.28572 0.115493,0.46197 -0.115493,0.9666 0,1.42857 0.07816,0.31262 1.931995,4.00456 2.142857,4.28571 0.404061,0.53875 0.952381,0.95238 1.428572,1.42858 0.47619,0.47619 0.952381,0.95238 1.428571,1.42857 0.476191,0.47619 0.952381,0.95238 1.428572,1.42857 0.714285,0.71428 1.302359,1.58252 2.142857,2.14286 0.62647,0.41764 1.497231,0.32691 2.142857,0.71428 0.577466,0.34648 0.889823,1.02451 1.428571,1.42857 0.425918,0.31944 0.923496,0.54593 1.428572,0.71429 0.159812,0.0533 3.253218,0.10607 3.571428,0 0.505077,-0.16836 0.952381,-0.47619 1.428572,-0.71429 0.47619,-0.23809 0.98559,-0.41896 1.428571,-0.71428 0.280166,-0.18678 0.476191,-0.47619 0.714286,-0.71429 0.952381,-0.95238 1.805414,-2.01576 2.857143,-2.85714 0.670348,-0.53628 1.40673,-0.9869 2.142857,-1.42857 0.456527,-0.27392 1.109133,-0.28837 1.428571,-0.71429 0.451754,-0.60234 0.243939,-1.55492 0.714286,-2.14286 0.536279,-0.67034 1.535831,-0.82154 2.142857,-1.42857 1.605457,-1.60545 1.368263,-2.34923 2.142857,-4.28571 0.197728,-0.49432 0.516559,-0.93425 0.714286,-1.42857 0.559257,-1.39815 0.869314,-2.88757 1.428572,-4.28572 0.197727,-0.49432 0.609874,-0.90651 0.714285,-1.42857 0.140083,-0.70041 -0.140083,-1.44244 0,-2.14286 0.104412,-0.52205 0.609874,-0.90651 0.714286,-1.42857 0.140083,-0.70041 0,-1.42857 0,-2.14285 0,-0.71429 0,-1.42858 0,-2.14286 0,-2.14286 0,-4.28572 0,-6.42857 0,-2.61905 0,-5.2381 0,-7.85715 0,-0.47619 0,-0.95238 0,-1.42857 0,-0.47619 0.115493,-0.9666 0,-1.42857 -0.129125,-0.5165 -0.476191,-0.95238 -0.714286,-1.42857 -1.632759,-3.26552 0.442981,0.7383 -2.142857,-3.57143 -0.273916,-0.45653 -0.394847,-1.00265 -0.714286,-1.42857 -0.404061,-0.53875 -0.952381,-0.95238 -1.428571,-1.42857 -0.714286,-0.71429 -1.428571,-1.42857 -2.142857,-2.14286 -0.557919,-0.55792 -1.5265,-1.73195 -2.142857,-2.14286 -0.442982,-0.29532 -1.002654,-0.39484 -1.428572,-0.71428 -0.538748,-0.40406 -0.889823,-1.02451 -1.428571,-1.42857 -0.463875,-0.34791 -3.709319,-1.95073 -4.285715,-2.14286 -0.225876,-0.0753 -0.501326,0.10648 -0.714285,0 -0.30117,-0.15059 -0.413117,-0.5637 -0.714286,-0.71429 -0.212959,-0.10648 -0.501327,0.10648 -0.714286,0 -0.301169,-0.15058 -0.413116,-0.5637 -0.714285,-0.71428 -0.03737,-0.0187 -2.105489,-0.0187 -2.142858,0 -2.972686,1.48634 0.763597,-0.0493 -0.714285,1.42857 -0.168359,0.16836 -0.501327,-0.10648 -0.714286,0 -2.972686,1.48634 0.763597,-0.0493 -0.714286,1.42857 -0.336717,0.33672 -1.091854,-0.33672 -1.428571,0 -0.168359,0.16836 0.168359,0.54593 0,0.71429 -0.336718,0.33671 -1.142857,-0.38096 -1.428572,0 C 50.789695,670.99467 50.47619,672.0476 50,672.99998"
       id="path1380"
       inkscape:connector-curvature="0" />
  </g>
</svg>
