<?xml version="1.0" encoding="UTF-8" standalone="no"?>
<!-- Created with Inkscape (http://www.inkscape.org/) -->

<svg xmlns:dc="http://purl.org/dc/elements/1.1/" xmlns:cc="http://creativecommons.org/ns#" xmlns:rdf="http://www.w3.org/1999/02/22-rdf-syntax-ns#"
    xmlns="http://www.w3.org/2000/svg" xmlns:sodipodi="http://sodipodi.sourceforge.net/DTD/sodipodi-0.dtd"
    xmlns:inkscape="http://www.inkscape.org/namespaces/inkscape" width="44.786613" height="73.8032"
    viewBox="0 0 44.786614 73.8032" version="1.1" id="svg8" inkscape:version="0.92.2 5c3e80d, 2017-08-06"
    sodipodi:docname="X.svg">
  <defs
     id="defs2" />
  <sodipodi:namedview
     id="base"
     pagecolor="#ffffff"
     bordercolor="#666666"
     borderopacity="1.0"
     inkscape:pageopacity="0.0"
     inkscape:pageshadow="2"
     inkscape:zoom="5.6"
     inkscape:cx="28.580728"
     inkscape:cy="31.203508"
     inkscape:document-units="px"
     inkscape:current-layer="layer1"
     showgrid="true"
     units="px"
     inkscape:window-width="1596"
     inkscape:window-height="861"
     inkscape:window-x="0"
     inkscape:window-y="18"
     inkscape:window-maximized="0"
     fit-margin-top="0"
     fit-margin-left="0"
     fit-margin-right="0"
     fit-margin-bottom="0">
    <inkscape:grid
       type="xygrid"
       id="grid815"
       originx="-37.016407"
       originy="-268.1967" />
  </sodipodi:namedview>
  <metadata
     id="metadata5">
    <rdf:RDF>
      <cc:Work
         rdf:about="">
        <dc:format>image/svg+xml</dc:format>
        <dc:type
           rdf:resource="http://purl.org/dc/dcmitype/StillImage" />
        <dc:title></dc:title>
      </cc:Work>
    </rdf:RDF>
  </metadata>
  <g
     inkscape:label="Ebene 1"
     inkscape:groupmode="layer"
     id="layer1"
     transform="translate(-37.016407,-661.00007)">
    <path
       style="fill:none;stroke:#000000;stroke-width:4;stroke-linecap:butt;stroke-linejoin:miter;stroke-miterlimit:4;stroke-dasharray:none;stroke-opacity:1"
       d="m 40,732.99997 c -0.329721,-0.3843 -0.725851,-0.72039 -0.989163,-1.15291 -0.0205,-0.0337 0.506788,-0.47786 0.535715,-0.53572 0.08418,-0.16835 0.108664,-0.36094 0.178571,-0.53571 0.04943,-0.12358 0.119048,-0.23809 0.178571,-0.35714 0.05952,-0.11905 0.09871,-0.25067 0.178572,-0.35715 0.841086,-1.12144 -0.159702,0.56379 0.714286,-0.89285 0.06848,-0.11413 0.119047,-0.2381 0.178571,-0.35715 0.178571,-0.17857 0.395631,-0.32559 0.535714,-0.53571 0.104412,-0.15662 0.08173,-0.37431 0.178572,-0.53571 0.08662,-0.14437 0.25197,-0.22568 0.357143,-0.35715 0.134069,-0.16758 0.238095,-0.35714 0.357142,-0.53571 0.119048,-0.17857 0.250664,-0.34938 0.357143,-0.53572 0.132072,-0.23112 0.238096,-0.47619 0.357143,-0.71428 0.05952,-0.11905 0.09871,-0.25066 0.178572,-0.35714 0.101015,-0.13469 0.270523,-0.21278 0.357142,-0.35715 0.09684,-0.1614 0.09439,-0.36735 0.178572,-0.53571 0.191958,-0.38392 0.501327,-0.69875 0.714286,-1.07143 0.132071,-0.23112 0.209482,-0.49279 0.357142,-0.71429 0.09339,-0.14008 0.270523,-0.21277 0.357143,-0.35714 0.09684,-0.1614 0.119048,-0.35714 0.178572,-0.53571 0.05952,-0.17857 0.119047,-0.35715 0.178571,-0.53572 0.05952,-0.17857 0.07416,-0.37909 0.178572,-0.53571 0.140083,-0.21013 0.395631,-0.32559 0.535714,-0.53572 0.104412,-0.15661 0.08173,-0.3743 0.178571,-0.53571 0.08662,-0.14437 0.238096,-0.23809 0.357143,-0.35714 0.05952,-0.17857 0.09439,-0.36736 0.178572,-0.53572 0.09598,-0.19196 0.250663,-0.34937 0.357142,-0.53571 0.132072,-0.23113 0.225072,-0.48316 0.357143,-0.71429 0.10648,-0.18634 0.238096,-0.35714 0.357143,-0.53571 0.119048,-0.17857 0.219749,-0.37084 0.357143,-0.53572 0.161671,-0.194 0.374043,-0.3417 0.535714,-0.53571 0.137394,-0.16487 0.261164,-0.34376 0.357143,-0.53571 0.08418,-0.16836 0.05807,-0.39112 0.178572,-0.53572 0.347288,-0.26046 0.787633,-0.53811 1.071428,-0.89286 0.561737,-0.70217 0.190547,-0.41201 0.714286,-1.25 0.157738,-0.25238 0.345183,-0.48564 0.535714,-0.71428 0.107781,-0.12934 0.249362,-0.22781 0.357143,-0.35714 0.905257,-1.08631 0.197001,-0.3222 0.892857,-1.25 0.228683,-0.30491 0.485603,-0.58795 0.714286,-0.89286 0.12877,-0.17169 0.219749,-0.37084 0.357143,-0.53572 0.161671,-0.194 0.401869,-0.32156 0.535714,-0.53571 0.169889,-0.27182 0.179336,-0.62615 0.357143,-0.89286 0.555555,-0.83333 0.729167,-0.52083 1.25,-1.25 0.154725,-0.21661 0.202418,-0.49767 0.357143,-0.71428 0.146785,-0.2055 0.357143,-0.35715 0.535714,-0.53572 0.238095,-0.29762 0.502868,-0.57573 0.714286,-0.89285 0.14766,-0.22149 0.209482,-0.4928 0.357143,-0.71429 0.211417,-0.31713 0.485602,-0.58795 0.714285,-0.89286 0.336928,-0.44923 0.55593,-0.97933 0.892857,-1.42857 0.151523,-0.20203 0.40187,-0.32156 0.535715,-0.53571 0.169889,-0.27182 0.21379,-0.60616 0.357143,-0.89286 0.09598,-0.19196 0.243396,-0.35372 0.357142,-0.53571 0.183953,-0.29433 0.357143,-0.59524 0.535715,-0.89286 0.178571,-0.29762 0.380495,-0.58242 0.535714,-0.89286 0.143352,-0.2867 0.213791,-0.60615 0.357143,-0.89286 0.310438,-0.62087 0.789503,-1.15138 1.071428,-1.78571 0.09968,-0.22427 0.06881,-0.49477 0.178572,-0.71429 0.133099,-0.26619 0.362727,-0.4721 0.535714,-0.71428 0.124743,-0.17464 0.250664,-0.34938 0.357143,-0.53572 0.132072,-0.23112 0.252282,-0.46961 0.357143,-0.71428 0.07415,-0.17301 0.08518,-0.37229 0.178571,-0.53572 0.147661,-0.2584 0.402615,-0.44808 0.535715,-0.71428 0.109756,-0.21951 0.100962,-0.48146 0.178571,-0.71429 0.133639,-0.40091 0.331954,-0.48533 0.535714,-0.89285 0.180067,-0.36014 0.123097,-0.5808 0.357143,-0.89286 0.101015,-0.13469 0.270523,-0.21278 0.357143,-0.35714 0.09684,-0.16141 0.06098,-0.38873 0.178571,-0.53572 0.13407,-0.16759 0.401645,-0.18955 0.535715,-0.35714 0.117587,-0.14698 0.08173,-0.37431 0.178571,-0.53572 0.08662,-0.14436 0.25197,-0.22567 0.357143,-0.35714 0.682348,-0.85293 0.09563,-0.19125 0.535714,-1.07143 0.09598,-0.19196 0.261164,-0.34375 0.357143,-0.53571 0.08418,-0.16836 0.09439,-0.36736 0.178572,-0.53572 0.09598,-0.19195 0.261163,-0.34375 0.357142,-0.53571 0.08418,-0.16836 0.08173,-0.37431 0.178572,-0.53571 0.08662,-0.14437 0.270523,-0.21278 0.357143,-0.35715 0.193688,-0.32281 0.163455,-0.74861 0.357143,-1.07143 0.08662,-0.14436 0.270523,-0.21277 0.357143,-0.35714 0.360134,-0.60022 -0.0042,-0.41102 0.357142,-0.89286 0.151523,-0.20203 0.395632,-0.32559 0.535715,-0.53571 0.07383,-0.11075 0.08446,-0.26303 0.178571,-0.35714 0.04209,-0.0421 0.136482,0.0421 0.178572,0 0.09411,-0.0941 0.08446,-0.26303 0.178571,-0.35715 0.09412,-0.0941 0.246397,-0.10474 0.357143,-0.17857 0.07004,-0.0467 0.119047,-0.11904 0.178571,-0.17857 0.119048,-0.11905 0.238095,-0.23809 0.357143,-0.35714 0.119048,-0.11905 0.238095,-0.2381 0.357143,-0.35714 0.119048,-0.11905 0.270523,-0.21278 0.357143,-0.35715 0.09684,-0.1614 0.09439,-0.36735 0.178571,-0.53571 0.09598,-0.19196 0.246724,-0.35168 0.357143,-0.53572 0.06848,-0.11413 0.110092,-0.24301 0.178572,-0.35714 0.220838,-0.36806 0.493447,-0.70336 0.714285,-1.07143 0.251269,-0.41878 0.15272,-0.38179 0.357143,-0.89285 0.09886,-0.24716 0.29258,-0.45604 0.357143,-0.71429 0.02887,-0.11549 -0.03765,-0.2442 0,-0.35714 0.02662,-0.0799 0.151952,-0.0987 0.178571,-0.17857 0,-0.81291 -0.08418,-0.0102 0.178572,-0.53572 0.05324,-0.10648 -0.08418,-0.27296 0,-0.35714 0.04209,-0.0421 0.136482,0.0421 0.178571,0 0.08418,-0.0842 -0.03765,-0.24421 0,-0.35714 0.04209,-0.12627 0.136482,-0.23088 0.178572,-0.35715 0.01882,-0.0565 -0.02662,-0.12533 0,-0.17857 0.408625,-0.81725 -0.07401,0.75776 0.357143,-0.53571 0.01882,-0.0565 -0.02662,-0.12533 0,-0.17857 0.408625,-0.81725 -0.07401,0.75775 0.357142,-0.53572 0.01882,-0.0565 -0.02662,-0.12533 0,-0.17857 0.07529,-0.15058 0.303904,-0.19742 0.357143,-0.35714 0.03765,-0.11294 -0.02887,-0.24165 0,-0.35715 0.03228,-0.12912 0.136482,-0.23087 0.178572,-0.35714 0.01882,-0.0565 0,-0.11905 0,-0.17857 0.05952,-0.11905 0.119047,-0.23809 0.178571,-0.35714 0.05952,-0.11905 0.136482,-0.23088 0.178572,-0.35715 0.03765,-0.11293 -0.05324,-0.25066 0,-0.35714 0.148852,-0.2977 0.357142,-0.0807 0.357142,-0.53571 0,-0.47619 -0.05952,0.0595 0.178572,-0.17857 0.04209,-0.0421 -0.02815,-0.23102 0,-0.17858 0.295302,0.55013 0.540394,1.12576 0.810591,1.68863"
       id="path1405"
       inkscape:connector-curvature="0" />
    <path
       style="fill:none;stroke:#000000;stroke-width:4;stroke-linecap:butt;stroke-linejoin:miter;stroke-miterlimit:4;stroke-dasharray:none;stroke-opacity:1"
       d="m 40,662.99997 c 5.783188,0.0577 -0.805755,2.25446 -0.453448,3.31137 0.04209,0.12627 0.119047,0.2381 0.178571,0.35715 0.05952,0.11905 0.104741,0.2464 0.178571,0.35714 0.04669,0.07 0.131878,0.10853 0.178572,0.17857 0.07383,0.11075 0.119048,0.2381 0.178571,0.35714 0.216484,0.43297 0.408297,0.86752 0.714286,1.25 0.105173,0.13147 0.270523,0.21278 0.357143,0.35715 0.09684,0.1614 0.08173,0.37431 0.178571,0.53571 0.08662,0.14437 0.270523,0.21278 0.357143,0.35714 0.193688,0.32282 0.188784,0.73472 0.357143,1.07143 0.09598,0.19196 0.238095,0.35715 0.357143,0.53572 0.238095,0.35714 0.464799,0.72215 0.714286,1.07143 0.172987,0.24218 0.357142,0.47619 0.535714,0.71428 0.178571,0.2381 0.339731,0.49031 0.535714,0.71429 0.25,0.28571 1.428572,1.38393 1.607143,1.60714 0.21682,0.27102 0.343189,0.60407 0.535714,0.89286 0.16509,0.24763 0.349793,0.48188 0.535715,0.71428 0.290418,0.36303 0.613919,0.69951 0.892857,1.07143 0.515078,0.68677 0.913492,1.45609 1.428571,2.14286 0.278938,0.37192 0.63498,0.68461 0.892857,1.07143 0.828321,1.24248 0.978047,1.88619 1.607143,3.21428 0.28489,0.60144 0.572142,1.2026 0.892857,1.78572 0.334529,0.60823 0.693119,1.2037 1.071429,1.78571 0.395978,0.6092 0.899847,1.14907 1.25,1.78572 0.308954,0.56173 0.461747,1.19645 0.714286,1.78571 0.283318,0.66108 0.647065,1.28836 0.892857,1.96429 1.092361,3.00399 -0.08282,0.93627 1.25,3.75 0.262346,0.55384 0.607431,1.06483 0.892857,1.60714 2.794187,5.30895 -0.821372,-1.46417 1.607143,3.39286 0.274068,0.54813 0.582137,1.07892 0.892857,1.60714 0.284715,0.48401 0.641726,0.92631 0.892857,1.42857 0.22744,0.45488 0.308274,0.97369 0.535714,1.42857 0.191959,0.38392 0.501327,0.69875 0.714286,1.07143 0.264143,0.46225 0.476191,0.95238 0.714286,1.42857 0.178571,0.35714 0.392374,0.69875 0.535714,1.07143 0.15556,0.40446 0.201583,0.84554 0.357143,1.25 0.106292,0.27636 0.722789,1.40306 0.892857,1.78571 0.130186,0.29292 0.201472,0.61265 0.357143,0.89286 1.045962,1.88273 0.03947,-0.69098 1.071428,1.78572 0.144793,0.3475 0.201362,0.72871 0.357143,1.07142 0.143623,0.31597 0.367157,0.58946 0.535715,0.89286 0.781249,1.19091 0.0326,0.24377 0.535714,1.25 0.155219,0.31044 0.351762,0.59854 0.535714,0.89286 0.113747,0.18199 0.272602,0.33845 0.357143,0.53571 0.841506,1.96352 -0.58021,-0.58009 0.535714,1.42857 0.168558,0.30341 0.351762,0.59854 0.535715,0.89286 0.113746,0.182 0.261163,0.34376 0.357143,0.53572 0.279759,0.55952 0.424199,1.31705 0.892857,1.78571 0.217497,0.2175 0.398966,0.0837 0.535714,0.35714 0.02662,0.0532 -0.04209,0.13648 0,0.17857 0.04209,0.0421 0.136482,-0.0421 0.178571,0 0.04209,0.0421 -0.02662,0.12534 0,0.17858 0.03765,0.0753 0.140926,0.10328 0.178572,0.17857 0.02662,0.0532 -0.04209,0.13648 0,0.17857 0.04209,0.0421 0.136482,-0.0421 0.178571,0 0.04209,0.0421 -0.04209,0.13648 0,0.17857 0.04209,0.0421 0.125332,-0.0266 0.178572,0 0.07529,0.0376 0.119047,0.11905 0.178571,0.17857 0.05952,0.0595 0.131877,0.10853 0.178572,0.17857 0.393422,0.0899 0.09439,0.36736 0.178571,0.53572 0.03765,0.0753 0.131877,0.10853 0.178571,0.17857 0.07383,0.11074 0.104742,0.2464 0.178572,0.35714 0.09339,0.14008 0.263754,0.21706 0.357143,0.35714 0.07383,0.11075 0.104741,0.2464 0.178571,0.35715 0.04669,0.07 0.140925,0.10328 0.178572,0.17857 0.02662,0.0532 -0.02662,0.12533 0,0.17857 0.07529,0.15058 0.263754,0.21706 0.357142,0.35714 0.393422,0.0899 0.09439,0.36736 0.178572,0.53572 0.03765,0.0753 0.140925,0.10328 0.178571,0.17857 0.02662,0.0532 -0.02662,0.12533 0,0.17857 0.107143,0.21429 0.428572,0.32143 0.535715,0.53571 0.02662,0.0532 -0.04209,0.13649 0,0.17858 0.04209,0.0421 0.136481,-0.0421 0.178571,0 0.04209,0.0421 -0.04209,0.13648 0,0.17857 0.08418,0.0842 0.250663,-0.0532 0.357143,0 0.441322,0.22066 -0.06164,0.17857 0.357143,0.17857 0.119047,0 0.462844,-0.0548 0.357143,0 -0.789009,0.40881 -1.602463,0.76861 -2.403695,1.15291"
       id="path1407"
       inkscape:connector-curvature="0" />
  </g>
</svg>
